%TF.GenerationSoftware,KiCad,Pcbnew,8.0.5*%
%TF.CreationDate,2024-12-08T15:46:30-07:00*%
%TF.ProjectId,Split V2,53706c69-7420-4563-922e-6b696361645f,rev?*%
%TF.SameCoordinates,Original*%
%TF.FileFunction,Copper,L1,Top*%
%TF.FilePolarity,Positive*%
%FSLAX46Y46*%
G04 Gerber Fmt 4.6, Leading zero omitted, Abs format (unit mm)*
G04 Created by KiCad (PCBNEW 8.0.5) date 2024-12-08 15:46:30*
%MOMM*%
%LPD*%
G01*
G04 APERTURE LIST*
G04 Aperture macros list*
%AMRoundRect*
0 Rectangle with rounded corners*
0 $1 Rounding radius*
0 $2 $3 $4 $5 $6 $7 $8 $9 X,Y pos of 4 corners*
0 Add a 4 corners polygon primitive as box body*
4,1,4,$2,$3,$4,$5,$6,$7,$8,$9,$2,$3,0*
0 Add four circle primitives for the rounded corners*
1,1,$1+$1,$2,$3*
1,1,$1+$1,$4,$5*
1,1,$1+$1,$6,$7*
1,1,$1+$1,$8,$9*
0 Add four rect primitives between the rounded corners*
20,1,$1+$1,$2,$3,$4,$5,0*
20,1,$1+$1,$4,$5,$6,$7,0*
20,1,$1+$1,$6,$7,$8,$9,0*
20,1,$1+$1,$8,$9,$2,$3,0*%
%AMRotRect*
0 Rectangle, with rotation*
0 The origin of the aperture is its center*
0 $1 length*
0 $2 width*
0 $3 Rotation angle, in degrees counterclockwise*
0 Add horizontal line*
21,1,$1,$2,0,0,$3*%
%AMFreePoly0*
4,1,6,-0.054118,0.683245,0.636958,0.066744,-0.054118,-0.566755,-0.273003,-0.563966,-0.269411,0.686099,-0.054118,0.683245,-0.054118,0.683245,$1*%
%AMFreePoly1*
4,1,6,0.394834,-1.028090,-0.855166,-1.028090,-0.164090,-0.411589,-0.855166,0.221910,0.394834,0.221910,0.394834,-1.028090,0.394834,-1.028090,$1*%
%AMFreePoly2*
4,1,6,0.164090,-0.411589,0.855166,-1.028090,-0.394834,-1.028090,-0.394834,0.221910,0.855166,0.221910,0.164090,-0.411589,0.164090,-0.411589,$1*%
G04 Aperture macros list end*
%TA.AperFunction,SMDPad,CuDef*%
%ADD10RoundRect,0.225000X0.375000X-0.225000X0.375000X0.225000X-0.375000X0.225000X-0.375000X-0.225000X0*%
%TD*%
%TA.AperFunction,SMDPad,CuDef*%
%ADD11R,2.600000X2.600000*%
%TD*%
%TA.AperFunction,ComponentPad*%
%ADD12C,1.524000*%
%TD*%
%TA.AperFunction,SMDPad,CuDef*%
%ADD13RotRect,2.600000X2.600000X340.000000*%
%TD*%
%TA.AperFunction,ComponentPad*%
%ADD14R,1.752600X1.752600*%
%TD*%
%TA.AperFunction,ComponentPad*%
%ADD15C,1.752600*%
%TD*%
%TA.AperFunction,SMDPad,CuDef*%
%ADD16FreePoly0,0.000000*%
%TD*%
%TA.AperFunction,ComponentPad*%
%ADD17C,0.800000*%
%TD*%
%TA.AperFunction,SMDPad,CuDef*%
%ADD18FreePoly1,180.000000*%
%TD*%
%TA.AperFunction,SMDPad,CuDef*%
%ADD19FreePoly2,0.000000*%
%TD*%
%TA.AperFunction,SMDPad,CuDef*%
%ADD20FreePoly1,0.000000*%
%TD*%
%TA.AperFunction,SMDPad,CuDef*%
%ADD21FreePoly0,180.000000*%
%TD*%
%TA.AperFunction,SMDPad,CuDef*%
%ADD22FreePoly2,180.000000*%
%TD*%
%TA.AperFunction,SMDPad,CuDef*%
%ADD23RoundRect,0.225000X0.275430X-0.339688X0.429339X0.083173X-0.275430X0.339688X-0.429339X-0.083173X0*%
%TD*%
%TA.AperFunction,ComponentPad*%
%ADD24O,2.200000X1.600000*%
%TD*%
%TA.AperFunction,ViaPad*%
%ADD25C,0.800000*%
%TD*%
%TA.AperFunction,Conductor*%
%ADD26C,0.250000*%
%TD*%
G04 APERTURE END LIST*
D10*
%TO.P,DX3\u002CY2,1,K*%
%TO.N,Row3*%
X132601803Y-93633910D03*
%TO.P,DX3\u002CY2,2,A*%
%TO.N,Net-(DX3\u002CY2-A)*%
X132601803Y-90333910D03*
%TD*%
%TO.P,DX1\u002CY5,1,K*%
%TO.N,Row1*%
X186734423Y-130112226D03*
%TO.P,DX1\u002CY5,2,A*%
%TO.N,Net-(DX1\u002CY5-A)*%
X186734423Y-126812226D03*
%TD*%
D11*
%TO.P,SWX1\u002CY0,1,1*%
%TO.N,Col0*%
X94885000Y-121090000D03*
%TO.P,SWX1\u002CY0,2,2*%
%TO.N,Net-(DX1\u002CY0-A)*%
X83335000Y-123290000D03*
%TD*%
D10*
%TO.P,DX3\u002CY3,1,K*%
%TO.N,Row3*%
X150762593Y-91086970D03*
%TO.P,DX3\u002CY3,2,A*%
%TO.N,Net-(DX3\u002CY3-A)*%
X150762593Y-87786970D03*
%TD*%
D11*
%TO.P,SWX4\u002CY0,1,1*%
%TO.N,Col0*%
X94885000Y-70090000D03*
%TO.P,SWX4\u002CY0,2,2*%
%TO.N,Net-(DX4\u002CY0-A)*%
X83335000Y-72290000D03*
%TD*%
D12*
%TO.P,Joystick1,1,VCC*%
%TO.N,VCC*%
X194500629Y-125059163D03*
X205350629Y-114209163D03*
%TO.P,Joystick1,2,DataY*%
%TO.N,B3*%
X194500629Y-123059163D03*
%TO.P,Joystick1,3,DataX*%
%TO.N,B2*%
X203350629Y-114209163D03*
%TO.P,Joystick1,4,GND*%
%TO.N,Gnd*%
X194500629Y-121059163D03*
X201350629Y-114209163D03*
%TD*%
D11*
%TO.P,SWX1\u002CY5,1,1*%
%TO.N,Col5*%
X184885000Y-118590000D03*
%TO.P,SWX1\u002CY5,2,2*%
%TO.N,Net-(DX1\u002CY5-A)*%
X173335000Y-120790000D03*
%TD*%
%TO.P,SWX1\u002CY4,1,1*%
%TO.N,Col4*%
X166885000Y-116090000D03*
%TO.P,SWX1\u002CY4,2,2*%
%TO.N,Net-(DX1\u002CY4-A)*%
X155335000Y-118290000D03*
%TD*%
D10*
%TO.P,DX2\u002CY2,1,K*%
%TO.N,Row2*%
X132211251Y-110611614D03*
%TO.P,DX2\u002CY2,2,A*%
%TO.N,Net-(DX2\u002CY2-A)*%
X132211251Y-107311614D03*
%TD*%
D13*
%TO.P,SWX0\u002CY3,1,1*%
%TO.N,Col3*%
X198194962Y-141697129D03*
%TO.P,SWX0\u002CY3,2,2*%
%TO.N,Net-(DX0\u002CY3-A)*%
X186589068Y-139814120D03*
%TD*%
D10*
%TO.P,DX1\u002CY0,1,K*%
%TO.N,Row1*%
X96568428Y-132726583D03*
%TO.P,DX1\u002CY0,2,A*%
%TO.N,Net-(DX1\u002CY0-A)*%
X96568428Y-129426583D03*
%TD*%
D11*
%TO.P,SWX3\u002CY1,1,1*%
%TO.N,Col1*%
X112885000Y-87090000D03*
%TO.P,SWX3\u002CY1,2,2*%
%TO.N,Net-(DX3\u002CY1-A)*%
X101335000Y-89290000D03*
%TD*%
D10*
%TO.P,DX4\u002CY2,1,K*%
%TO.N,Row4*%
X132656338Y-76671168D03*
%TO.P,DX4\u002CY2,2,A*%
%TO.N,Net-(DX4\u002CY2-A)*%
X132656338Y-73371168D03*
%TD*%
%TO.P,DX4\u002CY3,1,K*%
%TO.N,Row4*%
X150669480Y-74050404D03*
%TO.P,DX4\u002CY3,2,A*%
%TO.N,Net-(DX4\u002CY3-A)*%
X150669480Y-70750404D03*
%TD*%
D14*
%TO.P,ProMicro1,1,TX*%
%TO.N,unconnected-(ProMicro1-TX-Pad1)*%
X195580000Y-65016268D03*
D15*
%TO.P,ProMicro1,2,RX*%
%TO.N,unconnected-(ProMicro1-RX-Pad2)*%
X195580000Y-67556268D03*
%TO.P,ProMicro1,3,GND*%
%TO.N,Gnd*%
X195580000Y-70096268D03*
D16*
X197110938Y-70059009D03*
D17*
X199486417Y-69986269D03*
D18*
X208200000Y-70536268D03*
D15*
%TO.P,ProMicro1,4,GND*%
%TO.N,unconnected-(ProMicro1-GND-Pad4)*%
X195580000Y-72636268D03*
D16*
X197000000Y-72736268D03*
D17*
X199450000Y-72636268D03*
D18*
X208200000Y-73186268D03*
D15*
%TO.P,ProMicro1,5,D1*%
%TO.N,SDA*%
X195580000Y-75176268D03*
D16*
X197000000Y-75286268D03*
D17*
X199450000Y-75286268D03*
D19*
X208150000Y-74736268D03*
D15*
%TO.P,ProMicro1,6,D0*%
%TO.N,SCL*%
X195580000Y-77716268D03*
D16*
X197000000Y-77736268D03*
D17*
X199500000Y-77736268D03*
D19*
X208250000Y-77386268D03*
D15*
%TO.P,ProMicro1,7,D4*%
%TO.N,Col5*%
X195580000Y-80256268D03*
%TO.P,ProMicro1,8,C6*%
%TO.N,Row4*%
X195580000Y-82796268D03*
%TO.P,ProMicro1,9,D7*%
%TO.N,Row3*%
X195580000Y-85336268D03*
%TO.P,ProMicro1,10,E6*%
%TO.N,Row2*%
X195580000Y-87876268D03*
%TO.P,ProMicro1,11,B4*%
%TO.N,Row1*%
X195580000Y-90416268D03*
%TO.P,ProMicro1,12,B5*%
%TO.N,Row0*%
X195580000Y-92956268D03*
%TO.P,ProMicro1,13,B6*%
%TO.N,unconnected-(ProMicro1-B6-Pad13)*%
X210820000Y-92956268D03*
%TO.P,ProMicro1,14,B2*%
%TO.N,B2*%
X210820000Y-90416268D03*
%TO.P,ProMicro1,15,B3*%
%TO.N,B3*%
X210820000Y-87876268D03*
%TO.P,ProMicro1,16,B1*%
%TO.N,Col0*%
X210820000Y-85336268D03*
%TO.P,ProMicro1,17,F7*%
%TO.N,Col1*%
X210820000Y-82796268D03*
%TO.P,ProMicro1,18,F6*%
%TO.N,Col2*%
X210820000Y-80256268D03*
D20*
%TO.P,ProMicro1,19,F5*%
%TO.N,Col3*%
X198046592Y-77232348D03*
D17*
X206550000Y-77786268D03*
D21*
X209350000Y-77736268D03*
D15*
X210820000Y-77716268D03*
D20*
%TO.P,ProMicro1,20,F4*%
%TO.N,Col4*%
X198046592Y-74832348D03*
D17*
X206550000Y-75236268D03*
D21*
X209350000Y-75086268D03*
D15*
X210820000Y-75176268D03*
D22*
%TO.P,ProMicro1,21,VCC*%
%TO.N,VCC*%
X198050000Y-73086268D03*
D17*
X206550000Y-72636268D03*
D21*
X209300000Y-72686268D03*
D15*
X210820000Y-72636268D03*
D22*
%TO.P,ProMicro1,22,RST*%
%TO.N,unconnected-(ProMicro1-RST-Pad22)*%
X198193063Y-70388482D03*
D17*
X206550000Y-70186268D03*
D21*
X209300000Y-70086268D03*
D15*
X210820000Y-70096268D03*
%TO.P,ProMicro1,23,GND*%
%TO.N,unconnected-(ProMicro1-GND-Pad23)*%
X210820000Y-67556268D03*
%TO.P,ProMicro1,24,RAW*%
%TO.N,unconnected-(ProMicro1-RAW-Pad24)*%
X210820000Y-65016268D03*
%TD*%
D10*
%TO.P,DX3\u002CY4,1,K*%
%TO.N,Row3*%
X168517350Y-93412437D03*
%TO.P,DX3\u002CY4,2,A*%
%TO.N,Net-(DX3\u002CY4-A)*%
X168517350Y-90112437D03*
%TD*%
D23*
%TO.P,DX0\u002CY5,1,K*%
%TO.N,Row0*%
X233833395Y-166809810D03*
%TO.P,DX0\u002CY5,2,A*%
%TO.N,Net-(DX0\u002CY5-A)*%
X234962061Y-163708824D03*
%TD*%
D10*
%TO.P,DX1\u002CY1,1,K*%
%TO.N,Row1*%
X114009430Y-132615847D03*
%TO.P,DX1\u002CY1,2,A*%
%TO.N,Net-(DX1\u002CY1-A)*%
X114009430Y-129315847D03*
%TD*%
D23*
%TO.P,DMR1,1,K*%
%TO.N,Row1*%
X228735487Y-143936229D03*
%TO.P,DMR1,2,A*%
%TO.N,/Net-(DX0\u002CY4-A)*%
X229864153Y-140835243D03*
%TD*%
%TO.P,DX0\u002CY4,1,K*%
%TO.N,Row0*%
X214786712Y-159870321D03*
%TO.P,DX0\u002CY4,2,A*%
%TO.N,Net-(DX0\u002CY4-A)*%
X215915378Y-156769335D03*
%TD*%
D10*
%TO.P,DX1\u002CY3,1,K*%
%TO.N,Row1*%
X150802734Y-125265948D03*
%TO.P,DX1\u002CY3,2,A*%
%TO.N,Net-(DX1\u002CY3-A)*%
X150802734Y-121965948D03*
%TD*%
%TO.P,DX4\u002CY1,1,K*%
%TO.N,Row4*%
X114310987Y-81617400D03*
%TO.P,DX4\u002CY1,2,A*%
%TO.N,Net-(DX4\u002CY1-A)*%
X114310987Y-78317400D03*
%TD*%
D11*
%TO.P,SWX3\u002CY2,1,1*%
%TO.N,Col2*%
X130885000Y-82090000D03*
%TO.P,SWX3\u002CY2,2,2*%
%TO.N,Net-(DX3\u002CY2-A)*%
X119335000Y-84290000D03*
%TD*%
%TO.P,SWX4\u002CY3,1,1*%
%TO.N,Col3*%
X148885000Y-62590000D03*
%TO.P,SWX4\u002CY3,2,2*%
%TO.N,Net-(DX4\u002CY3-A)*%
X137335000Y-64790000D03*
%TD*%
D10*
%TO.P,DX2\u002CY4,1,K*%
%TO.N,Row2*%
X168532832Y-110574702D03*
%TO.P,DX2\u002CY4,2,A*%
%TO.N,Net-(DX2\u002CY4-A)*%
X168532832Y-107274702D03*
%TD*%
D11*
%TO.P,SWX2\u002CY2,1,1*%
%TO.N,Col2*%
X130885000Y-99090000D03*
%TO.P,SWX2\u002CY2,2,2*%
%TO.N,Net-(DX2\u002CY2-A)*%
X119335000Y-101290000D03*
%TD*%
D10*
%TO.P,DX4\u002CY5,1,K*%
%TO.N,Row4*%
X186326641Y-79255020D03*
%TO.P,DX4\u002CY5,2,A*%
%TO.N,Net-(DX4\u002CY5-A)*%
X186326641Y-75955020D03*
%TD*%
D11*
%TO.P,SWX0\u002CY0,1,1*%
%TO.N,Col0*%
X130885000Y-133090000D03*
%TO.P,SWX0\u002CY0,2,2*%
%TO.N,Net-(DX0\u002CY0-A)*%
X119335000Y-135290000D03*
%TD*%
D24*
%TO.P,J1,1*%
%TO.N,SCL*%
X206755848Y-99379405D03*
X206755848Y-101679405D03*
%TO.P,J1,2*%
%TO.N,SDA*%
X207855848Y-97079405D03*
X207855848Y-103979405D03*
%TO.P,J1,3,3*%
%TO.N,Gnd*%
X211855848Y-97079405D03*
X211855848Y-103979405D03*
%TO.P,J1,4,4*%
%TO.N,VCC*%
X214855848Y-97079405D03*
X214855848Y-103979405D03*
%TD*%
D10*
%TO.P,DX1\u002CY4,1,K*%
%TO.N,Row1*%
X168803195Y-127689087D03*
%TO.P,DX1\u002CY4,2,A*%
%TO.N,Net-(DX1\u002CY4-A)*%
X168803195Y-124389087D03*
%TD*%
%TO.P,DX3\u002CY0,1,K*%
%TO.N,Row3*%
X96612432Y-98617053D03*
%TO.P,DX3\u002CY0,2,A*%
%TO.N,Net-(DX3\u002CY0-A)*%
X96612432Y-95317053D03*
%TD*%
D11*
%TO.P,SWX3\u002CY4,1,1*%
%TO.N,Col4*%
X166885000Y-82090000D03*
%TO.P,SWX3\u002CY4,2,2*%
%TO.N,Net-(DX3\u002CY4-A)*%
X155335000Y-84290000D03*
%TD*%
%TO.P,SWX2\u002CY5,1,1*%
%TO.N,Col5*%
X184885000Y-101590000D03*
%TO.P,SWX2\u002CY5,2,2*%
%TO.N,Net-(DX2\u002CY5-A)*%
X173335000Y-103790000D03*
%TD*%
D10*
%TO.P,DX3\u002CY1,1,K*%
%TO.N,Row3*%
X114256452Y-98653966D03*
%TO.P,DX3\u002CY1,2,A*%
%TO.N,Net-(DX3\u002CY1-A)*%
X114256452Y-95353966D03*
%TD*%
D11*
%TO.P,SWX2\u002CY1,1,1*%
%TO.N,Col1*%
X112885000Y-104090000D03*
%TO.P,SWX2\u002CY1,2,2*%
%TO.N,Net-(DX2\u002CY1-A)*%
X101335000Y-106290000D03*
%TD*%
D23*
%TO.P,DX0\u002CY3,1,K*%
%TO.N,Row0*%
X195397269Y-152967652D03*
%TO.P,DX0\u002CY3,2,A*%
%TO.N,Net-(DX0\u002CY3-A)*%
X196525935Y-149866666D03*
%TD*%
D11*
%TO.P,SWX1\u002CY3,1,1*%
%TO.N,Col3*%
X148885000Y-113590000D03*
%TO.P,SWX1\u002CY3,2,2*%
%TO.N,Net-(DX1\u002CY3-A)*%
X137335000Y-115790000D03*
%TD*%
D10*
%TO.P,DX0\u002CY2,1,K*%
%TO.N,Row0*%
X168381064Y-144686128D03*
%TO.P,DX0\u002CY2,2,A*%
%TO.N,Net-(DX0\u002CY2-A)*%
X168381064Y-141386128D03*
%TD*%
D11*
%TO.P,SWX2\u002CY4,1,1*%
%TO.N,Col4*%
X166885000Y-99090000D03*
%TO.P,SWX2\u002CY4,2,2*%
%TO.N,Net-(DX2\u002CY4-A)*%
X155335000Y-101290000D03*
%TD*%
%TO.P,SWX1\u002CY2,1,1*%
%TO.N,Col2*%
X130885000Y-116090000D03*
%TO.P,SWX1\u002CY2,2,2*%
%TO.N,Net-(DX1\u002CY2-A)*%
X119335000Y-118290000D03*
%TD*%
D10*
%TO.P,DX3\u002CY5,1,K*%
%TO.N,Row3*%
X186899613Y-96143938D03*
%TO.P,DX3\u002CY5,2,A*%
%TO.N,Net-(DX3\u002CY5-A)*%
X186899613Y-92843938D03*
%TD*%
%TO.P,DX4\u002CY0,1,K*%
%TO.N,Row4*%
X96703880Y-81691224D03*
%TO.P,DX4\u002CY0,2,A*%
%TO.N,Net-(DX4\u002CY0-A)*%
X96703880Y-78391224D03*
%TD*%
D13*
%TO.P,SWML1,1,1*%
%TO.N,B2*%
X212143737Y-125763037D03*
%TO.P,SWML1,2,2*%
%TO.N,/Net-(DX0\u002CY3-A)*%
X200537843Y-123880028D03*
%TD*%
D11*
%TO.P,SWX0\u002CY1,1,1*%
%TO.N,Col1*%
X148885000Y-130590000D03*
%TO.P,SWX0\u002CY1,2,2*%
%TO.N,Net-(DX0\u002CY1-A)*%
X137335000Y-132790000D03*
%TD*%
D23*
%TO.P,DML1,1,K*%
%TO.N,Row1*%
X209346044Y-137033560D03*
%TO.P,DML1,2,A*%
%TO.N,/Net-(DX0\u002CY3-A)*%
X210474710Y-133932574D03*
%TD*%
D11*
%TO.P,SWX4\u002CY4,1,1*%
%TO.N,Col4*%
X166885000Y-65090000D03*
%TO.P,SWX4\u002CY4,2,2*%
%TO.N,Net-(DX4\u002CY4-A)*%
X155335000Y-67290000D03*
%TD*%
D13*
%TO.P,SWX0\u002CY4,2,2*%
%TO.N,Net-(DX0\u002CY4-A)*%
X205617844Y-146740028D03*
%TO.P,SWX0\u002CY4,1,1*%
%TO.N,Col4*%
X217223738Y-148623037D03*
%TD*%
D11*
%TO.P,SWX2\u002CY3,1,1*%
%TO.N,Col3*%
X148885000Y-96590000D03*
%TO.P,SWX2\u002CY3,2,2*%
%TO.N,Net-(DX2\u002CY3-A)*%
X137335000Y-98790000D03*
%TD*%
%TO.P,SWX3\u002CY3,1,1*%
%TO.N,Col3*%
X148885000Y-79590000D03*
%TO.P,SWX3\u002CY3,2,2*%
%TO.N,Net-(DX3\u002CY3-A)*%
X137335000Y-81790000D03*
%TD*%
%TO.P,SWX0\u002CY2,1,1*%
%TO.N,Col2*%
X166885000Y-133090000D03*
%TO.P,SWX0\u002CY2,2,2*%
%TO.N,Net-(DX0\u002CY2-A)*%
X155335000Y-135290000D03*
%TD*%
%TO.P,SWX1\u002CY1,1,1*%
%TO.N,Col1*%
X112885000Y-121090000D03*
%TO.P,SWX1\u002CY1,2,2*%
%TO.N,Net-(DX1\u002CY1-A)*%
X101335000Y-123290000D03*
%TD*%
D10*
%TO.P,DX1\u002CY2,1,K*%
%TO.N,Row1*%
X132525342Y-127689087D03*
%TO.P,DX1\u002CY2,2,A*%
%TO.N,Net-(DX1\u002CY2-A)*%
X132525342Y-124389087D03*
%TD*%
D11*
%TO.P,SWX4\u002CY5,1,1*%
%TO.N,Col5*%
X184885000Y-67590000D03*
%TO.P,SWX4\u002CY5,2,2*%
%TO.N,Net-(DX4\u002CY5-A)*%
X173335000Y-69790000D03*
%TD*%
D10*
%TO.P,DX2\u002CY0,1,K*%
%TO.N,Row2*%
X96184969Y-115631670D03*
%TO.P,DX2\u002CY0,2,A*%
%TO.N,Net-(DX2\u002CY0-A)*%
X96184969Y-112331670D03*
%TD*%
D11*
%TO.P,SWX3\u002CY0,1,1*%
%TO.N,Col0*%
X94885000Y-87090000D03*
%TO.P,SWX3\u002CY0,2,2*%
%TO.N,Net-(DX3\u002CY0-A)*%
X83335000Y-89290000D03*
%TD*%
D10*
%TO.P,DX2\u002CY5,1,K*%
%TO.N,Row2*%
X186582733Y-113250911D03*
%TO.P,DX2\u002CY5,2,A*%
%TO.N,Net-(DX2\u002CY5-A)*%
X186582733Y-109950911D03*
%TD*%
%TO.P,DX2\u002CY1,1,K*%
%TO.N,Row2*%
X114382671Y-115668582D03*
%TO.P,DX2\u002CY1,2,A*%
%TO.N,Net-(DX2\u002CY1-A)*%
X114382671Y-112368582D03*
%TD*%
D11*
%TO.P,SWX4\u002CY1,1,1*%
%TO.N,Col1*%
X112885000Y-70090000D03*
%TO.P,SWX4\u002CY1,2,2*%
%TO.N,Net-(DX4\u002CY1-A)*%
X101335000Y-72290000D03*
%TD*%
D10*
%TO.P,DX0\u002CY0,1,K*%
%TO.N,Row0*%
X132668535Y-144630760D03*
%TO.P,DX0\u002CY0,2,A*%
%TO.N,Net-(DX0\u002CY0-A)*%
X132668535Y-141330760D03*
%TD*%
D11*
%TO.P,SWX3\u002CY5,1,1*%
%TO.N,Col5*%
X184885000Y-84590000D03*
%TO.P,SWX3\u002CY5,2,2*%
%TO.N,Net-(DX3\u002CY5-A)*%
X173335000Y-86790000D03*
%TD*%
D10*
%TO.P,DX2\u002CY3,1,K*%
%TO.N,Row2*%
X150704251Y-108053335D03*
%TO.P,DX2\u002CY3,2,A*%
%TO.N,Net-(DX2\u002CY3-A)*%
X150704251Y-104753335D03*
%TD*%
D11*
%TO.P,SWX2\u002CY0,1,1*%
%TO.N,Col0*%
X94885000Y-104090000D03*
%TO.P,SWX2\u002CY0,2,2*%
%TO.N,Net-(DX2\u002CY0-A)*%
X83335000Y-106290000D03*
%TD*%
D10*
%TO.P,DX4\u002CY4,1,K*%
%TO.N,Row4*%
X168719533Y-76560432D03*
%TO.P,DX4\u002CY4,2,A*%
%TO.N,Net-(DX4\u002CY4-A)*%
X168719533Y-73260432D03*
%TD*%
%TO.P,DX0\u002CY1,1,K*%
%TO.N,Row0*%
X149943433Y-141973083D03*
%TO.P,DX0\u002CY1,2,A*%
%TO.N,Net-(DX0\u002CY1-A)*%
X149943433Y-138673083D03*
%TD*%
D11*
%TO.P,SWX4\u002CY2,1,1*%
%TO.N,Col2*%
X130885000Y-65090000D03*
%TO.P,SWX4\u002CY2,2,2*%
%TO.N,Net-(DX4\u002CY2-A)*%
X119335000Y-67290000D03*
%TD*%
D13*
%TO.P,SWX0\u002CY5,1,1*%
%TO.N,Col5*%
X236252513Y-155548945D03*
%TO.P,SWX0\u002CY5,2,2*%
%TO.N,Net-(DX0\u002CY5-A)*%
X224646619Y-153665936D03*
%TD*%
%TO.P,SWMR1,1,1*%
%TO.N,B3*%
X231172513Y-132688945D03*
%TO.P,SWMR1,2,2*%
%TO.N,/Net-(DX0\u002CY4-A)*%
X219566619Y-130805936D03*
%TD*%
D25*
%TO.N,Col4*%
X215900000Y-144780000D03*
%TO.N,Row0*%
X165100000Y-144686128D03*
X193040000Y-152967652D03*
X134152899Y-143147064D03*
X210820000Y-160020000D03*
X147320000Y-141973083D03*
%TO.N,Row1*%
X101600000Y-132615847D03*
X111760000Y-132615847D03*
X165100000Y-127689087D03*
X129540000Y-127689087D03*
X182880000Y-130112226D03*
X148922152Y-127009743D03*
X205393970Y-136348999D03*
X226060000Y-143936229D03*
%TO.N,Row2*%
X137160000Y-110611614D03*
X172164817Y-110573665D03*
X116840000Y-114300000D03*
X154940000Y-109220000D03*
X182880000Y-113250911D03*
X99060000Y-115631670D03*
%TO.N,Row3*%
X147320000Y-91086970D03*
X185420000Y-96143938D03*
X111760000Y-98653966D03*
X129540000Y-93633910D03*
X165100000Y-93412437D03*
X99060000Y-98653966D03*
%TO.N,Row4*%
X99060000Y-81691224D03*
X165100000Y-76560432D03*
X111760000Y-81691224D03*
X129540000Y-76671168D03*
X149189942Y-75529942D03*
X190500000Y-79255020D03*
%TO.N,Col5*%
X178485000Y-88900000D03*
X181973528Y-64713832D03*
X180340000Y-121920000D03*
X232319125Y-157011377D03*
X178485000Y-106680000D03*
%TO.N,Col0*%
X92303955Y-90576045D03*
X91483560Y-67213007D03*
X91596162Y-124378837D03*
X128103539Y-135878421D03*
X91440000Y-106680000D03*
%TO.N,B2*%
X208280000Y-127000000D03*
%TO.N,B3*%
X227196259Y-134032476D03*
%TO.N,Col2*%
X127718752Y-62095818D03*
X128012787Y-96465257D03*
X127914775Y-79476561D03*
X163888603Y-135796140D03*
X127745704Y-113276322D03*
%TO.N,Col1*%
X109220000Y-84205000D03*
X109220000Y-66040000D03*
X109234520Y-101600000D03*
X145854498Y-133280340D03*
X109220000Y-118205000D03*
%TO.N,Col4*%
X160485000Y-104140000D03*
X164054541Y-62486118D03*
X161520500Y-119380000D03*
X160485000Y-86360000D03*
%TO.N,Col3*%
X195449317Y-143293762D03*
X145802575Y-65339403D03*
X146008005Y-116094295D03*
X145703080Y-94117892D03*
X145760117Y-82292240D03*
%TO.N,Row0*%
X231140000Y-166809810D03*
%TD*%
D26*
%TO.N,Col0*%
X94360553Y-70090000D02*
X94885000Y-70090000D01*
X91483560Y-67213007D02*
X94360553Y-70090000D01*
%TO.N,B3*%
X193040000Y-124519792D02*
X194500629Y-123059163D01*
X193040000Y-128411930D02*
X193040000Y-124519792D01*
X219528736Y-147320000D02*
X216259327Y-144050591D01*
X232465345Y-141605232D02*
X226750577Y-147320000D01*
X208678661Y-144050591D02*
X193040000Y-128411930D01*
X232465345Y-138485345D02*
X232465345Y-141605232D01*
X228012476Y-134032476D02*
X232465345Y-138485345D01*
X226750577Y-147320000D02*
X219528736Y-147320000D01*
X227196259Y-134032476D02*
X228012476Y-134032476D01*
X216259327Y-144050591D02*
X208678661Y-144050591D01*
%TO.N,/Net-(DX0\u002CY3-A)*%
X210368078Y-134039206D02*
X210474710Y-133932574D01*
X205153666Y-134039206D02*
X210368078Y-134039206D01*
X200537843Y-129423383D02*
X205153666Y-134039206D01*
X200537843Y-123880028D02*
X200537843Y-129423383D01*
%TO.N,B3*%
X194128326Y-123059163D02*
X194500629Y-123059163D01*
X191850000Y-120780837D02*
X194128326Y-123059163D01*
X191850000Y-106846268D02*
X191850000Y-120780837D01*
X210820000Y-87876268D02*
X191850000Y-106846268D01*
%TO.N,Col4*%
X217223738Y-146103738D02*
X217223738Y-148623037D01*
X215900000Y-144780000D02*
X217223738Y-146103738D01*
%TO.N,Row0*%
X191400000Y-97136268D02*
X195580000Y-92956268D01*
X213369595Y-149377921D02*
X191400000Y-127408326D01*
X218079493Y-153749303D02*
X217772473Y-153749303D01*
X217772473Y-153749303D02*
X213401091Y-149377921D01*
X213401091Y-149377921D02*
X213369595Y-149377921D01*
X191400000Y-127408326D02*
X191400000Y-97136268D01*
X224200511Y-159870321D02*
X218079493Y-153749303D01*
X202162181Y-153139996D02*
X195569613Y-153139996D01*
X209044700Y-160022515D02*
X202162181Y-153139996D01*
X210817485Y-160022515D02*
X209044700Y-160022515D01*
X210820000Y-160020000D02*
X210817485Y-160022515D01*
X195569613Y-153139996D02*
X195397269Y-152967652D01*
%TO.N,Row1*%
X219157331Y-137033560D02*
X226060000Y-143936229D01*
X209346044Y-137033560D02*
X219157331Y-137033560D01*
X208664328Y-136351844D02*
X209346044Y-137033560D01*
X205396815Y-136351844D02*
X208664328Y-136351844D01*
X205393970Y-136348999D02*
X205396815Y-136351844D01*
%TO.N,Row0*%
X224200511Y-159870321D02*
X214786712Y-159870321D01*
X168474936Y-144780000D02*
X168381064Y-144686128D01*
X184852348Y-144780000D02*
X168474936Y-144780000D01*
X193040000Y-152967652D02*
X184852348Y-144780000D01*
%TO.N,Col0*%
X214150181Y-61974404D02*
X214150181Y-82006087D01*
X214150181Y-82006087D02*
X210820000Y-85336268D01*
X212861895Y-60686118D02*
X214150181Y-61974404D01*
X163927916Y-59425000D02*
X165189034Y-60686118D01*
X114809695Y-59425000D02*
X163927916Y-59425000D01*
X165189034Y-60686118D02*
X212861895Y-60686118D01*
X108194695Y-66040000D02*
X114809695Y-59425000D01*
X92656567Y-66040000D02*
X108194695Y-66040000D01*
X91483560Y-67213007D02*
X92656567Y-66040000D01*
%TO.N,Col2*%
X213229317Y-62326332D02*
X213229317Y-77846951D01*
X164816242Y-61586118D02*
X212489103Y-61586118D01*
X212489103Y-61586118D02*
X213229317Y-62326332D01*
X213229317Y-77846951D02*
X210820000Y-80256268D01*
X163555124Y-60325000D02*
X164816242Y-61586118D01*
X127718752Y-62095818D02*
X129489570Y-60325000D01*
X129489570Y-60325000D02*
X163555124Y-60325000D01*
%TO.N,Col1*%
X213700181Y-79916087D02*
X210820000Y-82796268D01*
X213700181Y-62160800D02*
X213700181Y-79916087D01*
X115385000Y-59875000D02*
X163741520Y-59875000D01*
X165002638Y-61136118D02*
X212675499Y-61136118D01*
X212675499Y-61136118D02*
X213700181Y-62160800D01*
X109220000Y-66040000D02*
X115385000Y-59875000D01*
X163741520Y-59875000D02*
X165002638Y-61136118D01*
%TO.N,Net-(DX0\u002CY0-A)*%
X119335000Y-135290000D02*
X119335000Y-140220900D01*
X120444860Y-141330760D02*
X130810000Y-141330760D01*
X119335000Y-140220900D02*
X120444860Y-141330760D01*
X130810000Y-141330760D02*
X132668535Y-141330760D01*
%TO.N,Net-(DX0\u002CY1-A)*%
X137795000Y-135958684D02*
X140509399Y-138673083D01*
X137795000Y-133250000D02*
X137795000Y-135958684D01*
X140509399Y-138673083D02*
X149943433Y-138673083D01*
X137335000Y-132790000D02*
X137795000Y-133250000D01*
%TO.N,Net-(DX0\u002CY2-A)*%
X157859100Y-141386128D02*
X168381064Y-141386128D01*
X155335000Y-138862028D02*
X157859100Y-141386128D01*
X155335000Y-135290000D02*
X154305000Y-136320000D01*
X155335000Y-135290000D02*
X155335000Y-138862028D01*
%TO.N,Net-(DX0\u002CY3-A)*%
X186589068Y-139814120D02*
X186589068Y-144695685D01*
X191760049Y-149866666D02*
X196525935Y-149866666D01*
X186589068Y-144695685D02*
X191760049Y-149866666D01*
%TO.N,Net-(DX0\u002CY4-A)*%
X209460000Y-156755000D02*
X215901043Y-156755000D01*
X205617844Y-152912844D02*
X209460000Y-156755000D01*
X215901043Y-156755000D02*
X215915378Y-156769335D01*
X205617844Y-146740028D02*
X205617844Y-152912844D01*
%TO.N,Net-(DX0\u002CY5-A)*%
X224646619Y-153665936D02*
X224646619Y-158606619D01*
X229748824Y-163708824D02*
X234962061Y-163708824D01*
X224646619Y-158606619D02*
X229748824Y-163708824D01*
%TO.N,Net-(DX1\u002CY0-A)*%
X86246583Y-129426583D02*
X96568428Y-129426583D01*
X83335000Y-126515000D02*
X86246583Y-129426583D01*
X83335000Y-123290000D02*
X83335000Y-126515000D01*
%TO.N,Net-(DX1\u002CY1-A)*%
X101335000Y-123290000D02*
X101335000Y-126735000D01*
X101335000Y-126735000D02*
X103915847Y-129315847D01*
X103915847Y-129315847D02*
X114009430Y-129315847D01*
%TO.N,Net-(DX1\u002CY2-A)*%
X119335000Y-121875000D02*
X121849087Y-124389087D01*
X119335000Y-118290000D02*
X119335000Y-121875000D01*
X121849087Y-124389087D02*
X132525342Y-124389087D01*
%TO.N,Net-(DX1\u002CY3-A)*%
X137335000Y-115790000D02*
X137335000Y-119555000D01*
X137335000Y-119555000D02*
X139745948Y-121965948D01*
X139745948Y-121965948D02*
X150802734Y-121965948D01*
%TO.N,Net-(DX1\u002CY4-A)*%
X159271301Y-124387750D02*
X159272638Y-124389087D01*
X155335000Y-122315000D02*
X157407750Y-124387750D01*
X159272638Y-124389087D02*
X168803195Y-124389087D01*
X157407750Y-124387750D02*
X159271301Y-124387750D01*
X155335000Y-118290000D02*
X155335000Y-122315000D01*
%TO.N,Net-(DX1\u002CY5-A)*%
X176647552Y-126811236D02*
X182613705Y-126811236D01*
X182613705Y-126811236D02*
X182614695Y-126812226D01*
X182614695Y-126812226D02*
X186734423Y-126812226D01*
X173335000Y-120790000D02*
X173335000Y-123498684D01*
X173335000Y-123498684D02*
X176647552Y-126811236D01*
%TO.N,Net-(DX2\u002CY0-A)*%
X83335000Y-108998684D02*
X86667986Y-112331670D01*
X86667986Y-112331670D02*
X96184969Y-112331670D01*
X83335000Y-106290000D02*
X83335000Y-108998684D01*
%TO.N,Net-(DX2\u002CY1-A)*%
X101335000Y-108998684D02*
X104704898Y-112368582D01*
X101335000Y-106290000D02*
X101335000Y-108998684D01*
X104704898Y-112368582D02*
X114382671Y-112368582D01*
%TO.N,Net-(DX2\u002CY2-A)*%
X119335000Y-104095000D02*
X122551614Y-107311614D01*
X122551614Y-107311614D02*
X132211251Y-107311614D01*
X119335000Y-101290000D02*
X119335000Y-104095000D01*
%TO.N,Net-(DX2\u002CY3-A)*%
X137335000Y-98790000D02*
X137335000Y-101775000D01*
X137335000Y-101775000D02*
X140313335Y-104753335D01*
X140313335Y-104753335D02*
X150704251Y-104753335D01*
%TO.N,Net-(DX2\u002CY4-A)*%
X155335000Y-101290000D02*
X155335000Y-104535000D01*
X155335000Y-104535000D02*
X158074702Y-107274702D01*
X158074702Y-107274702D02*
X168532832Y-107274702D01*
%TO.N,Net-(DX2\u002CY5-A)*%
X176787227Y-109950911D02*
X186582733Y-109950911D01*
X173335000Y-106498684D02*
X176787227Y-109950911D01*
X173335000Y-103790000D02*
X173335000Y-106498684D01*
%TO.N,Net-(DX3\u002CY0-A)*%
X83185000Y-92075000D02*
X86427053Y-95317053D01*
X83185000Y-89440000D02*
X83185000Y-92075000D01*
X86427053Y-95317053D02*
X96612432Y-95317053D01*
X83335000Y-89290000D02*
X83185000Y-89440000D01*
%TO.N,Net-(DX3\u002CY1-A)*%
X101335000Y-92445000D02*
X104243966Y-95353966D01*
X101335000Y-89290000D02*
X101335000Y-92445000D01*
X104243966Y-95353966D02*
X114256452Y-95353966D01*
%TO.N,Net-(DX3\u002CY2-A)*%
X119335000Y-86998684D02*
X122670226Y-90333910D01*
X122670226Y-90333910D02*
X132601803Y-90333910D01*
X119335000Y-84290000D02*
X119335000Y-86998684D01*
%TO.N,Net-(DX3\u002CY3-A)*%
X137335000Y-84498684D02*
X140623286Y-87786970D01*
X140623286Y-87786970D02*
X150762593Y-87786970D01*
X137335000Y-81790000D02*
X137335000Y-84498684D01*
%TO.N,Net-(DX3\u002CY4-A)*%
X158465816Y-90129500D02*
X168500287Y-90129500D01*
X155335000Y-84290000D02*
X155335000Y-86998684D01*
X168500287Y-90129500D02*
X168517350Y-90112437D01*
X155335000Y-86998684D02*
X158465816Y-90129500D01*
%TO.N,unconnected-(ProMicro1-GND-Pad4)*%
X199450000Y-72636268D02*
X200364708Y-71721560D01*
X206735292Y-71721560D02*
X208200000Y-73186268D01*
X196900000Y-72636268D02*
X197000000Y-72736268D01*
X200364708Y-71721560D02*
X206735292Y-71721560D01*
X195580000Y-72636268D02*
X196900000Y-72636268D01*
%TO.N,Net-(DX3\u002CY5-A)*%
X176680254Y-92843938D02*
X186899613Y-92843938D01*
X173335000Y-89515000D02*
X175260000Y-91440000D01*
X173335000Y-86790000D02*
X173335000Y-89515000D01*
X175276316Y-91440000D02*
X176680254Y-92843938D01*
X175260000Y-91440000D02*
X175276316Y-91440000D01*
%TO.N,Net-(DX4\u002CY0-A)*%
X83335000Y-75715000D02*
X86011513Y-78391513D01*
X87961023Y-78391513D02*
X87961312Y-78391224D01*
X87961312Y-78391224D02*
X96703880Y-78391224D01*
X86011513Y-78391513D02*
X87961023Y-78391513D01*
X83335000Y-72290000D02*
X83335000Y-75715000D01*
%TO.N,unconnected-(ProMicro1-RST-Pad22)*%
X206550000Y-70186268D02*
X206024999Y-70711269D01*
X198515850Y-70711269D02*
X198193063Y-70388482D01*
X209310000Y-70096268D02*
X209300000Y-70086268D01*
X206024999Y-70711269D02*
X198515850Y-70711269D01*
X210820000Y-70096268D02*
X209310000Y-70096268D01*
%TO.N,Net-(DX4\u002CY1-A)*%
X105396519Y-78317400D02*
X114310987Y-78317400D01*
X101335000Y-72290000D02*
X101335000Y-75935000D01*
X105387747Y-78326172D02*
X105396519Y-78317400D01*
X101335000Y-75935000D02*
X103726172Y-78326172D01*
X103726172Y-78326172D02*
X105387747Y-78326172D01*
%TO.N,Net-(DX4\u002CY2-A)*%
X121629594Y-73369594D02*
X123598464Y-73369594D01*
X119335000Y-67290000D02*
X119335000Y-71075000D01*
X119335000Y-71075000D02*
X121629594Y-73369594D01*
X123598464Y-73369594D02*
X123600038Y-73371168D01*
X123600038Y-73371168D02*
X132656338Y-73371168D01*
%TO.N,Net-(DX4\u002CY3-A)*%
X139330404Y-70750404D02*
X150669480Y-70750404D01*
X137335000Y-68755000D02*
X139330404Y-70750404D01*
X137335000Y-64790000D02*
X137335000Y-68755000D01*
%TO.N,Net-(DX4\u002CY4-A)*%
X155335000Y-71515000D02*
X157080432Y-73260432D01*
X157080432Y-73260432D02*
X168719533Y-73260432D01*
X155335000Y-67290000D02*
X155335000Y-71515000D01*
%TO.N,Net-(DX4\u002CY5-A)*%
X173335000Y-73874608D02*
X175415412Y-75955020D01*
X173335000Y-69790000D02*
X173335000Y-73874608D01*
X175415412Y-75955020D02*
X186326641Y-75955020D01*
%TO.N,Row0*%
X149943433Y-141973083D02*
X147320000Y-141973083D01*
X165100000Y-144686128D02*
X152656478Y-144686128D01*
X152656478Y-144686128D02*
X149943433Y-141973083D01*
X210820000Y-160020000D02*
X210969679Y-159870321D01*
X168381064Y-144686128D02*
X165100000Y-144686128D01*
X135326212Y-141973083D02*
X132668535Y-144630760D01*
X147320000Y-141973083D02*
X135326212Y-141973083D01*
X195397269Y-152967652D02*
X193040000Y-152967652D01*
X210969679Y-159870321D02*
X214786712Y-159870321D01*
%TO.N,Row1*%
X226060000Y-143936229D02*
X228735487Y-143936229D01*
X101600000Y-132615847D02*
X96679164Y-132615847D01*
X118936190Y-127689087D02*
X114009430Y-132615847D01*
X165100000Y-127689087D02*
X153225873Y-127689087D01*
X148922152Y-127009743D02*
X148242808Y-127689087D01*
X186734423Y-130112226D02*
X182880000Y-130112226D01*
X148922152Y-127009743D02*
X148922153Y-127009743D01*
X129540000Y-127689087D02*
X118936190Y-127689087D01*
X150665948Y-125265948D02*
X150802734Y-125265948D01*
X132525342Y-127689087D02*
X129540000Y-127689087D01*
X114009430Y-132615847D02*
X111760000Y-132615847D01*
X190950000Y-95046268D02*
X195580000Y-90416268D01*
X168803195Y-127689087D02*
X165100000Y-127689087D01*
X148242808Y-127689087D02*
X132525342Y-127689087D01*
X111760000Y-132615847D02*
X101600000Y-132615847D01*
X190950000Y-125896649D02*
X190950000Y-95046268D01*
X182880000Y-130112226D02*
X171226334Y-130112226D01*
X96679164Y-132615847D02*
X96568428Y-132726583D01*
X171226334Y-130112226D02*
X168803195Y-127689087D01*
X186734423Y-130112226D02*
X190950000Y-125896649D01*
X148922153Y-127009743D02*
X150665948Y-125265948D01*
X153225873Y-127689087D02*
X150802734Y-125265948D01*
%TO.N,Row2*%
X168533869Y-110573665D02*
X168532832Y-110574702D01*
X120528386Y-110611614D02*
X132211251Y-110611614D01*
X186582733Y-113250911D02*
X182880000Y-113250911D01*
X116840000Y-114300000D02*
X120528386Y-110611614D01*
X114345759Y-115631670D02*
X114382671Y-115668582D01*
X144511556Y-110611614D02*
X147069835Y-108053335D01*
X99060000Y-115631670D02*
X114345759Y-115631670D01*
X190500000Y-109333644D02*
X190500000Y-92956268D01*
X186582733Y-113250911D02*
X190500000Y-109333644D01*
X137160000Y-110611614D02*
X144511556Y-110611614D01*
X115471418Y-115668582D02*
X116840000Y-114300000D01*
X96184969Y-115631670D02*
X99060000Y-115631670D01*
X156294702Y-110574702D02*
X154940000Y-109220000D01*
X153761914Y-108041914D02*
X150715672Y-108041914D01*
X174842063Y-113250911D02*
X172164817Y-110573665D01*
X172164817Y-110573665D02*
X168533869Y-110573665D01*
X168532832Y-110574702D02*
X156294702Y-110574702D01*
X154940000Y-109220000D02*
X153761914Y-108041914D01*
X132211251Y-110611614D02*
X137160000Y-110611614D01*
X190500000Y-92956268D02*
X195580000Y-87876268D01*
X150715672Y-108041914D02*
X150704251Y-108053335D01*
X114382671Y-115668582D02*
X115471418Y-115668582D01*
X182880000Y-113250911D02*
X174842063Y-113250911D01*
X147069835Y-108053335D02*
X150704251Y-108053335D01*
%TO.N,Row3*%
X153088060Y-93412437D02*
X150762593Y-91086970D01*
X150762593Y-91086970D02*
X147320000Y-91086970D01*
X119276508Y-93633910D02*
X114256452Y-98653966D01*
X190050000Y-90866268D02*
X195580000Y-85336268D01*
X190050000Y-93394276D02*
X190050000Y-90866268D01*
X171248851Y-96143938D02*
X168517350Y-93412437D01*
X147320000Y-91086970D02*
X135148743Y-91086970D01*
X185420000Y-96143938D02*
X171248851Y-96143938D01*
X165100000Y-93412437D02*
X153088060Y-93412437D01*
X129540000Y-93633910D02*
X119276508Y-93633910D01*
X99060000Y-98653966D02*
X96649345Y-98653966D01*
X186899613Y-96143938D02*
X185420000Y-96143938D01*
X111760000Y-98653966D02*
X99060000Y-98653966D01*
X186899613Y-96143938D02*
X187300338Y-96143938D01*
X132601803Y-93633910D02*
X129540000Y-93633910D01*
X114256452Y-98653966D02*
X111760000Y-98653966D01*
X96649345Y-98653966D02*
X96612432Y-98617053D01*
X168517350Y-93412437D02*
X165100000Y-93412437D01*
X135148743Y-91086970D02*
X132601803Y-93633910D01*
X187300338Y-96143938D02*
X190050000Y-93394276D01*
%TO.N,Row4*%
X186326641Y-79255020D02*
X190500000Y-79255020D01*
X190500000Y-79255020D02*
X192038752Y-79255020D01*
X149189942Y-75529942D02*
X150669480Y-74050404D01*
X99060000Y-81691224D02*
X111760000Y-81691224D01*
X183632053Y-76560432D02*
X186326641Y-79255020D01*
X165100000Y-76560432D02*
X148159452Y-76560432D01*
X114310987Y-81617400D02*
X119257219Y-76671168D01*
X132781764Y-76545742D02*
X148144762Y-76545742D01*
X132656338Y-76671168D02*
X132781764Y-76545742D01*
X129540000Y-76671168D02*
X132656338Y-76671168D01*
X119257219Y-76671168D02*
X129540000Y-76671168D01*
X168719533Y-76560432D02*
X183632053Y-76560432D01*
X192038752Y-79255020D02*
X195580000Y-82796268D01*
X111760000Y-81691224D02*
X114237163Y-81691224D01*
X168719533Y-76560432D02*
X165100000Y-76560432D01*
X148144762Y-76545742D02*
X148159452Y-76560432D01*
X148159452Y-76560432D02*
X149189942Y-75529942D01*
X96703880Y-81691224D02*
X99060000Y-81691224D01*
X114237163Y-81691224D02*
X114310987Y-81617400D01*
%TO.N,Col5*%
X190500000Y-69850000D02*
X190500000Y-75176268D01*
X184605001Y-84590000D02*
X180295001Y-88900000D01*
X181700000Y-103465000D02*
X178485000Y-106680000D01*
X181555000Y-121920000D02*
X180340000Y-121920000D01*
X185363832Y-64713832D02*
X190500000Y-69850000D01*
X184885000Y-118590000D02*
X181555000Y-121920000D01*
X184885000Y-101590000D02*
X183010000Y-103465000D01*
X182008832Y-64713832D02*
X181973528Y-64713832D01*
X180295001Y-88900000D02*
X178485000Y-88900000D01*
X183010000Y-103465000D02*
X181700000Y-103465000D01*
X181973528Y-64713832D02*
X185363832Y-64713832D01*
X184885000Y-67590000D02*
X182008832Y-64713832D01*
X236252513Y-155548945D02*
X234790081Y-157011377D01*
X190500000Y-75176268D02*
X195580000Y-80256268D01*
X184885000Y-84590000D02*
X184605001Y-84590000D01*
X234790081Y-157011377D02*
X232319125Y-157011377D01*
%TO.N,Gnd*%
X200653655Y-68819031D02*
X206482763Y-68819031D01*
X199486417Y-69986269D02*
X200653655Y-68819031D01*
X211871200Y-103994757D02*
X211855848Y-103979405D01*
X195580000Y-70096268D02*
X197073679Y-70096268D01*
X211855848Y-103979405D02*
X211580387Y-103979405D01*
X211855848Y-103979405D02*
X211855848Y-97079405D01*
X206482763Y-68819031D02*
X208200000Y-70536268D01*
X194500629Y-121059163D02*
X201350629Y-114209163D01*
X211580387Y-103979405D02*
X201350629Y-114209163D01*
X197073679Y-70096268D02*
X197110938Y-70059009D01*
%TO.N,Col0*%
X92303955Y-90576045D02*
X94885000Y-87995000D01*
X130885000Y-133096960D02*
X128103539Y-135878421D01*
X91596163Y-124378837D02*
X91596162Y-124378837D01*
X92295000Y-106680000D02*
X91440000Y-106680000D01*
X94885000Y-104090000D02*
X92295000Y-106680000D01*
X130885000Y-133090000D02*
X130885000Y-133096960D01*
X94885000Y-121090000D02*
X91596163Y-124378837D01*
X94885000Y-87995000D02*
X94885000Y-87090000D01*
%TO.N,SCL*%
X195580000Y-77716268D02*
X196980000Y-77716268D01*
X199500000Y-77736268D02*
X200517655Y-76718613D01*
X207582345Y-76718613D02*
X208250000Y-77386268D01*
X200517655Y-76718613D02*
X207582345Y-76718613D01*
X196980000Y-77716268D02*
X197000000Y-77736268D01*
X206755848Y-101679405D02*
X206755848Y-99379405D01*
%TO.N,SDA*%
X199450000Y-75286268D02*
X200371978Y-74364290D01*
X196890000Y-75176268D02*
X197000000Y-75286268D01*
X195580000Y-75176268D02*
X196890000Y-75176268D01*
X200371978Y-74364290D02*
X207778022Y-74364290D01*
X207778022Y-74364290D02*
X208150000Y-74736268D01*
%TO.N,VCC*%
X214855848Y-103979405D02*
X214855848Y-104861352D01*
X210820000Y-72636268D02*
X209350000Y-72636268D01*
X205825000Y-73361268D02*
X198325000Y-73361268D01*
X206550000Y-72636268D02*
X205825000Y-73361268D01*
X205508037Y-114209163D02*
X205350629Y-114209163D01*
X198325000Y-73361268D02*
X198050000Y-73086268D01*
X209350000Y-72636268D02*
X209300000Y-72686268D01*
X214855848Y-103979405D02*
X214855848Y-97079405D01*
X194500629Y-125059163D02*
X205350629Y-114209163D01*
X214855848Y-104861352D02*
X205508037Y-114209163D01*
%TO.N,B2*%
X210906774Y-127000000D02*
X208280000Y-127000000D01*
X212143737Y-125763037D02*
X210906774Y-127000000D01*
X203350629Y-114209163D02*
X203517080Y-114209163D01*
X213360000Y-92956268D02*
X210820000Y-90416268D01*
X213360000Y-104366243D02*
X213360000Y-92956268D01*
X203517080Y-114209163D02*
X213360000Y-104366243D01*
%TO.N,B3*%
X231172513Y-132688945D02*
X229828982Y-134032476D01*
X229828982Y-134032476D02*
X227196259Y-134032476D01*
%TO.N,/Net-(DX0\u002CY4-A)*%
X224655243Y-140835243D02*
X229864153Y-140835243D01*
X219566619Y-130805936D02*
X219566619Y-135746619D01*
X219566619Y-135746619D02*
X224655243Y-140835243D01*
%TO.N,Col2*%
X128260257Y-96465257D02*
X128012787Y-96465257D01*
X128271561Y-79476561D02*
X127914775Y-79476561D01*
X130885000Y-116090000D02*
X130559382Y-116090000D01*
X130885000Y-65090000D02*
X130712934Y-65090000D01*
X164178860Y-135796140D02*
X163888603Y-135796140D01*
X130885000Y-82090000D02*
X128271561Y-79476561D01*
X166885000Y-133090000D02*
X164178860Y-135796140D01*
X130885000Y-99090000D02*
X128260257Y-96465257D01*
X130559382Y-116090000D02*
X127745704Y-113276322D01*
X130712934Y-65090000D02*
X127718752Y-62095818D01*
%TO.N,Col1*%
X112885000Y-70090000D02*
X109220000Y-66425000D01*
X112885000Y-104090000D02*
X110395000Y-101600000D01*
X110395000Y-101600000D02*
X109234520Y-101600000D01*
X112885000Y-121090000D02*
X110000000Y-118205000D01*
X146194660Y-133280340D02*
X145854498Y-133280340D01*
X148885000Y-130590000D02*
X146194660Y-133280340D01*
X110000000Y-118205000D02*
X109220000Y-118205000D01*
X112885000Y-87090000D02*
X110000000Y-84205000D01*
X109220000Y-66425000D02*
X109220000Y-66040000D01*
X110000000Y-84205000D02*
X109220000Y-84205000D01*
%TO.N,Col4*%
X166885000Y-65090000D02*
X166658423Y-65090000D01*
X217223738Y-148623037D02*
X217223738Y-148643738D01*
X210820000Y-75176268D02*
X209440000Y-75176268D01*
X166885000Y-99090000D02*
X166605001Y-99090000D01*
X161555001Y-104140000D02*
X160485000Y-104140000D01*
X166885000Y-116090000D02*
X163595000Y-119380000D01*
X205586268Y-76200000D02*
X199338427Y-76200000D01*
X206550000Y-75236268D02*
X205586268Y-76200000D01*
X166605001Y-99090000D02*
X161555001Y-104140000D01*
X166885000Y-82090000D02*
X165100000Y-83875000D01*
X162880000Y-83965000D02*
X160485000Y-86360000D01*
X163595000Y-119380000D02*
X161520500Y-119380000D01*
X199338427Y-76200000D02*
X198046592Y-74908165D01*
X217223738Y-148643738D02*
X216007476Y-149860000D01*
X166658423Y-65090000D02*
X164054541Y-62486118D01*
X165100000Y-83965000D02*
X162880000Y-83965000D01*
X210820000Y-74410396D02*
X210820000Y-75176268D01*
X209440000Y-75176268D02*
X209350000Y-75086268D01*
X165100000Y-83875000D02*
X165100000Y-83965000D01*
X198046592Y-74908165D02*
X198046592Y-74832348D01*
%TO.N,Col3*%
X199199695Y-78461268D02*
X198046592Y-77308165D01*
X210820000Y-77716268D02*
X209370000Y-77716268D01*
X148551978Y-62590000D02*
X145802575Y-65339403D01*
X148885000Y-62590000D02*
X148551978Y-62590000D01*
X148885000Y-96590000D02*
X146412892Y-94117892D01*
X148885000Y-79590000D02*
X148462357Y-79590000D01*
X209370000Y-77716268D02*
X209350000Y-77736268D01*
X206550000Y-77786268D02*
X205875000Y-78461268D01*
X148462357Y-79590000D02*
X145760117Y-82292240D01*
X197440078Y-142452013D02*
X196291066Y-142452013D01*
X146380705Y-116094295D02*
X146008005Y-116094295D01*
X146412892Y-94117892D02*
X145703080Y-94117892D01*
X198194962Y-141697129D02*
X197440078Y-142452013D01*
X148885000Y-113590000D02*
X146380705Y-116094295D01*
X196291066Y-142452013D02*
X195449317Y-143293762D01*
X198046592Y-77308165D02*
X198046592Y-77232348D01*
X205875000Y-78461268D02*
X199199695Y-78461268D01*
%TO.N,Row0*%
X233833395Y-166809810D02*
X231140000Y-166809810D01*
X231140000Y-166809810D02*
X224200511Y-159870321D01*
%TD*%
M02*
