%TF.GenerationSoftware,KiCad,Pcbnew,8.0.5*%
%TF.CreationDate,2024-12-08T15:47:29-07:00*%
%TF.ProjectId,Split V2,53706c69-7420-4563-922e-6b696361645f,rev?*%
%TF.SameCoordinates,Original*%
%TF.FileFunction,Copper,L2,Bot*%
%TF.FilePolarity,Positive*%
%FSLAX46Y46*%
G04 Gerber Fmt 4.6, Leading zero omitted, Abs format (unit mm)*
G04 Created by KiCad (PCBNEW 8.0.5) date 2024-12-08 15:47:29*
%MOMM*%
%LPD*%
G01*
G04 APERTURE LIST*
G04 Aperture macros list*
%AMRoundRect*
0 Rectangle with rounded corners*
0 $1 Rounding radius*
0 $2 $3 $4 $5 $6 $7 $8 $9 X,Y pos of 4 corners*
0 Add a 4 corners polygon primitive as box body*
4,1,4,$2,$3,$4,$5,$6,$7,$8,$9,$2,$3,0*
0 Add four circle primitives for the rounded corners*
1,1,$1+$1,$2,$3*
1,1,$1+$1,$4,$5*
1,1,$1+$1,$6,$7*
1,1,$1+$1,$8,$9*
0 Add four rect primitives between the rounded corners*
20,1,$1+$1,$2,$3,$4,$5,0*
20,1,$1+$1,$4,$5,$6,$7,0*
20,1,$1+$1,$6,$7,$8,$9,0*
20,1,$1+$1,$8,$9,$2,$3,0*%
%AMRotRect*
0 Rectangle, with rotation*
0 The origin of the aperture is its center*
0 $1 length*
0 $2 width*
0 $3 Rotation angle, in degrees counterclockwise*
0 Add horizontal line*
21,1,$1,$2,0,0,$3*%
%AMFreePoly0*
4,1,6,0.273003,-0.563966,0.054118,-0.566755,-0.636958,0.066744,0.054118,0.683245,0.269411,0.686099,0.273003,-0.563966,0.273003,-0.563966,$1*%
%AMFreePoly1*
4,1,6,0.164090,-0.411589,0.855166,-1.028090,-0.394834,-1.028090,-0.394834,0.221910,0.855166,0.221910,0.164090,-0.411589,0.164090,-0.411589,$1*%
G04 Aperture macros list end*
%TA.AperFunction,SMDPad,CuDef*%
%ADD10RoundRect,0.225000X0.375000X-0.225000X0.375000X0.225000X-0.375000X0.225000X-0.375000X-0.225000X0*%
%TD*%
%TA.AperFunction,SMDPad,CuDef*%
%ADD11R,2.600000X2.600000*%
%TD*%
%TA.AperFunction,ComponentPad*%
%ADD12C,1.524000*%
%TD*%
%TA.AperFunction,SMDPad,CuDef*%
%ADD13RotRect,2.600000X2.600000X340.000000*%
%TD*%
%TA.AperFunction,ComponentPad*%
%ADD14R,1.752600X1.752600*%
%TD*%
%TA.AperFunction,ComponentPad*%
%ADD15C,1.752600*%
%TD*%
%TA.AperFunction,SMDPad,CuDef*%
%ADD16FreePoly0,180.000000*%
%TD*%
%TA.AperFunction,SMDPad,CuDef*%
%ADD17FreePoly1,180.000000*%
%TD*%
%TA.AperFunction,ComponentPad*%
%ADD18C,0.800000*%
%TD*%
%TA.AperFunction,SMDPad,CuDef*%
%ADD19FreePoly1,0.000000*%
%TD*%
%TA.AperFunction,SMDPad,CuDef*%
%ADD20FreePoly0,0.000000*%
%TD*%
%TA.AperFunction,SMDPad,CuDef*%
%ADD21RoundRect,0.225000X0.275430X-0.339688X0.429339X0.083173X-0.275430X0.339688X-0.429339X-0.083173X0*%
%TD*%
%TA.AperFunction,ComponentPad*%
%ADD22O,2.200000X1.600000*%
%TD*%
%TA.AperFunction,ViaPad*%
%ADD23C,0.800000*%
%TD*%
%TA.AperFunction,Conductor*%
%ADD24C,0.250000*%
%TD*%
G04 APERTURE END LIST*
D10*
%TO.P,DX3\u002CY2,1,K*%
%TO.N,Row3*%
X132601803Y-93637266D03*
%TO.P,DX3\u002CY2,2,A*%
%TO.N,Net-(DX3\u002CY2-A)*%
X132601803Y-90334201D03*
%TD*%
%TO.P,DX1\u002CY5,1,K*%
%TO.N,Row1*%
X186734423Y-130115582D03*
%TO.P,DX1\u002CY5,2,A*%
%TO.N,Net-(DX1\u002CY5-A)*%
X186734423Y-126812517D03*
%TD*%
D11*
%TO.P,SWX1\u002CY0,1,1*%
%TO.N,Col0*%
X88335000Y-121090000D03*
%TO.P,SWX1\u002CY0,2,2*%
%TO.N,Net-(DX1\u002CY0-A)*%
X99885000Y-123290000D03*
%TD*%
D10*
%TO.P,DX3\u002CY3,1,K*%
%TO.N,Row3*%
X150762593Y-91090326D03*
%TO.P,DX3\u002CY3,2,A*%
%TO.N,Net-(DX3\u002CY3-A)*%
X150762593Y-87787261D03*
%TD*%
D11*
%TO.P,SWX4\u002CY0,1,1*%
%TO.N,Col0*%
X88335000Y-70090000D03*
%TO.P,SWX4\u002CY0,2,2*%
%TO.N,Net-(DX4\u002CY0-A)*%
X99885000Y-72290000D03*
%TD*%
D12*
%TO.P,Joystick1,1,VCC*%
%TO.N,VCC*%
X194500629Y-125059163D03*
X205350629Y-114209163D03*
%TO.P,Joystick1,2,DataY*%
%TO.N,B3*%
X194500629Y-123059163D03*
%TO.P,Joystick1,3,DataX*%
%TO.N,B2*%
X203350629Y-114209163D03*
%TO.P,Joystick1,4,GND*%
%TO.N,Gnd*%
X194500629Y-121059163D03*
X201350629Y-114209163D03*
%TD*%
D11*
%TO.P,SWX1\u002CY5,1,1*%
%TO.N,Col5*%
X178335000Y-118590000D03*
%TO.P,SWX1\u002CY5,2,2*%
%TO.N,Net-(DX1\u002CY5-A)*%
X189885000Y-120790000D03*
%TD*%
%TO.P,SWX1\u002CY4,1,1*%
%TO.N,Col4*%
X160335000Y-116090000D03*
%TO.P,SWX1\u002CY4,2,2*%
%TO.N,Net-(DX1\u002CY4-A)*%
X171885000Y-118290000D03*
%TD*%
D10*
%TO.P,DX2\u002CY2,1,K*%
%TO.N,Row2*%
X132211251Y-110614970D03*
%TO.P,DX2\u002CY2,2,A*%
%TO.N,Net-(DX2\u002CY2-A)*%
X132211251Y-107311905D03*
%TD*%
D13*
%TO.P,SWX0\u002CY3,1,1*%
%TO.N,Col3*%
X192039976Y-139456897D03*
%TO.P,SWX0\u002CY3,2,2*%
%TO.N,Net-(DX0\u002CY3-A)*%
X202140981Y-145474553D03*
%TD*%
D10*
%TO.P,DX1\u002CY0,1,K*%
%TO.N,Row1*%
X96568428Y-132729939D03*
%TO.P,DX1\u002CY0,2,A*%
%TO.N,Net-(DX1\u002CY0-A)*%
X96568428Y-129426874D03*
%TD*%
D11*
%TO.P,SWX3\u002CY1,1,1*%
%TO.N,Col1*%
X106335000Y-87090000D03*
%TO.P,SWX3\u002CY1,2,2*%
%TO.N,Net-(DX3\u002CY1-A)*%
X117885000Y-89290000D03*
%TD*%
D10*
%TO.P,DX4\u002CY2,1,K*%
%TO.N,Row4*%
X132656338Y-76674524D03*
%TO.P,DX4\u002CY2,2,A*%
%TO.N,Net-(DX4\u002CY2-A)*%
X132656338Y-73371459D03*
%TD*%
%TO.P,DX4\u002CY3,1,K*%
%TO.N,Row4*%
X150669480Y-74053760D03*
%TO.P,DX4\u002CY3,2,A*%
%TO.N,Net-(DX4\u002CY3-A)*%
X150669480Y-70750695D03*
%TD*%
D14*
%TO.P,ProMicro1,1,TX*%
%TO.N,unconnected-(ProMicro1-TX-Pad1)*%
X195580000Y-65016268D03*
D15*
%TO.P,ProMicro1,2,RX*%
%TO.N,unconnected-(ProMicro1-RX-Pad2)*%
X195580000Y-67556268D03*
%TO.P,ProMicro1,3,GND*%
%TO.N,Gnd*%
X195580000Y-70096268D03*
D16*
X197105896Y-69934469D03*
D17*
X198194612Y-70398954D03*
D18*
X199486417Y-69986269D03*
D15*
%TO.P,ProMicro1,4,GND*%
%TO.N,unconnected-(ProMicro1-GND-Pad4)*%
X195580000Y-72636268D03*
D16*
X196994958Y-72611728D03*
D17*
X198050000Y-73086268D03*
D18*
X199450000Y-72636268D03*
D15*
%TO.P,ProMicro1,5,D1*%
%TO.N,SDA*%
X195580000Y-75176268D03*
D16*
X196994958Y-75161728D03*
D17*
X198050000Y-75636268D03*
D18*
X199450000Y-75286268D03*
D15*
%TO.P,ProMicro1,6,D0*%
%TO.N,SCL*%
X195580000Y-77716268D03*
D16*
X196994958Y-77611728D03*
D17*
X198050000Y-78036268D03*
D18*
X199500000Y-77736268D03*
D15*
%TO.P,ProMicro1,7,D4*%
%TO.N,Col5*%
X195580000Y-80256268D03*
%TO.P,ProMicro1,8,C6*%
%TO.N,Row4*%
X195580000Y-82796268D03*
%TO.P,ProMicro1,9,D7*%
%TO.N,Row3*%
X195580000Y-85336268D03*
%TO.P,ProMicro1,10,E6*%
%TO.N,Row2*%
X195580000Y-87876268D03*
%TO.P,ProMicro1,11,B4*%
%TO.N,Row1*%
X195580000Y-90416268D03*
%TO.P,ProMicro1,12,B5*%
%TO.N,Row0*%
X195580000Y-92956268D03*
%TO.P,ProMicro1,13,B6*%
%TO.N,unconnected-(ProMicro1-B6-Pad13)*%
X210820000Y-92956268D03*
%TO.P,ProMicro1,14,B2*%
%TO.N,B2*%
X210820000Y-90416268D03*
%TO.P,ProMicro1,15,B3*%
%TO.N,B3*%
X210820000Y-87876268D03*
%TO.P,ProMicro1,16,B1*%
%TO.N,Col0*%
X210820000Y-85336268D03*
%TO.P,ProMicro1,17,F7*%
%TO.N,Col1*%
X210820000Y-82796268D03*
%TO.P,ProMicro1,18,F6*%
%TO.N,Col2*%
X210820000Y-80256268D03*
D18*
%TO.P,ProMicro1,19,F5*%
%TO.N,Col3*%
X206550000Y-77786268D03*
D19*
X208250000Y-77386268D03*
D20*
X209355042Y-77860808D03*
D15*
X210820000Y-77716268D03*
D18*
%TO.P,ProMicro1,20,F4*%
%TO.N,Col4*%
X206550000Y-75236268D03*
D19*
X208150000Y-74736268D03*
D20*
X209355042Y-75210808D03*
D15*
X210820000Y-75176268D03*
D18*
%TO.P,ProMicro1,21,VCC*%
%TO.N,VCC*%
X206550000Y-72636268D03*
D19*
X208196592Y-72382348D03*
D20*
X209297464Y-72810826D03*
D15*
X210820000Y-72636268D03*
D18*
%TO.P,ProMicro1,22,RST*%
%TO.N,unconnected-(ProMicro1-RST-Pad22)*%
X206550000Y-70186268D03*
D19*
X208196592Y-69732348D03*
D20*
X209305042Y-70210808D03*
D15*
X210820000Y-70096268D03*
%TO.P,ProMicro1,23,GND*%
%TO.N,unconnected-(ProMicro1-GND-Pad23)*%
X210820000Y-67556268D03*
%TO.P,ProMicro1,24,RAW*%
%TO.N,unconnected-(ProMicro1-RAW-Pad24)*%
X210820000Y-65016268D03*
%TD*%
D10*
%TO.P,DX3\u002CY4,1,K*%
%TO.N,Row3*%
X168517350Y-93415793D03*
%TO.P,DX3\u002CY4,2,A*%
%TO.N,Net-(DX3\u002CY4-A)*%
X168517350Y-90112728D03*
%TD*%
D21*
%TO.P,DX0\u002CY5,1,K*%
%TO.N,Row0*%
X233832247Y-166812963D03*
%TO.P,DX0\u002CY5,2,A*%
%TO.N,Net-(DX0\u002CY5-A)*%
X234961962Y-163709098D03*
%TD*%
D10*
%TO.P,DX1\u002CY1,1,K*%
%TO.N,Row1*%
X114009430Y-132619203D03*
%TO.P,DX1\u002CY1,2,A*%
%TO.N,Net-(DX1\u002CY1-A)*%
X114009430Y-129316138D03*
%TD*%
D21*
%TO.P,DMR1,1,K*%
%TO.N,Row1*%
X228734339Y-143939382D03*
%TO.P,DMR1,2,A*%
%TO.N,/Net-(DX0\u002CY4-A)*%
X229864054Y-140835517D03*
%TD*%
%TO.P,DX0\u002CY4,1,K*%
%TO.N,Row0*%
X214785564Y-159873474D03*
%TO.P,DX0\u002CY4,2,A*%
%TO.N,Net-(DX0\u002CY4-A)*%
X215915279Y-156769609D03*
%TD*%
D10*
%TO.P,DX1\u002CY3,1,K*%
%TO.N,Row1*%
X150802734Y-125269304D03*
%TO.P,DX1\u002CY3,2,A*%
%TO.N,Net-(DX1\u002CY3-A)*%
X150802734Y-121966239D03*
%TD*%
%TO.P,DX4\u002CY1,1,K*%
%TO.N,Row4*%
X114310987Y-81620756D03*
%TO.P,DX4\u002CY1,2,A*%
%TO.N,Net-(DX4\u002CY1-A)*%
X114310987Y-78317691D03*
%TD*%
D11*
%TO.P,SWX3\u002CY2,1,1*%
%TO.N,Col2*%
X124335000Y-82090000D03*
%TO.P,SWX3\u002CY2,2,2*%
%TO.N,Net-(DX3\u002CY2-A)*%
X135885000Y-84290000D03*
%TD*%
%TO.P,SWX4\u002CY3,1,1*%
%TO.N,Col3*%
X142335000Y-62590000D03*
%TO.P,SWX4\u002CY3,2,2*%
%TO.N,Net-(DX4\u002CY3-A)*%
X153885000Y-64790000D03*
%TD*%
D10*
%TO.P,DX2\u002CY4,1,K*%
%TO.N,Row2*%
X168532832Y-110578058D03*
%TO.P,DX2\u002CY4,2,A*%
%TO.N,Net-(DX2\u002CY4-A)*%
X168532832Y-107274993D03*
%TD*%
D11*
%TO.P,SWX2\u002CY2,1,1*%
%TO.N,Col2*%
X124335000Y-99090000D03*
%TO.P,SWX2\u002CY2,2,2*%
%TO.N,Net-(DX2\u002CY2-A)*%
X135885000Y-101290000D03*
%TD*%
D10*
%TO.P,DX4\u002CY5,1,K*%
%TO.N,Row4*%
X186326641Y-79258376D03*
%TO.P,DX4\u002CY5,2,A*%
%TO.N,Net-(DX4\u002CY5-A)*%
X186326641Y-75955311D03*
%TD*%
D11*
%TO.P,SWX0\u002CY0,1,1*%
%TO.N,Col0*%
X124335000Y-133090000D03*
%TO.P,SWX0\u002CY0,2,2*%
%TO.N,Net-(DX0\u002CY0-A)*%
X135885000Y-135290000D03*
%TD*%
D22*
%TO.P,J1,1*%
%TO.N,SCL*%
X206755848Y-99379405D03*
X206755848Y-101679405D03*
%TO.P,J1,2*%
%TO.N,SDA*%
X207855848Y-97079405D03*
X207855848Y-103979405D03*
%TO.P,J1,3,3*%
%TO.N,Gnd*%
X211855848Y-97079405D03*
X211855848Y-103979405D03*
%TO.P,J1,4,4*%
%TO.N,VCC*%
X214855848Y-97079405D03*
X214855848Y-103979405D03*
%TD*%
D10*
%TO.P,DX1\u002CY4,1,K*%
%TO.N,Row1*%
X168803195Y-127692443D03*
%TO.P,DX1\u002CY4,2,A*%
%TO.N,Net-(DX1\u002CY4-A)*%
X168803195Y-124389378D03*
%TD*%
%TO.P,DX3\u002CY0,1,K*%
%TO.N,Row3*%
X96612432Y-98620409D03*
%TO.P,DX3\u002CY0,2,A*%
%TO.N,Net-(DX3\u002CY0-A)*%
X96612432Y-95317344D03*
%TD*%
D11*
%TO.P,SWX3\u002CY4,1,1*%
%TO.N,Col4*%
X160335000Y-82090000D03*
%TO.P,SWX3\u002CY4,2,2*%
%TO.N,Net-(DX3\u002CY4-A)*%
X171885000Y-84290000D03*
%TD*%
%TO.P,SWX2\u002CY5,1,1*%
%TO.N,Col5*%
X178335000Y-101590000D03*
%TO.P,SWX2\u002CY5,2,2*%
%TO.N,Net-(DX2\u002CY5-A)*%
X189885000Y-103790000D03*
%TD*%
D10*
%TO.P,DX3\u002CY1,1,K*%
%TO.N,Row3*%
X114256452Y-98657322D03*
%TO.P,DX3\u002CY1,2,A*%
%TO.N,Net-(DX3\u002CY1-A)*%
X114256452Y-95354257D03*
%TD*%
D11*
%TO.P,SWX2\u002CY1,1,1*%
%TO.N,Col1*%
X106335000Y-104090000D03*
%TO.P,SWX2\u002CY1,2,2*%
%TO.N,Net-(DX2\u002CY1-A)*%
X117885000Y-106290000D03*
%TD*%
D21*
%TO.P,DX0\u002CY3,1,K*%
%TO.N,Row0*%
X195396121Y-152970805D03*
%TO.P,DX0\u002CY3,2,A*%
%TO.N,Net-(DX0\u002CY3-A)*%
X196525836Y-149866940D03*
%TD*%
D11*
%TO.P,SWX1\u002CY3,1,1*%
%TO.N,Col3*%
X142335000Y-113590000D03*
%TO.P,SWX1\u002CY3,2,2*%
%TO.N,Net-(DX1\u002CY3-A)*%
X153885000Y-115790000D03*
%TD*%
D10*
%TO.P,DX0\u002CY2,1,K*%
%TO.N,Row0*%
X168381064Y-144689484D03*
%TO.P,DX0\u002CY2,2,A*%
%TO.N,Net-(DX0\u002CY2-A)*%
X168381064Y-141386419D03*
%TD*%
D11*
%TO.P,SWX2\u002CY4,1,1*%
%TO.N,Col4*%
X160335000Y-99090000D03*
%TO.P,SWX2\u002CY4,2,2*%
%TO.N,Net-(DX2\u002CY4-A)*%
X171885000Y-101290000D03*
%TD*%
%TO.P,SWX1\u002CY2,1,1*%
%TO.N,Col2*%
X124335000Y-116090000D03*
%TO.P,SWX1\u002CY2,2,2*%
%TO.N,Net-(DX1\u002CY2-A)*%
X135885000Y-118290000D03*
%TD*%
D10*
%TO.P,DX3\u002CY5,1,K*%
%TO.N,Row3*%
X186899613Y-96147294D03*
%TO.P,DX3\u002CY5,2,A*%
%TO.N,Net-(DX3\u002CY5-A)*%
X186899613Y-92844229D03*
%TD*%
%TO.P,DX4\u002CY0,1,K*%
%TO.N,Row4*%
X96703880Y-81694580D03*
%TO.P,DX4\u002CY0,2,A*%
%TO.N,Net-(DX4\u002CY0-A)*%
X96703880Y-78391515D03*
%TD*%
D13*
%TO.P,SWML1,1,1*%
%TO.N,B2*%
X205988751Y-123522805D03*
%TO.P,SWML1,2,2*%
%TO.N,/Net-(DX0\u002CY3-A)*%
X216089756Y-129540461D03*
%TD*%
D11*
%TO.P,SWX0\u002CY1,1,1*%
%TO.N,Col1*%
X142335000Y-130590000D03*
%TO.P,SWX0\u002CY1,2,2*%
%TO.N,Net-(DX0\u002CY1-A)*%
X153885000Y-132790000D03*
%TD*%
D21*
%TO.P,DML1,1,K*%
%TO.N,Row1*%
X209344896Y-137036713D03*
%TO.P,DML1,2,A*%
%TO.N,/Net-(DX0\u002CY3-A)*%
X210474611Y-133932848D03*
%TD*%
D11*
%TO.P,SWX4\u002CY4,1,1*%
%TO.N,Col4*%
X160335000Y-65090000D03*
%TO.P,SWX4\u002CY4,2,2*%
%TO.N,Net-(DX4\u002CY4-A)*%
X171885000Y-67290000D03*
%TD*%
D13*
%TO.P,SWX0\u002CY4,2,2*%
%TO.N,Net-(DX0\u002CY4-A)*%
X221169757Y-152400461D03*
%TO.P,SWX0\u002CY4,1,1*%
%TO.N,Col4*%
X211068752Y-146382805D03*
%TD*%
D11*
%TO.P,SWX2\u002CY3,1,1*%
%TO.N,Col3*%
X142335000Y-96590000D03*
%TO.P,SWX2\u002CY3,2,2*%
%TO.N,Net-(DX2\u002CY3-A)*%
X153885000Y-98790000D03*
%TD*%
%TO.P,SWX3\u002CY3,1,1*%
%TO.N,Col3*%
X142335000Y-79590000D03*
%TO.P,SWX3\u002CY3,2,2*%
%TO.N,Net-(DX3\u002CY3-A)*%
X153885000Y-81790000D03*
%TD*%
%TO.P,SWX0\u002CY2,1,1*%
%TO.N,Col2*%
X160335000Y-133090000D03*
%TO.P,SWX0\u002CY2,2,2*%
%TO.N,Net-(DX0\u002CY2-A)*%
X171885000Y-135290000D03*
%TD*%
%TO.P,SWX1\u002CY1,1,1*%
%TO.N,Col1*%
X106335000Y-121090000D03*
%TO.P,SWX1\u002CY1,2,2*%
%TO.N,Net-(DX1\u002CY1-A)*%
X117885000Y-123290000D03*
%TD*%
D10*
%TO.P,DX1\u002CY2,1,K*%
%TO.N,Row1*%
X132525342Y-127692443D03*
%TO.P,DX1\u002CY2,2,A*%
%TO.N,Net-(DX1\u002CY2-A)*%
X132525342Y-124389378D03*
%TD*%
D11*
%TO.P,SWX4\u002CY5,1,1*%
%TO.N,Col5*%
X178335000Y-67590000D03*
%TO.P,SWX4\u002CY5,2,2*%
%TO.N,Net-(DX4\u002CY5-A)*%
X189885000Y-69790000D03*
%TD*%
D10*
%TO.P,DX2\u002CY0,1,K*%
%TO.N,Row2*%
X96184969Y-115635026D03*
%TO.P,DX2\u002CY0,2,A*%
%TO.N,Net-(DX2\u002CY0-A)*%
X96184969Y-112331961D03*
%TD*%
D11*
%TO.P,SWX3\u002CY0,1,1*%
%TO.N,Col0*%
X88335000Y-87090000D03*
%TO.P,SWX3\u002CY0,2,2*%
%TO.N,Net-(DX3\u002CY0-A)*%
X99885000Y-89290000D03*
%TD*%
D10*
%TO.P,DX2\u002CY5,1,K*%
%TO.N,Row2*%
X186582733Y-113254267D03*
%TO.P,DX2\u002CY5,2,A*%
%TO.N,Net-(DX2\u002CY5-A)*%
X186582733Y-109951202D03*
%TD*%
%TO.P,DX2\u002CY1,1,K*%
%TO.N,Row2*%
X114382671Y-115671938D03*
%TO.P,DX2\u002CY1,2,A*%
%TO.N,Net-(DX2\u002CY1-A)*%
X114382671Y-112368873D03*
%TD*%
D11*
%TO.P,SWX4\u002CY1,1,1*%
%TO.N,Col1*%
X106335000Y-70090000D03*
%TO.P,SWX4\u002CY1,2,2*%
%TO.N,Net-(DX4\u002CY1-A)*%
X117885000Y-72290000D03*
%TD*%
D10*
%TO.P,DX0\u002CY0,1,K*%
%TO.N,Row0*%
X132668535Y-144634116D03*
%TO.P,DX0\u002CY0,2,A*%
%TO.N,Net-(DX0\u002CY0-A)*%
X132668535Y-141331051D03*
%TD*%
D11*
%TO.P,SWX3\u002CY5,1,1*%
%TO.N,Col5*%
X178335000Y-84590000D03*
%TO.P,SWX3\u002CY5,2,2*%
%TO.N,Net-(DX3\u002CY5-A)*%
X189885000Y-86790000D03*
%TD*%
D10*
%TO.P,DX2\u002CY3,1,K*%
%TO.N,Row2*%
X150704251Y-108056691D03*
%TO.P,DX2\u002CY3,2,A*%
%TO.N,Net-(DX2\u002CY3-A)*%
X150704251Y-104753626D03*
%TD*%
D11*
%TO.P,SWX2\u002CY0,1,1*%
%TO.N,Col0*%
X88335000Y-104090000D03*
%TO.P,SWX2\u002CY0,2,2*%
%TO.N,Net-(DX2\u002CY0-A)*%
X99885000Y-106290000D03*
%TD*%
D10*
%TO.P,DX4\u002CY4,1,K*%
%TO.N,Row4*%
X168719533Y-76563788D03*
%TO.P,DX4\u002CY4,2,A*%
%TO.N,Net-(DX4\u002CY4-A)*%
X168719533Y-73260723D03*
%TD*%
%TO.P,DX0\u002CY1,1,K*%
%TO.N,Row0*%
X149943433Y-141976439D03*
%TO.P,DX0\u002CY1,2,A*%
%TO.N,Net-(DX0\u002CY1-A)*%
X149943433Y-138673374D03*
%TD*%
D11*
%TO.P,SWX4\u002CY2,1,1*%
%TO.N,Col2*%
X124335000Y-65090000D03*
%TO.P,SWX4\u002CY2,2,2*%
%TO.N,Net-(DX4\u002CY2-A)*%
X135885000Y-67290000D03*
%TD*%
D13*
%TO.P,SWX0\u002CY5,1,1*%
%TO.N,Col5*%
X230097527Y-153308713D03*
%TO.P,SWX0\u002CY5,2,2*%
%TO.N,Net-(DX0\u002CY5-A)*%
X240198532Y-159326369D03*
%TD*%
%TO.P,SWMR1,1,1*%
%TO.N,B3*%
X225017527Y-130448713D03*
%TO.P,SWMR1,2,2*%
%TO.N,/Net-(DX0\u002CY4-A)*%
X235118532Y-136466369D03*
%TD*%
D23*
%TO.N,Col4*%
X215900000Y-144780000D03*
%TO.N,Row0*%
X165100000Y-144686128D03*
X193040000Y-152967652D03*
X134152899Y-143147064D03*
X210820000Y-160020000D03*
X147320000Y-141973083D03*
%TO.N,Row1*%
X101600000Y-132615847D03*
X111760000Y-132615847D03*
X165100000Y-127689087D03*
X129540000Y-127689087D03*
X182880000Y-130112226D03*
X148922152Y-127009743D03*
X205393970Y-136348999D03*
X226060000Y-143936229D03*
%TO.N,Row2*%
X137160000Y-110611614D03*
X172164817Y-110573665D03*
X116840000Y-114300000D03*
X154940000Y-109220000D03*
X182880000Y-113250911D03*
X99060000Y-115631670D03*
%TO.N,Row3*%
X147320000Y-91086970D03*
X185420000Y-96143938D03*
X111760000Y-98653966D03*
X129540000Y-93633910D03*
X165100000Y-93412437D03*
X99060000Y-98653966D03*
%TO.N,Row4*%
X99060000Y-81691224D03*
X165100000Y-76560432D03*
X111760000Y-81691224D03*
X129540000Y-76671168D03*
X149189942Y-75529942D03*
X190500000Y-79255020D03*
%TO.N,Col5*%
X178485000Y-88900000D03*
X181973528Y-64713832D03*
X180340000Y-121920000D03*
X232319125Y-157011377D03*
X178485000Y-106680000D03*
%TO.N,Col0*%
X92303955Y-90576045D03*
X91483560Y-67213007D03*
X91596162Y-124378837D03*
X128103539Y-135878421D03*
X91440000Y-106680000D03*
%TO.N,B2*%
X208280000Y-127000000D03*
%TO.N,B3*%
X227196259Y-134032476D03*
%TO.N,Col2*%
X127718752Y-62095818D03*
X128012787Y-96465257D03*
X127914775Y-79476561D03*
X163888603Y-135796140D03*
X127745704Y-113276322D03*
%TO.N,Col1*%
X109220000Y-84205000D03*
X109220000Y-66040000D03*
X109234520Y-101600000D03*
X145854498Y-133280340D03*
X109220000Y-118205000D03*
%TO.N,Col4*%
X160485000Y-104140000D03*
X164054541Y-62486118D03*
X161520500Y-119380000D03*
X160485000Y-86360000D03*
%TO.N,Col3*%
X195449317Y-143293762D03*
X145802575Y-65339403D03*
X146008005Y-116094295D03*
X145703080Y-94117892D03*
X145760117Y-82292240D03*
%TO.N,Row0*%
X231140000Y-166809810D03*
%TD*%
D24*
%TO.N,Col5*%
X229699866Y-152911052D02*
X230097527Y-153308713D01*
X182430000Y-136710000D02*
X200833239Y-136710000D01*
X179520500Y-122739500D02*
X179520500Y-133800500D01*
X225101647Y-152911052D02*
X229699866Y-152911052D01*
X180340000Y-121920000D02*
X179520500Y-122739500D01*
X200833239Y-136710000D02*
X208154130Y-144030891D01*
X179520500Y-133800500D02*
X182430000Y-136710000D01*
X216221486Y-144030891D02*
X225101647Y-152911052D01*
X208154130Y-144030891D02*
X216221486Y-144030891D01*
%TO.N,Col4*%
X213360000Y-144780000D02*
X211757195Y-146382805D01*
X215900000Y-144780000D02*
X213360000Y-144780000D01*
X211757195Y-146382805D02*
X211068752Y-146382805D01*
%TO.N,Row0*%
X213703557Y-159872027D02*
X213705004Y-159873474D01*
X210967973Y-159872027D02*
X213703557Y-159872027D01*
X213705004Y-159873474D02*
X214785564Y-159873474D01*
X210820000Y-160020000D02*
X210967973Y-159872027D01*
%TO.N,Row1*%
X208665719Y-136357536D02*
X209344896Y-137036713D01*
X205402507Y-136357536D02*
X208665719Y-136357536D01*
X205393970Y-136348999D02*
X205402507Y-136357536D01*
X205304971Y-136260000D02*
X189027774Y-136260000D01*
X205393970Y-136348999D02*
X205304971Y-136260000D01*
X189027774Y-136260000D02*
X182880000Y-130112226D01*
%TO.N,Col4*%
X161520500Y-123420500D02*
X161520500Y-119380000D01*
X161522772Y-126058812D02*
X161522772Y-123422772D01*
X165879305Y-130415345D02*
X161522772Y-126058812D01*
X178436396Y-137160000D02*
X171691741Y-130415345D01*
X200646843Y-137160000D02*
X178436396Y-137160000D01*
X171691741Y-130415345D02*
X165879305Y-130415345D01*
X209869648Y-146382805D02*
X200646843Y-137160000D01*
X161522772Y-123422772D02*
X161520500Y-123420500D01*
X211068752Y-146382805D02*
X209869648Y-146382805D01*
%TO.N,Net-(DX0\u002CY0-A)*%
X132746322Y-141137362D02*
X134620000Y-139263684D01*
X132668244Y-141330760D02*
X132668535Y-141331051D01*
X134620000Y-139263684D02*
X134620000Y-136555000D01*
X134620000Y-136555000D02*
X135885000Y-135290000D01*
%TO.N,Net-(DX0\u002CY1-A)*%
X150710310Y-138673374D02*
X149943433Y-138673374D01*
X153885000Y-132790000D02*
X153885000Y-135498684D01*
X153885000Y-135498684D02*
X150710310Y-138673374D01*
%TO.N,Net-(DX0\u002CY2-A)*%
X171885000Y-138482483D02*
X168981064Y-141386419D01*
X168981064Y-141386419D02*
X168381064Y-141386419D01*
X171885000Y-135290000D02*
X171885000Y-138482483D01*
%TO.N,Net-(DX0\u002CY3-A)*%
X202140981Y-145474553D02*
X202140981Y-146857984D01*
X199132025Y-149866940D02*
X196525836Y-149866940D01*
X202140981Y-146857984D02*
X199132025Y-149866940D01*
%TO.N,Net-(DX0\u002CY4-A)*%
X221169757Y-153783892D02*
X218184040Y-156769609D01*
X221169757Y-152400461D02*
X221169757Y-153783892D01*
X218184040Y-156769609D02*
X215915279Y-156769609D01*
%TO.N,Net-(DX0\u002CY5-A)*%
X237199234Y-163709098D02*
X234961962Y-163709098D01*
X240198532Y-160709800D02*
X237199234Y-163709098D01*
X240198532Y-159326369D02*
X240198532Y-160709800D01*
%TO.N,Net-(DX1\u002CY0-A)*%
X99885000Y-123290000D02*
X99885000Y-126110302D01*
X99885000Y-126110302D02*
X96568428Y-129426874D01*
%TO.N,Net-(DX1\u002CY1-A)*%
X117885000Y-125998684D02*
X114567546Y-129316138D01*
X117885000Y-123290000D02*
X117885000Y-125998684D01*
X114567546Y-129316138D02*
X114009430Y-129316138D01*
%TO.N,Net-(DX1\u002CY2-A)*%
X135885000Y-118290000D02*
X135885000Y-121029720D01*
X135885000Y-121029720D02*
X132525342Y-124389378D01*
%TO.N,Net-(DX1\u002CY3-A)*%
X153885000Y-115790000D02*
X153885000Y-118883973D01*
X153885000Y-118883973D02*
X150802734Y-121966239D01*
%TO.N,Net-(DX1\u002CY4-A)*%
X171885000Y-121307573D02*
X168803195Y-124389378D01*
X171885000Y-118290000D02*
X171885000Y-121307573D01*
%TO.N,Net-(DX1\u002CY5-A)*%
X189885000Y-120790000D02*
X189885000Y-123661940D01*
X189885000Y-123661940D02*
X186734423Y-126812517D01*
%TO.N,Net-(DX2\u002CY0-A)*%
X96551723Y-112331961D02*
X96184969Y-112331961D01*
X99885000Y-108998684D02*
X96551723Y-112331961D01*
X99885000Y-106290000D02*
X99885000Y-108998684D01*
%TO.N,Net-(DX2\u002CY1-A)*%
X114514811Y-112368873D02*
X114382671Y-112368873D01*
X117885000Y-106290000D02*
X117885000Y-108998684D01*
X117885000Y-108998684D02*
X114514811Y-112368873D01*
%TO.N,Net-(DX2\u002CY2-A)*%
X132571779Y-107311905D02*
X132211251Y-107311905D01*
X135885000Y-103998684D02*
X132571779Y-107311905D01*
X135885000Y-101290000D02*
X135885000Y-103998684D01*
%TO.N,Net-(DX2\u002CY3-A)*%
X153885000Y-98790000D02*
X153885000Y-101572877D01*
X153885000Y-101572877D02*
X150704251Y-104753626D01*
%TO.N,Net-(DX2\u002CY4-A)*%
X169132832Y-107274993D02*
X168532832Y-107274993D01*
X171885000Y-101290000D02*
X171885000Y-104522825D01*
X171885000Y-104522825D02*
X169132832Y-107274993D01*
%TO.N,Net-(DX2\u002CY5-A)*%
X189885000Y-103790000D02*
X189885000Y-107295000D01*
X187228798Y-109951202D02*
X186582733Y-109951202D01*
X189885000Y-107295000D02*
X187228798Y-109951202D01*
%TO.N,Net-(DX3\u002CY0-A)*%
X99885000Y-92044776D02*
X96612432Y-95317344D01*
X99885000Y-89290000D02*
X99885000Y-92044776D01*
%TO.N,Net-(DX3\u002CY1-A)*%
X114529427Y-95354257D02*
X114256452Y-95354257D01*
X117885000Y-91998684D02*
X114529427Y-95354257D01*
X117885000Y-89290000D02*
X117885000Y-91998684D01*
%TO.N,Net-(DX3\u002CY2-A)*%
X135885000Y-84290000D02*
X135885000Y-87051004D01*
X135885000Y-87051004D02*
X132601803Y-90334201D01*
%TO.N,Net-(DX3\u002CY3-A)*%
X153885000Y-81790000D02*
X153885000Y-84664854D01*
X153885000Y-84664854D02*
X150762593Y-87787261D01*
%TO.N,Net-(DX3\u002CY4-A)*%
X171885000Y-87345078D02*
X169117350Y-90112728D01*
X169117350Y-90112728D02*
X168517350Y-90112728D01*
X171885000Y-84290000D02*
X171885000Y-87345078D01*
%TO.N,unconnected-(ProMicro1-GND-Pad4)*%
X198500000Y-72636268D02*
X198050000Y-73086268D01*
X195580000Y-72636268D02*
X196970418Y-72636268D01*
X199450000Y-72636268D02*
X198500000Y-72636268D01*
X196970418Y-72636268D02*
X196994958Y-72611728D01*
%TO.N,Net-(DX3\u002CY5-A)*%
X189885000Y-89858842D02*
X186899613Y-92844229D01*
X189885000Y-86790000D02*
X189885000Y-89858842D01*
%TO.N,Net-(DX4\u002CY0-A)*%
X99885000Y-75210395D02*
X96703880Y-78391515D01*
X99885000Y-72290000D02*
X99885000Y-75210395D01*
%TO.N,unconnected-(ProMicro1-RST-Pad22)*%
X209419582Y-70096268D02*
X209305042Y-70210808D01*
X210820000Y-70096268D02*
X209419582Y-70096268D01*
X207742672Y-70186268D02*
X208196592Y-69732348D01*
X206550000Y-70186268D02*
X207742672Y-70186268D01*
%TO.N,Net-(DX4\u002CY1-A)*%
X117885000Y-75343678D02*
X114910987Y-78317691D01*
X114910987Y-78317691D02*
X114310987Y-78317691D01*
X117885000Y-72290000D02*
X117885000Y-75343678D01*
%TO.N,Net-(DX4\u002CY2-A)*%
X135885000Y-70142797D02*
X132656338Y-73371459D01*
X135885000Y-67290000D02*
X135885000Y-70142797D01*
%TO.N,Net-(DX4\u002CY3-A)*%
X153885000Y-64790000D02*
X153885000Y-67535175D01*
X153885000Y-67535175D02*
X150669480Y-70750695D01*
%TO.N,Net-(DX4\u002CY4-A)*%
X171885000Y-67290000D02*
X171885000Y-70095256D01*
X171885000Y-70095256D02*
X168719533Y-73260723D01*
%TO.N,Net-(DX4\u002CY5-A)*%
X186926641Y-75955311D02*
X186326641Y-75955311D01*
X189885000Y-72996952D02*
X186926641Y-75955311D01*
X189885000Y-69790000D02*
X189885000Y-72996952D01*
%TO.N,Row0*%
X147323356Y-141976439D02*
X147320000Y-141973083D01*
X132668535Y-144634116D02*
X132668535Y-144631428D01*
X193043153Y-152970805D02*
X193040000Y-152967652D01*
X165103356Y-144689484D02*
X165100000Y-144686128D01*
X149943433Y-141976439D02*
X147323356Y-141976439D01*
X195396121Y-152970805D02*
X193043153Y-152970805D01*
X231143153Y-166812963D02*
X231140000Y-166809810D01*
X132668535Y-144631428D02*
X134152899Y-143147064D01*
X168381064Y-144689484D02*
X165103356Y-144689484D01*
%TO.N,Row1*%
X111763356Y-132619203D02*
X111760000Y-132615847D01*
X186734423Y-130115582D02*
X182883356Y-130115582D01*
X101600000Y-132615847D02*
X101485908Y-132729939D01*
X132525342Y-127692443D02*
X129543356Y-127692443D01*
X150662592Y-125269304D02*
X150802734Y-125269304D01*
X182883356Y-130115582D02*
X182880000Y-130112226D01*
X114009430Y-132619203D02*
X111763356Y-132619203D01*
X226063153Y-143939382D02*
X226060000Y-143936229D01*
X168803195Y-127692443D02*
X165103356Y-127692443D01*
X129543356Y-127692443D02*
X129540000Y-127689087D01*
X148922153Y-127009743D02*
X150662592Y-125269304D01*
X101485908Y-132729939D02*
X96568428Y-132729939D01*
X165103356Y-127692443D02*
X165100000Y-127689087D01*
X148922152Y-127009743D02*
X148922153Y-127009743D01*
X228734339Y-143939382D02*
X226063153Y-143939382D01*
%TO.N,Row2*%
X99056644Y-115635026D02*
X99060000Y-115631670D01*
X168536188Y-110578058D02*
X168532832Y-110578058D01*
X96184969Y-115635026D02*
X99056644Y-115635026D01*
X137156644Y-110614970D02*
X137160000Y-110611614D01*
X114382671Y-115671938D02*
X115468062Y-115671938D01*
X115468062Y-115671938D02*
X116840000Y-114300000D01*
X154940000Y-109220000D02*
X153776691Y-108056691D01*
X182883356Y-113254267D02*
X182880000Y-113250911D01*
X168540581Y-110573665D02*
X168536188Y-110578058D01*
X172164817Y-110573665D02*
X168540581Y-110573665D01*
X186582733Y-113254267D02*
X182883356Y-113254267D01*
X132211251Y-110614970D02*
X137156644Y-110614970D01*
X153776691Y-108056691D02*
X150704251Y-108056691D01*
%TO.N,Row3*%
X185423356Y-96147294D02*
X185420000Y-96143938D01*
X186899613Y-96147294D02*
X185423356Y-96147294D01*
X99026443Y-98620409D02*
X99060000Y-98653966D01*
X111763356Y-98657322D02*
X111760000Y-98653966D01*
X96612432Y-98620409D02*
X99026443Y-98620409D01*
X168517350Y-93415793D02*
X165103356Y-93415793D01*
X129543356Y-93637266D02*
X129540000Y-93633910D01*
X132601803Y-93637266D02*
X129543356Y-93637266D01*
X165103356Y-93415793D02*
X165100000Y-93412437D01*
X150762593Y-91090326D02*
X147323356Y-91090326D01*
X147323356Y-91090326D02*
X147320000Y-91086970D01*
X114256452Y-98657322D02*
X111763356Y-98657322D01*
%TO.N,Row4*%
X99060000Y-81691224D02*
X96707236Y-81691224D01*
X190496644Y-79258376D02*
X186326641Y-79258376D01*
X165103356Y-76563788D02*
X165100000Y-76560432D01*
X190500000Y-79255020D02*
X190496644Y-79258376D01*
X96707236Y-81691224D02*
X96703880Y-81694580D01*
X150669480Y-74053760D02*
X150666124Y-74053760D01*
X111830468Y-81620756D02*
X111760000Y-81691224D01*
X150666124Y-74053760D02*
X149189942Y-75529942D01*
X129543356Y-76674524D02*
X129540000Y-76671168D01*
X168719533Y-76563788D02*
X165103356Y-76563788D01*
X132656338Y-76674524D02*
X129543356Y-76674524D01*
X114310987Y-81620756D02*
X111830468Y-81620756D01*
%TO.N,Col5*%
X178485000Y-118440000D02*
X178485000Y-106680000D01*
X178485000Y-101440000D02*
X178485000Y-88900000D01*
X178485000Y-120065000D02*
X178485000Y-118740000D01*
X178485000Y-118740000D02*
X178335000Y-118590000D01*
X178335000Y-67590000D02*
X181211168Y-64713832D01*
X178632825Y-118887825D02*
X178335000Y-118590000D01*
X178485000Y-84440000D02*
X178485000Y-67740000D01*
X180340000Y-121920000D02*
X178485000Y-120065000D01*
X178485000Y-84740000D02*
X178335000Y-84590000D01*
X181211168Y-64713832D02*
X181973528Y-64713832D01*
X178335000Y-118590000D02*
X178485000Y-118440000D01*
X178335000Y-84590000D02*
X178485000Y-84440000D01*
X178485000Y-101740000D02*
X178335000Y-101590000D01*
X178335000Y-101590000D02*
X178485000Y-101440000D01*
X178485000Y-106680000D02*
X178485000Y-101740000D01*
X178485000Y-67740000D02*
X178335000Y-67590000D01*
X230097527Y-154789779D02*
X232319125Y-157011377D01*
X178485000Y-88900000D02*
X178485000Y-84740000D01*
X230097527Y-153308713D02*
X230097527Y-154789779D01*
%TO.N,Gnd*%
X211855848Y-97079405D02*
X209684794Y-94908351D01*
X200675000Y-90634723D02*
X200675000Y-71174852D01*
X196944097Y-70096268D02*
X197105896Y-69934469D01*
X195609476Y-70125744D02*
X195580000Y-70096268D01*
X200675000Y-71174852D02*
X199486417Y-69986269D01*
X195580000Y-70096268D02*
X196944097Y-70096268D01*
X199486417Y-69986269D02*
X198607297Y-69986269D01*
X204948628Y-94908351D02*
X200675000Y-90634723D01*
X198607297Y-69986269D02*
X198194612Y-70398954D01*
X209684794Y-94908351D02*
X204948628Y-94908351D01*
X211855848Y-97079405D02*
X211035571Y-97079405D01*
%TO.N,Col0*%
X88485000Y-76210001D02*
X88335000Y-76360001D01*
X95064755Y-137160000D02*
X89235646Y-131330891D01*
X88485000Y-70240000D02*
X88485000Y-76210001D01*
X89235646Y-131330891D02*
X89235646Y-126459355D01*
X123698325Y-133726675D02*
X123386650Y-133415000D01*
X91118956Y-90576045D02*
X92303955Y-90576045D01*
X88606567Y-70090000D02*
X91483560Y-67213007D01*
X123386650Y-133415000D02*
X121833350Y-133415000D01*
X121833350Y-133415000D02*
X118088350Y-137160000D01*
X88335000Y-87090000D02*
X88335000Y-76360001D01*
X91316164Y-124378837D02*
X91596162Y-124378837D01*
X88335000Y-104090000D02*
X90925000Y-106680000D01*
X88335000Y-121090000D02*
X88335000Y-109785000D01*
X88335000Y-93360001D02*
X91118956Y-90576045D01*
X88335000Y-109785000D02*
X91440000Y-106680000D01*
X91821045Y-90576045D02*
X88335000Y-87090000D01*
X88335000Y-121090000D02*
X88335000Y-121117675D01*
X124335000Y-133090000D02*
X123698325Y-133726675D01*
X90925000Y-106680000D02*
X91440000Y-106680000D01*
X125718421Y-135878421D02*
X128103539Y-135878421D01*
X89235646Y-126459355D02*
X91316164Y-124378837D01*
X124335000Y-134495000D02*
X125718421Y-135878421D01*
X88335000Y-121117675D02*
X91596162Y-124378837D01*
X92303955Y-90576045D02*
X91821045Y-90576045D01*
X124335000Y-133090000D02*
X124335000Y-134495000D01*
X88335000Y-70090000D02*
X88485000Y-70240000D01*
X88335000Y-104090000D02*
X88335000Y-93360001D01*
X118088350Y-137160000D02*
X95064755Y-137160000D01*
X88335000Y-70090000D02*
X88606567Y-70090000D01*
%TO.N,SCL*%
X196890418Y-77716268D02*
X196994958Y-77611728D01*
X199500000Y-90732515D02*
X199500000Y-77736268D01*
X198350000Y-77736268D02*
X198050000Y-78036268D01*
X206755848Y-99379405D02*
X206755848Y-97988363D01*
X206755848Y-97988363D02*
X199500000Y-90732515D01*
X199500000Y-77736268D02*
X198350000Y-77736268D01*
X195580000Y-77716268D02*
X196890418Y-77716268D01*
%TO.N,SDA*%
X200225000Y-76061268D02*
X199450000Y-75286268D01*
X195580000Y-75176268D02*
X196980418Y-75176268D01*
X208180848Y-103654405D02*
X208180848Y-97404405D01*
X200225000Y-90821119D02*
X200225000Y-76061268D01*
X199450000Y-75286268D02*
X198400000Y-75286268D01*
X206483286Y-97079405D02*
X200225000Y-90821119D01*
X207855848Y-103979405D02*
X208180848Y-103654405D01*
X208180848Y-97404405D02*
X207855848Y-97079405D01*
X207855848Y-97079405D02*
X206483286Y-97079405D01*
X198400000Y-75286268D02*
X198050000Y-75636268D01*
X196980418Y-75176268D02*
X196994958Y-75161728D01*
%TO.N,VCC*%
X214855848Y-97079405D02*
X212234794Y-94458351D01*
X205825000Y-92784723D02*
X205825000Y-73361268D01*
X209472022Y-72636268D02*
X209297464Y-72810826D01*
X207498628Y-94458351D02*
X205825000Y-92784723D01*
X205825000Y-73361268D02*
X206550000Y-72636268D01*
X207942672Y-72636268D02*
X208196592Y-72382348D01*
X210820000Y-72636268D02*
X209472022Y-72636268D01*
X206550000Y-72636268D02*
X207942672Y-72636268D01*
X212234794Y-94458351D02*
X207498628Y-94458351D01*
%TO.N,B2*%
X205988751Y-123522805D02*
X205988751Y-124708751D01*
X205988751Y-122168751D02*
X203350629Y-119530629D01*
X205988751Y-123522805D02*
X205988751Y-122168751D01*
X205988751Y-124708751D02*
X208280000Y-127000000D01*
X203350629Y-119530629D02*
X203350629Y-114209163D01*
%TO.N,B3*%
X225017527Y-131853744D02*
X227196259Y-134032476D01*
X225017527Y-130448713D02*
X225017527Y-131853744D01*
%TO.N,/Net-(DX0\u002CY3-A)*%
X216089756Y-130923892D02*
X213080800Y-133932848D01*
X216089756Y-129540461D02*
X216089756Y-130923892D01*
X213080800Y-133932848D02*
X210474611Y-133932848D01*
%TO.N,/Net-(DX0\u002CY4-A)*%
X232132815Y-140835517D02*
X229864054Y-140835517D01*
X235118532Y-136466369D02*
X235118532Y-137849800D01*
X235118532Y-137849800D02*
X232132815Y-140835517D01*
%TO.N,Col2*%
X124485000Y-82240000D02*
X124485000Y-92937470D01*
X124335000Y-82090000D02*
X126948439Y-79476561D01*
X124485000Y-99240000D02*
X124485000Y-110015618D01*
X124485000Y-116240000D02*
X124335000Y-116090000D01*
X124335000Y-82090000D02*
X124485000Y-82240000D01*
X126948439Y-79476561D02*
X127914775Y-79476561D01*
X155960000Y-128715000D02*
X127511304Y-128715000D01*
X127329182Y-62095818D02*
X127718752Y-62095818D01*
X126959743Y-96465257D02*
X128012787Y-96465257D01*
X124485000Y-125688696D02*
X124485000Y-116240000D01*
X127511304Y-128715000D02*
X124485000Y-125688696D01*
X163041140Y-135796140D02*
X163888603Y-135796140D01*
X124335000Y-99090000D02*
X126959743Y-96465257D01*
X160335000Y-133090000D02*
X163041140Y-135796140D01*
X124335000Y-65090000D02*
X124485000Y-65240000D01*
X127148678Y-113276322D02*
X127745704Y-113276322D01*
X124485000Y-76046786D02*
X127914775Y-79476561D01*
X124335000Y-65090000D02*
X127329182Y-62095818D01*
X124335000Y-116090000D02*
X127148678Y-113276322D01*
X124485000Y-65240000D02*
X124485000Y-76046786D01*
X160335000Y-133090000D02*
X155960000Y-128715000D01*
X124485000Y-110015618D02*
X127745704Y-113276322D01*
X124335000Y-99090000D02*
X124485000Y-99240000D01*
X124485000Y-92937470D02*
X128012787Y-96465257D01*
%TO.N,Col1*%
X110205001Y-130590000D02*
X106680000Y-127064999D01*
X106335000Y-87090000D02*
X106485000Y-87240000D01*
X145025340Y-133280340D02*
X145854498Y-133280340D01*
X142335000Y-130590000D02*
X110205001Y-130590000D01*
X106680000Y-121435000D02*
X106335000Y-121090000D01*
X109220000Y-84205000D02*
X106335000Y-87090000D01*
X106335000Y-70090000D02*
X106335000Y-68925000D01*
X106485000Y-115470000D02*
X109220000Y-118205000D01*
X106485000Y-104240000D02*
X106485000Y-115470000D01*
X106485000Y-81470000D02*
X109220000Y-84205000D01*
X108825000Y-101600000D02*
X109220000Y-101600000D01*
X142335000Y-130590000D02*
X145025340Y-133280340D01*
X106485000Y-98850480D02*
X109234520Y-101600000D01*
X106680000Y-127064999D02*
X106680000Y-121435000D01*
X106335000Y-104090000D02*
X106485000Y-104240000D01*
X106335000Y-70090000D02*
X106485000Y-70240000D01*
X106485000Y-87240000D02*
X106485000Y-98850480D01*
X106335000Y-104090000D02*
X108825000Y-101600000D01*
X106485000Y-70240000D02*
X106485000Y-81470000D01*
X106335000Y-68925000D02*
X109220000Y-66040000D01*
X109220000Y-118205000D02*
X106335000Y-121090000D01*
%TO.N,Col4*%
X212910000Y-75214772D02*
X212910000Y-63595082D01*
X211608482Y-76516290D02*
X212910000Y-75214772D01*
X160335000Y-99090000D02*
X160485000Y-98940000D01*
X160485000Y-104140000D02*
X160485000Y-99240000D01*
X160485000Y-65240000D02*
X160335000Y-65090000D01*
X209389582Y-75176268D02*
X209355042Y-75210808D01*
X211318917Y-76516290D02*
X211608482Y-76516290D01*
X210820000Y-75176268D02*
X209389582Y-75176268D01*
X161520500Y-117275500D02*
X160335000Y-116090000D01*
X207828700Y-76514968D02*
X211317595Y-76514968D01*
X211801036Y-62486118D02*
X164054541Y-62486118D01*
X160335000Y-82090000D02*
X160485000Y-81940000D01*
X211317595Y-76514968D02*
X211318917Y-76516290D01*
X207650000Y-75236268D02*
X208150000Y-74736268D01*
X160485000Y-99240000D02*
X160335000Y-99090000D01*
X160485000Y-81940000D02*
X160485000Y-65240000D01*
X160485000Y-82240000D02*
X160335000Y-82090000D01*
X206550000Y-75236268D02*
X207828700Y-76514968D01*
X206550000Y-75236268D02*
X207650000Y-75236268D01*
X212910000Y-63595082D02*
X211801036Y-62486118D01*
X161520500Y-119380000D02*
X161520500Y-117275500D01*
X211068752Y-146382805D02*
X211068752Y-147568752D01*
X160335000Y-114615000D02*
X160485000Y-114465000D01*
X160335000Y-116090000D02*
X160335000Y-114615000D01*
X160485000Y-86360000D02*
X160485000Y-82240000D01*
X160485000Y-98940000D02*
X160485000Y-86360000D01*
X160485000Y-114465000D02*
X160485000Y-104140000D01*
X163036894Y-62388106D02*
X163793177Y-62388106D01*
X160335000Y-65090000D02*
X163036894Y-62388106D01*
%TO.N,Col3*%
X192039976Y-139456897D02*
X192039976Y-140840328D01*
X206550000Y-77786268D02*
X207850000Y-77786268D01*
X207850000Y-77786268D02*
X208250000Y-77386268D01*
X211629329Y-79054968D02*
X211629717Y-79054580D01*
X142335000Y-113590000D02*
X144839295Y-116094295D01*
X213360000Y-77561914D02*
X213360000Y-63408686D01*
X142485000Y-123927571D02*
X142485000Y-113740000D01*
X210820000Y-77716268D02*
X209499582Y-77716268D01*
X211629717Y-79054580D02*
X211867334Y-79054580D01*
X142335000Y-79590000D02*
X142485000Y-79740000D01*
X211712432Y-61761118D02*
X212135657Y-62184343D01*
X149380860Y-61761118D02*
X211712432Y-61761118D01*
X142335000Y-113590000D02*
X142485000Y-113440000D01*
X213360000Y-63408686D02*
X212135657Y-62184343D01*
X209499582Y-77716268D02*
X209355042Y-77860808D01*
X194493410Y-143293762D02*
X195449317Y-143293762D01*
X158746741Y-130865345D02*
X156146396Y-128265000D01*
X144839295Y-116094295D02*
X146008005Y-116094295D01*
X145037240Y-82292240D02*
X145760117Y-82292240D01*
X207818700Y-79054968D02*
X211629329Y-79054968D01*
X142335000Y-96590000D02*
X144807108Y-94117892D01*
X142485000Y-79440000D02*
X142335000Y-79590000D01*
X142335000Y-79590000D02*
X145037240Y-82292240D01*
X142335000Y-62590000D02*
X145084403Y-65339403D01*
X142485000Y-96740000D02*
X142335000Y-96590000D01*
X206550000Y-77786268D02*
X207818700Y-79054968D01*
X142335000Y-62590000D02*
X142485000Y-62740000D01*
X144807108Y-94117892D02*
X145703080Y-94117892D01*
X142485000Y-113440000D02*
X142485000Y-96740000D01*
X156146396Y-128265000D02*
X146822429Y-128265000D01*
X145084403Y-65339403D02*
X145802575Y-65339403D01*
X142485000Y-79740000D02*
X142485000Y-90899812D01*
X211867334Y-79054580D02*
X213360000Y-77561914D01*
X142485000Y-62740000D02*
X142485000Y-79440000D01*
X192039976Y-139456897D02*
X191025708Y-138442629D01*
X191025708Y-138442629D02*
X179082629Y-138442629D01*
X171505345Y-130865345D02*
X158746741Y-130865345D01*
X192039976Y-140840328D02*
X194493410Y-143293762D01*
X142485000Y-90899812D02*
X145703080Y-94117892D01*
X145802575Y-65339403D02*
X149380860Y-61761118D01*
X146822429Y-128265000D02*
X142485000Y-123927571D01*
X142485000Y-113740000D02*
X142335000Y-113590000D01*
X179082629Y-138442629D02*
X171505345Y-130865345D01*
%TO.N,Row0*%
X233832247Y-166812963D02*
X231143153Y-166812963D01*
%TD*%
M02*
