M48
; DRILL file {KiCad 8.0.5} date 2024-12-08T15:47:21-0700
; FORMAT={-:-/ absolute / inch / decimal}
; #@! TF.CreationDate,2024-12-08T15:47:21-07:00
; #@! TF.GenerationSoftware,Kicad,Pcbnew,8.0.5
; #@! TF.FileFunction,NonPlated,1,2,NPTH
FMAT,2
INCH
; #@! TA.AperFunction,NonPlated,NPTH,ComponentDrill
T1C0.0591
; #@! TA.AperFunction,NonPlated,NPTH,ComponentDrill
T2C0.0670
; #@! TA.AperFunction,NonPlated,NPTH,ComponentDrill
T3C0.0827
; #@! TA.AperFunction,NonPlated,NPTH,ComponentDrill
T4C0.1181
; #@! TA.AperFunction,NonPlated,NPTH,ComponentDrill
T5C0.1350
%
G90
G05
T1
X8.2463Y-3.9126
X8.2463Y-4.0031
X8.5219Y-3.9126
X8.5219Y-4.0031
T2
X3.3902Y-2.9937
X3.3902Y-3.663
X3.3902Y-4.3323
X3.3902Y-5.0016
X3.8232Y-2.9937
X3.8232Y-3.663
X3.8232Y-4.3323
X3.8232Y-5.0016
X4.0988Y-2.9937
X4.0988Y-3.663
X4.0988Y-4.3323
X4.0988Y-5.0016
X4.5319Y-2.9937
X4.5319Y-3.663
X4.5319Y-4.3323
X4.5319Y-5.0016
X4.8075Y-2.7969
X4.8075Y-3.4661
X4.8075Y-4.1354
X4.8075Y-4.8047
X4.8075Y-5.474
X5.2406Y-2.7969
X5.2406Y-3.4661
X5.2406Y-4.1354
X5.2406Y-4.8047
X5.2406Y-5.474
X5.5161Y-2.6984
X5.5161Y-3.3677
X5.5161Y-4.037
X5.5161Y-4.7063
X5.5161Y-5.3756
X5.9492Y-2.6984
X5.9492Y-3.3677
X5.9492Y-4.037
X5.9492Y-4.7063
X5.9492Y-5.3756
X6.2248Y-2.7969
X6.2248Y-3.4661
X6.2248Y-4.1354
X6.2248Y-4.8047
X6.2248Y-5.474
X6.6579Y-2.7969
X6.6579Y-3.4661
X6.6579Y-4.1354
X6.6579Y-4.8047
X6.6579Y-5.474
X6.9335Y-2.8953
X6.9335Y-3.5646
X6.9335Y-4.2339
X6.9335Y-4.9031
X7.3665Y-2.8953
X7.3665Y-3.5646
X7.3665Y-4.2339
X7.3665Y-4.9031
X7.3982Y-5.6806
X7.8051Y-5.8287
X7.9474Y-5.0533
X8.1474Y-5.9533
X8.3543Y-5.2014
X8.5543Y-6.1014
X8.6965Y-5.3259
X8.8965Y-6.2259
X9.1035Y-5.4741
X9.3035Y-6.3741
T3
X3.3905Y-2.5631
X3.625Y-5.45
X6.425Y-6.0
X6.8639Y-2.2864
X7.9546Y-4.1577
X8.0395Y-2.5487
X8.6Y-6.525
X9.5Y-5.6
T4
X3.4098Y-2.8461
X3.4098Y-3.5154
X3.4098Y-4.1846
X3.4098Y-4.8539
X3.6067Y-2.7594
X3.6067Y-3.4287
X3.6067Y-4.098
X3.6067Y-4.7673
X3.8035Y-2.8461
X3.8035Y-3.5154
X3.8035Y-4.1846
X3.8035Y-4.8539
X4.1185Y-2.8461
X4.1185Y-3.5154
X4.1185Y-4.1846
X4.1185Y-4.8539
X4.3154Y-2.7594
X4.3154Y-3.4287
X4.3154Y-4.098
X4.3154Y-4.7673
X4.5122Y-2.8461
X4.5122Y-3.5154
X4.5122Y-4.1846
X4.5122Y-4.8539
X4.8272Y-2.6492
X4.8272Y-3.3185
X4.8272Y-3.9878
X4.8272Y-4.6571
X4.8272Y-5.3264
X5.024Y-2.5626
X5.024Y-3.2319
X5.024Y-3.9012
X5.024Y-4.5705
X5.024Y-5.2398
X5.2209Y-2.6492
X5.2209Y-3.3185
X5.2209Y-3.9878
X5.2209Y-4.6571
X5.2209Y-5.3264
X5.5358Y-2.5508
X5.5358Y-3.2201
X5.5358Y-3.8894
X5.5358Y-4.5587
X5.5358Y-5.228
X5.7327Y-2.4642
X5.7327Y-3.1335
X5.7327Y-3.8028
X5.7327Y-4.472
X5.7327Y-5.1413
X5.9295Y-2.5508
X5.9295Y-3.2201
X5.9295Y-3.8894
X5.9295Y-4.5587
X5.9295Y-5.228
X6.2445Y-2.6492
X6.2445Y-3.3185
X6.2445Y-3.9878
X6.2445Y-4.6571
X6.2445Y-5.3264
X6.4413Y-2.5626
X6.4413Y-3.2319
X6.4413Y-3.9012
X6.4413Y-4.5705
X6.4413Y-5.2398
X6.6382Y-2.6492
X6.6382Y-3.3185
X6.6382Y-3.9878
X6.6382Y-4.6571
X6.6382Y-5.3264
X6.9531Y-2.7476
X6.9531Y-3.4169
X6.9531Y-4.0862
X6.9531Y-4.7555
X7.15Y-2.661
X7.15Y-3.3303
X7.15Y-3.9996
X7.15Y-4.6689
X7.3469Y-2.7476
X7.3469Y-3.4169
X7.3469Y-4.0862
X7.3469Y-4.7555
X7.4672Y-5.5486
X7.6818Y-5.5345
X7.8371Y-5.6832
X8.0164Y-4.9213
X8.2164Y-5.8213
X8.231Y-4.9072
X8.3863Y-5.0559
X8.431Y-5.8072
X8.5863Y-5.9559
X8.7655Y-5.1939
X8.9655Y-6.0939
X8.9801Y-5.1799
X9.1355Y-5.3286
X9.1801Y-6.0799
X9.3355Y-6.2286
T5
X3.6067Y-2.9937
X3.6067Y-3.663
X3.6067Y-4.3323
X3.6067Y-5.0016
X4.3154Y-2.9937
X4.3154Y-3.663
X4.3154Y-4.3323
X4.3154Y-5.0016
X5.024Y-2.7969
X5.024Y-3.4661
X5.024Y-4.1354
X5.024Y-4.8047
X5.024Y-5.474
X5.7327Y-2.6984
X5.7327Y-3.3677
X5.7327Y-4.037
X5.7327Y-4.7063
X5.7327Y-5.3756
X6.4413Y-2.7969
X6.4413Y-3.4661
X6.4413Y-4.1354
X6.4413Y-4.8047
X6.4413Y-5.474
X7.15Y-2.8953
X7.15Y-3.5646
X7.15Y-4.2339
X7.15Y-4.9031
X7.6017Y-5.7547
X8.1508Y-5.1273
X8.3508Y-6.0273
X8.9Y-5.4
X9.1Y-6.3
M30
