%TF.GenerationSoftware,KiCad,Pcbnew,8.0.5*%
%TF.CreationDate,2024-12-08T15:47:29-07:00*%
%TF.ProjectId,Split V2,53706c69-7420-4563-922e-6b696361645f,rev?*%
%TF.SameCoordinates,Original*%
%TF.FileFunction,Paste,Top*%
%TF.FilePolarity,Positive*%
%FSLAX46Y46*%
G04 Gerber Fmt 4.6, Leading zero omitted, Abs format (unit mm)*
G04 Created by KiCad (PCBNEW 8.0.5) date 2024-12-08 15:47:29*
%MOMM*%
%LPD*%
G01*
G04 APERTURE LIST*
G04 Aperture macros list*
%AMRoundRect*
0 Rectangle with rounded corners*
0 $1 Rounding radius*
0 $2 $3 $4 $5 $6 $7 $8 $9 X,Y pos of 4 corners*
0 Add a 4 corners polygon primitive as box body*
4,1,4,$2,$3,$4,$5,$6,$7,$8,$9,$2,$3,0*
0 Add four circle primitives for the rounded corners*
1,1,$1+$1,$2,$3*
1,1,$1+$1,$4,$5*
1,1,$1+$1,$6,$7*
1,1,$1+$1,$8,$9*
0 Add four rect primitives between the rounded corners*
20,1,$1+$1,$2,$3,$4,$5,0*
20,1,$1+$1,$4,$5,$6,$7,0*
20,1,$1+$1,$6,$7,$8,$9,0*
20,1,$1+$1,$8,$9,$2,$3,0*%
%AMRotRect*
0 Rectangle, with rotation*
0 The origin of the aperture is its center*
0 $1 length*
0 $2 width*
0 $3 Rotation angle, in degrees counterclockwise*
0 Add horizontal line*
21,1,$1,$2,0,0,$3*%
%AMFreePoly0*
4,1,6,-0.054118,0.683245,0.636958,0.066744,-0.054118,-0.566755,-0.273003,-0.563966,-0.269411,0.686099,-0.054118,0.683245,-0.054118,0.683245,$1*%
%AMFreePoly1*
4,1,6,0.394834,-1.028090,-0.855166,-1.028090,-0.164090,-0.411589,-0.855166,0.221910,0.394834,0.221910,0.394834,-1.028090,0.394834,-1.028090,$1*%
%AMFreePoly2*
4,1,6,0.164090,-0.411589,0.855166,-1.028090,-0.394834,-1.028090,-0.394834,0.221910,0.855166,0.221910,0.164090,-0.411589,0.164090,-0.411589,$1*%
G04 Aperture macros list end*
%ADD10RoundRect,0.225000X0.375000X-0.225000X0.375000X0.225000X-0.375000X0.225000X-0.375000X-0.225000X0*%
%ADD11R,2.600000X2.600000*%
%ADD12RotRect,2.600000X2.600000X340.000000*%
%ADD13FreePoly0,0.000000*%
%ADD14FreePoly1,180.000000*%
%ADD15FreePoly2,0.000000*%
%ADD16FreePoly1,0.000000*%
%ADD17FreePoly0,180.000000*%
%ADD18FreePoly2,180.000000*%
%ADD19RoundRect,0.225000X0.275430X-0.339688X0.429339X0.083173X-0.275430X0.339688X-0.429339X-0.083173X0*%
G04 APERTURE END LIST*
D10*
%TO.C,DX3\u002CY2*%
X132601803Y-93633910D03*
X132601803Y-90333910D03*
%TD*%
%TO.C,DX1\u002CY5*%
X186734423Y-130112226D03*
X186734423Y-126812226D03*
%TD*%
D11*
%TO.C,SWX1\u002CY0*%
X94885000Y-121090000D03*
X83335000Y-123290000D03*
%TD*%
D10*
%TO.C,DX3\u002CY3*%
X150762593Y-91086970D03*
X150762593Y-87786970D03*
%TD*%
D11*
%TO.C,SWX4\u002CY0*%
X94885000Y-70090000D03*
X83335000Y-72290000D03*
%TD*%
%TO.C,SWX1\u002CY5*%
X184885000Y-118590000D03*
X173335000Y-120790000D03*
%TD*%
%TO.C,SWX1\u002CY4*%
X166885000Y-116090000D03*
X155335000Y-118290000D03*
%TD*%
D10*
%TO.C,DX2\u002CY2*%
X132211251Y-110611614D03*
X132211251Y-107311614D03*
%TD*%
D12*
%TO.C,SWX0\u002CY3*%
X198194962Y-141697129D03*
X186589068Y-139814120D03*
%TD*%
D10*
%TO.C,DX1\u002CY0*%
X96568428Y-132726583D03*
X96568428Y-129426583D03*
%TD*%
D11*
%TO.C,SWX3\u002CY1*%
X112885000Y-87090000D03*
X101335000Y-89290000D03*
%TD*%
D10*
%TO.C,DX4\u002CY2*%
X132656338Y-76671168D03*
X132656338Y-73371168D03*
%TD*%
%TO.C,DX4\u002CY3*%
X150669480Y-74050404D03*
X150669480Y-70750404D03*
%TD*%
D13*
%TO.C,ProMicro1*%
X197110938Y-70059009D03*
D14*
X208200000Y-70536268D03*
D13*
X197000000Y-72736268D03*
D14*
X208200000Y-73186268D03*
D13*
X197000000Y-75286268D03*
D15*
X208150000Y-74736268D03*
D13*
X197000000Y-77736268D03*
D15*
X208250000Y-77386268D03*
D16*
X198046592Y-77232348D03*
D17*
X209350000Y-77736268D03*
D16*
X198046592Y-74832348D03*
D17*
X209350000Y-75086268D03*
D18*
X198050000Y-73086268D03*
D17*
X209300000Y-72686268D03*
D18*
X198193063Y-70388482D03*
D17*
X209300000Y-70086268D03*
%TD*%
D10*
%TO.C,DX3\u002CY4*%
X168517350Y-93412437D03*
X168517350Y-90112437D03*
%TD*%
D19*
%TO.C,DX0\u002CY5*%
X233833395Y-166809810D03*
X234962061Y-163708824D03*
%TD*%
D10*
%TO.C,DX1\u002CY1*%
X114009430Y-132615847D03*
X114009430Y-129315847D03*
%TD*%
D19*
%TO.C,DMR1*%
X228735487Y-143936229D03*
X229864153Y-140835243D03*
%TD*%
%TO.C,DX0\u002CY4*%
X214786712Y-159870321D03*
X215915378Y-156769335D03*
%TD*%
D10*
%TO.C,DX1\u002CY3*%
X150802734Y-125265948D03*
X150802734Y-121965948D03*
%TD*%
%TO.C,DX4\u002CY1*%
X114310987Y-81617400D03*
X114310987Y-78317400D03*
%TD*%
D11*
%TO.C,SWX3\u002CY2*%
X130885000Y-82090000D03*
X119335000Y-84290000D03*
%TD*%
%TO.C,SWX4\u002CY3*%
X148885000Y-62590000D03*
X137335000Y-64790000D03*
%TD*%
D10*
%TO.C,DX2\u002CY4*%
X168532832Y-110574702D03*
X168532832Y-107274702D03*
%TD*%
D11*
%TO.C,SWX2\u002CY2*%
X130885000Y-99090000D03*
X119335000Y-101290000D03*
%TD*%
D10*
%TO.C,DX4\u002CY5*%
X186326641Y-79255020D03*
X186326641Y-75955020D03*
%TD*%
D11*
%TO.C,SWX0\u002CY0*%
X130885000Y-133090000D03*
X119335000Y-135290000D03*
%TD*%
D10*
%TO.C,DX1\u002CY4*%
X168803195Y-127689087D03*
X168803195Y-124389087D03*
%TD*%
%TO.C,DX3\u002CY0*%
X96612432Y-98617053D03*
X96612432Y-95317053D03*
%TD*%
D11*
%TO.C,SWX3\u002CY4*%
X166885000Y-82090000D03*
X155335000Y-84290000D03*
%TD*%
%TO.C,SWX2\u002CY5*%
X184885000Y-101590000D03*
X173335000Y-103790000D03*
%TD*%
D10*
%TO.C,DX3\u002CY1*%
X114256452Y-98653966D03*
X114256452Y-95353966D03*
%TD*%
D11*
%TO.C,SWX2\u002CY1*%
X112885000Y-104090000D03*
X101335000Y-106290000D03*
%TD*%
D19*
%TO.C,DX0\u002CY3*%
X195397269Y-152967652D03*
X196525935Y-149866666D03*
%TD*%
D11*
%TO.C,SWX1\u002CY3*%
X148885000Y-113590000D03*
X137335000Y-115790000D03*
%TD*%
D10*
%TO.C,DX0\u002CY2*%
X168381064Y-144686128D03*
X168381064Y-141386128D03*
%TD*%
D11*
%TO.C,SWX2\u002CY4*%
X166885000Y-99090000D03*
X155335000Y-101290000D03*
%TD*%
%TO.C,SWX1\u002CY2*%
X130885000Y-116090000D03*
X119335000Y-118290000D03*
%TD*%
D10*
%TO.C,DX3\u002CY5*%
X186899613Y-96143938D03*
X186899613Y-92843938D03*
%TD*%
%TO.C,DX4\u002CY0*%
X96703880Y-81691224D03*
X96703880Y-78391224D03*
%TD*%
D12*
%TO.C,SWML1*%
X212143737Y-125763037D03*
X200537843Y-123880028D03*
%TD*%
D11*
%TO.C,SWX0\u002CY1*%
X148885000Y-130590000D03*
X137335000Y-132790000D03*
%TD*%
D19*
%TO.C,DML1*%
X209346044Y-137033560D03*
X210474710Y-133932574D03*
%TD*%
D11*
%TO.C,SWX4\u002CY4*%
X166885000Y-65090000D03*
X155335000Y-67290000D03*
%TD*%
D12*
%TO.C,SWX0\u002CY4*%
X205617844Y-146740028D03*
X217223738Y-148623037D03*
%TD*%
D11*
%TO.C,SWX2\u002CY3*%
X148885000Y-96590000D03*
X137335000Y-98790000D03*
%TD*%
%TO.C,SWX3\u002CY3*%
X148885000Y-79590000D03*
X137335000Y-81790000D03*
%TD*%
%TO.C,SWX0\u002CY2*%
X166885000Y-133090000D03*
X155335000Y-135290000D03*
%TD*%
%TO.C,SWX1\u002CY1*%
X112885000Y-121090000D03*
X101335000Y-123290000D03*
%TD*%
D10*
%TO.C,DX1\u002CY2*%
X132525342Y-127689087D03*
X132525342Y-124389087D03*
%TD*%
D11*
%TO.C,SWX4\u002CY5*%
X184885000Y-67590000D03*
X173335000Y-69790000D03*
%TD*%
D10*
%TO.C,DX2\u002CY0*%
X96184969Y-115631670D03*
X96184969Y-112331670D03*
%TD*%
D11*
%TO.C,SWX3\u002CY0*%
X94885000Y-87090000D03*
X83335000Y-89290000D03*
%TD*%
D10*
%TO.C,DX2\u002CY5*%
X186582733Y-113250911D03*
X186582733Y-109950911D03*
%TD*%
%TO.C,DX2\u002CY1*%
X114382671Y-115668582D03*
X114382671Y-112368582D03*
%TD*%
D11*
%TO.C,SWX4\u002CY1*%
X112885000Y-70090000D03*
X101335000Y-72290000D03*
%TD*%
D10*
%TO.C,DX0\u002CY0*%
X132668535Y-144630760D03*
X132668535Y-141330760D03*
%TD*%
D11*
%TO.C,SWX3\u002CY5*%
X184885000Y-84590000D03*
X173335000Y-86790000D03*
%TD*%
D10*
%TO.C,DX2\u002CY3*%
X150704251Y-108053335D03*
X150704251Y-104753335D03*
%TD*%
D11*
%TO.C,SWX2\u002CY0*%
X94885000Y-104090000D03*
X83335000Y-106290000D03*
%TD*%
D10*
%TO.C,DX4\u002CY4*%
X168719533Y-76560432D03*
X168719533Y-73260432D03*
%TD*%
%TO.C,DX0\u002CY1*%
X149943433Y-141973083D03*
X149943433Y-138673083D03*
%TD*%
D11*
%TO.C,SWX4\u002CY2*%
X130885000Y-65090000D03*
X119335000Y-67290000D03*
%TD*%
D12*
%TO.C,SWX0\u002CY5*%
X236252513Y-155548945D03*
X224646619Y-153665936D03*
%TD*%
%TO.C,SWMR1*%
X231172513Y-132688945D03*
X219566619Y-130805936D03*
%TD*%
M02*
