%TF.GenerationSoftware,KiCad,Pcbnew,8.0.5*%
%TF.CreationDate,2024-12-08T15:47:30-07:00*%
%TF.ProjectId,Split V2,53706c69-7420-4563-922e-6b696361645f,rev?*%
%TF.SameCoordinates,Original*%
%TF.FileFunction,Soldermask,Bot*%
%TF.FilePolarity,Negative*%
%FSLAX46Y46*%
G04 Gerber Fmt 4.6, Leading zero omitted, Abs format (unit mm)*
G04 Created by KiCad (PCBNEW 8.0.5) date 2024-12-08 15:47:30*
%MOMM*%
%LPD*%
G01*
G04 APERTURE LIST*
G04 Aperture macros list*
%AMRoundRect*
0 Rectangle with rounded corners*
0 $1 Rounding radius*
0 $2 $3 $4 $5 $6 $7 $8 $9 X,Y pos of 4 corners*
0 Add a 4 corners polygon primitive as box body*
4,1,4,$2,$3,$4,$5,$6,$7,$8,$9,$2,$3,0*
0 Add four circle primitives for the rounded corners*
1,1,$1+$1,$2,$3*
1,1,$1+$1,$4,$5*
1,1,$1+$1,$6,$7*
1,1,$1+$1,$8,$9*
0 Add four rect primitives between the rounded corners*
20,1,$1+$1,$2,$3,$4,$5,0*
20,1,$1+$1,$4,$5,$6,$7,0*
20,1,$1+$1,$6,$7,$8,$9,0*
20,1,$1+$1,$8,$9,$2,$3,0*%
%AMFreePoly0*
4,1,16,0.304295,0.721920,0.319407,0.686762,0.319411,0.686243,0.323003,-0.563822,0.308460,-0.599220,0.273640,-0.613962,0.054755,-0.616751,0.020331,-0.603612,-0.670745,0.029887,-0.686911,0.064573,-0.673815,0.100531,-0.670243,0.104055,0.020833,0.720556,0.053455,0.733241,0.268748,0.736095,0.304295,0.721920,0.304295,0.721920,$1*%
%AMFreePoly1*
4,1,18,0.890521,0.257265,0.905166,0.221910,0.890521,0.186555,0.888953,0.185053,0.238633,-0.411084,0.888451,-0.990779,0.905085,-1.025243,0.892477,-1.061375,0.858013,-1.078009,0.855166,-1.078090,-0.394834,-1.078090,-0.430189,-1.063445,-0.444834,-1.028090,-0.444834,0.221910,-0.430189,0.257265,-0.394834,0.271910,0.855166,0.271910,0.890521,0.257265,0.890521,0.257265,$1*%
G04 Aperture macros list end*
%ADD10RoundRect,0.250000X0.400000X-0.250000X0.400000X0.250000X-0.400000X0.250000X-0.400000X-0.250000X0*%
%ADD11C,1.801800*%
%ADD12C,3.100000*%
%ADD13C,3.529000*%
%ADD14RoundRect,0.050000X-1.300000X-1.300000X1.300000X-1.300000X1.300000X1.300000X-1.300000X1.300000X0*%
%ADD15C,1.624000*%
%ADD16C,2.200000*%
%ADD17RoundRect,0.050000X-1.666227X-0.776974X0.776974X-1.666227X1.666227X0.776974X-0.776974X1.666227X0*%
%ADD18FreePoly0,180.000000*%
%ADD19FreePoly1,180.000000*%
%ADD20C,0.900000*%
%ADD21FreePoly1,0.000000*%
%ADD22FreePoly0,0.000000*%
%ADD23RoundRect,0.250000X0.290372X-0.371731X0.461382X0.098115X-0.290372X0.371731X-0.461382X-0.098115X0*%
%ADD24C,1.600000*%
%ADD25O,2.300000X1.700000*%
G04 APERTURE END LIST*
D10*
%TO.C,DX3\u002CY2*%
X132601803Y-93637266D03*
X132601803Y-90334201D03*
%TD*%
%TO.C,DX1\u002CY5*%
X186734423Y-130115582D03*
X186734423Y-126812517D03*
%TD*%
D11*
%TO.C,SWX1\u002CY0*%
X86110000Y-127040000D03*
D12*
X86610000Y-123290000D03*
X91610000Y-121090000D03*
D13*
X91610000Y-127040000D03*
D12*
X96610000Y-123290000D03*
D11*
X97110000Y-127040000D03*
D14*
X88335000Y-121090000D03*
X99885000Y-123290000D03*
%TD*%
D10*
%TO.C,DX3\u002CY3*%
X150762593Y-91090326D03*
X150762593Y-87787261D03*
%TD*%
D11*
%TO.C,SWX4\u002CY0*%
X86110000Y-76040000D03*
D12*
X86610000Y-72290000D03*
X91610000Y-70090000D03*
D13*
X91610000Y-76040000D03*
D12*
X96610000Y-72290000D03*
D11*
X97110000Y-76040000D03*
D14*
X88335000Y-70090000D03*
X99885000Y-72290000D03*
%TD*%
D15*
%TO.C,Joystick1*%
X194500629Y-125059163D03*
X205350629Y-114209163D03*
X194500629Y-123059163D03*
X203350629Y-114209163D03*
X194500629Y-121059163D03*
X201350629Y-114209163D03*
%TD*%
D16*
%TO.C,REF\u002A\u002A*%
X174342576Y-58074257D03*
%TD*%
D11*
%TO.C,SWX1\u002CY5*%
X176110000Y-124540000D03*
D12*
X176610000Y-120790000D03*
X181610000Y-118590000D03*
D13*
X181610000Y-124540000D03*
D12*
X186610000Y-120790000D03*
D11*
X187110000Y-124540000D03*
D14*
X178335000Y-118590000D03*
X189885000Y-120790000D03*
%TD*%
D11*
%TO.C,SWX1\u002CY4*%
X158110000Y-122040000D03*
D12*
X158610000Y-118290000D03*
X163610000Y-116090000D03*
D13*
X163610000Y-122040000D03*
D12*
X168610000Y-118290000D03*
D11*
X169110000Y-122040000D03*
D14*
X160335000Y-116090000D03*
X171885000Y-118290000D03*
%TD*%
D10*
%TO.C,DX2\u002CY2*%
X132211251Y-110614970D03*
X132211251Y-107311905D03*
%TD*%
D11*
%TO.C,SWX0\u002CY3*%
X187914140Y-144287073D03*
D12*
X189666561Y-140934236D03*
X195117469Y-140577013D03*
D13*
X193082449Y-146168184D03*
D12*
X199063488Y-144354437D03*
D11*
X198250758Y-148049295D03*
D17*
X192039976Y-139456897D03*
X202140981Y-145474553D03*
%TD*%
D10*
%TO.C,DX1\u002CY0*%
X96568428Y-132729939D03*
X96568428Y-129426874D03*
%TD*%
D11*
%TO.C,SWX3\u002CY1*%
X104110000Y-93040000D03*
D12*
X104610000Y-89290000D03*
X109610000Y-87090000D03*
D13*
X109610000Y-93040000D03*
D12*
X114610000Y-89290000D03*
D11*
X115110000Y-93040000D03*
D14*
X106335000Y-87090000D03*
X117885000Y-89290000D03*
%TD*%
D16*
%TO.C,REF\u002A\u002A*%
X204203785Y-64736757D03*
%TD*%
D10*
%TO.C,DX4\u002CY2*%
X132656338Y-76674524D03*
X132656338Y-73371459D03*
%TD*%
%TO.C,DX4\u002CY3*%
X150669480Y-74053760D03*
X150669480Y-70750695D03*
%TD*%
D18*
%TO.C,ProMicro1*%
X197105896Y-69934469D03*
D19*
X198194612Y-70398954D03*
D20*
X199486417Y-69986269D03*
D18*
X196994958Y-72611728D03*
D19*
X198050000Y-73086268D03*
D20*
X199450000Y-72636268D03*
D18*
X196994958Y-75161728D03*
D19*
X198050000Y-75636268D03*
D20*
X199450000Y-75286268D03*
D18*
X196994958Y-77611728D03*
D19*
X198050000Y-78036268D03*
D20*
X199500000Y-77736268D03*
X206550000Y-77786268D03*
D21*
X208250000Y-77386268D03*
D22*
X209355042Y-77860808D03*
D20*
X206550000Y-75236268D03*
D21*
X208150000Y-74736268D03*
D22*
X209355042Y-75210808D03*
D20*
X206550000Y-72636268D03*
D21*
X208196592Y-72382348D03*
D22*
X209297464Y-72810826D03*
D20*
X206550000Y-70186268D03*
D21*
X208196592Y-69732348D03*
D22*
X209305042Y-70210808D03*
%TD*%
D10*
%TO.C,DX3\u002CY4*%
X168517350Y-93415793D03*
X168517350Y-90112728D03*
%TD*%
D23*
%TO.C,DX0\u002CY5*%
X233832247Y-166812963D03*
X234961962Y-163709098D03*
%TD*%
D10*
%TO.C,DX1\u002CY1*%
X114009430Y-132619203D03*
X114009430Y-129316138D03*
%TD*%
D23*
%TO.C,DMR1*%
X228734339Y-143939382D03*
X229864054Y-140835517D03*
%TD*%
%TO.C,DX0\u002CY4*%
X214785564Y-159873474D03*
X215915279Y-156769609D03*
%TD*%
D10*
%TO.C,DX1\u002CY3*%
X150802734Y-125269304D03*
X150802734Y-121966239D03*
%TD*%
%TO.C,DX4\u002CY1*%
X114310987Y-81620756D03*
X114310987Y-78317691D03*
%TD*%
D11*
%TO.C,SWX3\u002CY2*%
X122110000Y-88040000D03*
D12*
X122610000Y-84290000D03*
X127610000Y-82090000D03*
D13*
X127610000Y-88040000D03*
D12*
X132610000Y-84290000D03*
D11*
X133110000Y-88040000D03*
D14*
X124335000Y-82090000D03*
X135885000Y-84290000D03*
%TD*%
D11*
%TO.C,SWX4\u002CY3*%
X140110000Y-68540000D03*
D12*
X140610000Y-64790000D03*
X145610000Y-62590000D03*
D13*
X145610000Y-68540000D03*
D12*
X150610000Y-64790000D03*
D11*
X151110000Y-68540000D03*
D14*
X142335000Y-62590000D03*
X153885000Y-64790000D03*
%TD*%
D10*
%TO.C,DX2\u002CY4*%
X168532832Y-110578058D03*
X168532832Y-107274993D03*
%TD*%
D11*
%TO.C,SWX2\u002CY2*%
X122110000Y-105040000D03*
D12*
X122610000Y-101290000D03*
X127610000Y-99090000D03*
D13*
X127610000Y-105040000D03*
D12*
X132610000Y-101290000D03*
D11*
X133110000Y-105040000D03*
D14*
X124335000Y-99090000D03*
X135885000Y-101290000D03*
%TD*%
D10*
%TO.C,DX4\u002CY5*%
X186326641Y-79258376D03*
X186326641Y-75955311D03*
%TD*%
D16*
%TO.C,REF\u002A\u002A*%
X218440000Y-165735000D03*
%TD*%
D11*
%TO.C,SWX0\u002CY0*%
X122110000Y-139040000D03*
D12*
X122610000Y-135290000D03*
X127610000Y-133090000D03*
D13*
X127610000Y-139040000D03*
D12*
X132610000Y-135290000D03*
D11*
X133110000Y-139040000D03*
D14*
X124335000Y-133090000D03*
X135885000Y-135290000D03*
%TD*%
D24*
%TO.C,J1*%
X216455848Y-99379405D03*
X209455848Y-99379405D03*
X216455848Y-101679405D03*
X209455848Y-101679405D03*
D25*
X206755848Y-99379405D03*
X206755848Y-101679405D03*
X207855848Y-97079405D03*
X207855848Y-103979405D03*
X211855848Y-97079405D03*
X211855848Y-103979405D03*
X214855848Y-97079405D03*
X214855848Y-103979405D03*
%TD*%
D10*
%TO.C,DX1\u002CY4*%
X168803195Y-127692443D03*
X168803195Y-124389378D03*
%TD*%
%TO.C,DX3\u002CY0*%
X96612432Y-98620409D03*
X96612432Y-95317344D03*
%TD*%
D11*
%TO.C,SWX3\u002CY4*%
X158110000Y-88040000D03*
D12*
X158610000Y-84290000D03*
X163610000Y-82090000D03*
D13*
X163610000Y-88040000D03*
D12*
X168610000Y-84290000D03*
D11*
X169110000Y-88040000D03*
D14*
X160335000Y-82090000D03*
X171885000Y-84290000D03*
%TD*%
D11*
%TO.C,SWX2\u002CY5*%
X176110000Y-107540000D03*
D12*
X176610000Y-103790000D03*
X181610000Y-101590000D03*
D13*
X181610000Y-107540000D03*
D12*
X186610000Y-103790000D03*
D11*
X187110000Y-107540000D03*
D14*
X178335000Y-101590000D03*
X189885000Y-103790000D03*
%TD*%
D10*
%TO.C,DX3\u002CY1*%
X114256452Y-98657322D03*
X114256452Y-95354257D03*
%TD*%
D11*
%TO.C,SWX2\u002CY1*%
X104110000Y-110040000D03*
D12*
X104610000Y-106290000D03*
X109610000Y-104090000D03*
D13*
X109610000Y-110040000D03*
D12*
X114610000Y-106290000D03*
D11*
X115110000Y-110040000D03*
D14*
X106335000Y-104090000D03*
X117885000Y-106290000D03*
%TD*%
D23*
%TO.C,DX0\u002CY3*%
X195396121Y-152970805D03*
X196525836Y-149866940D03*
%TD*%
D11*
%TO.C,SWX1\u002CY3*%
X140110000Y-119540000D03*
D12*
X140610000Y-115790000D03*
X145610000Y-113590000D03*
D13*
X145610000Y-119540000D03*
D12*
X150610000Y-115790000D03*
D11*
X151110000Y-119540000D03*
D14*
X142335000Y-113590000D03*
X153885000Y-115790000D03*
%TD*%
D16*
%TO.C,REF\u002A\u002A*%
X163195000Y-152400000D03*
%TD*%
D10*
%TO.C,DX0\u002CY2*%
X168381064Y-144689484D03*
X168381064Y-141386419D03*
%TD*%
D11*
%TO.C,SWX2\u002CY4*%
X158110000Y-105040000D03*
D12*
X158610000Y-101290000D03*
X163610000Y-99090000D03*
D13*
X163610000Y-105040000D03*
D12*
X168610000Y-101290000D03*
D11*
X169110000Y-105040000D03*
D14*
X160335000Y-99090000D03*
X171885000Y-101290000D03*
%TD*%
D11*
%TO.C,SWX1\u002CY2*%
X122110000Y-122040000D03*
D12*
X122610000Y-118290000D03*
X127610000Y-116090000D03*
D13*
X127610000Y-122040000D03*
D12*
X132610000Y-118290000D03*
D11*
X133110000Y-122040000D03*
D14*
X124335000Y-116090000D03*
X135885000Y-118290000D03*
%TD*%
D16*
%TO.C,REF\u002A\u002A*%
X202046541Y-105604357D03*
%TD*%
D10*
%TO.C,DX3\u002CY5*%
X186899613Y-96147294D03*
X186899613Y-92844229D03*
%TD*%
%TO.C,DX4\u002CY0*%
X96703880Y-81694580D03*
X96703880Y-78391515D03*
%TD*%
D11*
%TO.C,SWML1*%
X201862915Y-128352981D03*
D12*
X203615336Y-125000144D03*
X209066244Y-124642921D03*
D13*
X207031224Y-130234092D03*
D12*
X213012263Y-128420345D03*
D11*
X212199533Y-132115203D03*
D17*
X205988751Y-123522805D03*
X216089756Y-129540461D03*
%TD*%
D11*
%TO.C,SWX0\u002CY1*%
X140110000Y-136540000D03*
D12*
X140610000Y-132790000D03*
X145610000Y-130590000D03*
D13*
X145610000Y-136540000D03*
D12*
X150610000Y-132790000D03*
D11*
X151110000Y-136540000D03*
D14*
X142335000Y-130590000D03*
X153885000Y-132790000D03*
%TD*%
D23*
%TO.C,DML1*%
X209344896Y-137036713D03*
X210474611Y-133932848D03*
%TD*%
D11*
%TO.C,SWX4\u002CY4*%
X158110000Y-71040000D03*
D12*
X158610000Y-67290000D03*
X163610000Y-65090000D03*
D13*
X163610000Y-71040000D03*
D12*
X168610000Y-67290000D03*
D11*
X169110000Y-71040000D03*
D14*
X160335000Y-65090000D03*
X171885000Y-67290000D03*
%TD*%
D17*
%TO.C,SWX0\u002CY4*%
X221169757Y-152400461D03*
X211068752Y-146382805D03*
D11*
X217279534Y-154975203D03*
D12*
X218092264Y-151280345D03*
D13*
X212111225Y-153094092D03*
D12*
X214146245Y-147502921D03*
X208695337Y-147860144D03*
D11*
X206942916Y-151212981D03*
%TD*%
%TO.C,SWX2\u002CY3*%
X140110000Y-102540000D03*
D12*
X140610000Y-98790000D03*
X145610000Y-96590000D03*
D13*
X145610000Y-102540000D03*
D12*
X150610000Y-98790000D03*
D11*
X151110000Y-102540000D03*
D14*
X142335000Y-96590000D03*
X153885000Y-98790000D03*
%TD*%
D11*
%TO.C,SWX3\u002CY3*%
X140110000Y-85540000D03*
D12*
X140610000Y-81790000D03*
X145610000Y-79590000D03*
D13*
X145610000Y-85540000D03*
D12*
X150610000Y-81790000D03*
D11*
X151110000Y-85540000D03*
D14*
X142335000Y-79590000D03*
X153885000Y-81790000D03*
%TD*%
D11*
%TO.C,SWX0\u002CY2*%
X158110000Y-139040000D03*
D12*
X158610000Y-135290000D03*
X163610000Y-133090000D03*
D13*
X163610000Y-139040000D03*
D12*
X168610000Y-135290000D03*
D11*
X169110000Y-139040000D03*
D14*
X160335000Y-133090000D03*
X171885000Y-135290000D03*
%TD*%
D11*
%TO.C,SWX1\u002CY1*%
X104110000Y-127040000D03*
D12*
X104610000Y-123290000D03*
X109610000Y-121090000D03*
D13*
X109610000Y-127040000D03*
D12*
X114610000Y-123290000D03*
D11*
X115110000Y-127040000D03*
D14*
X106335000Y-121090000D03*
X117885000Y-123290000D03*
%TD*%
D10*
%TO.C,DX1\u002CY2*%
X132525342Y-127692443D03*
X132525342Y-124389378D03*
%TD*%
D11*
%TO.C,SWX4\u002CY5*%
X176110000Y-73540000D03*
D12*
X176610000Y-69790000D03*
X181610000Y-67590000D03*
D13*
X181610000Y-73540000D03*
D12*
X186610000Y-69790000D03*
D11*
X187110000Y-73540000D03*
D14*
X178335000Y-67590000D03*
X189885000Y-69790000D03*
%TD*%
D16*
%TO.C,REF\u002A\u002A*%
X241300000Y-142240000D03*
%TD*%
D10*
%TO.C,DX2\u002CY0*%
X96184969Y-115635026D03*
X96184969Y-112331961D03*
%TD*%
D11*
%TO.C,SWX3\u002CY0*%
X86110000Y-93040000D03*
D12*
X86610000Y-89290000D03*
X91610000Y-87090000D03*
D13*
X91610000Y-93040000D03*
D12*
X96610000Y-89290000D03*
D11*
X97110000Y-93040000D03*
D14*
X88335000Y-87090000D03*
X99885000Y-89290000D03*
%TD*%
D10*
%TO.C,DX2\u002CY5*%
X186582733Y-113254267D03*
X186582733Y-109951202D03*
%TD*%
D16*
%TO.C,REF\u002A\u002A*%
X86119409Y-65103368D03*
%TD*%
%TO.C,REF\u002A\u002A*%
X92075000Y-138430000D03*
%TD*%
D10*
%TO.C,DX2\u002CY1*%
X114382671Y-115671938D03*
X114382671Y-112368873D03*
%TD*%
D11*
%TO.C,SWX4\u002CY1*%
X104110000Y-76040000D03*
D12*
X104610000Y-72290000D03*
X109610000Y-70090000D03*
D13*
X109610000Y-76040000D03*
D12*
X114610000Y-72290000D03*
D11*
X115110000Y-76040000D03*
D14*
X106335000Y-70090000D03*
X117885000Y-72290000D03*
%TD*%
D10*
%TO.C,DX0\u002CY0*%
X132668535Y-144634116D03*
X132668535Y-141331051D03*
%TD*%
D11*
%TO.C,SWX3\u002CY5*%
X176110000Y-90540000D03*
D12*
X176610000Y-86790000D03*
X181610000Y-84590000D03*
D13*
X181610000Y-90540000D03*
D12*
X186610000Y-86790000D03*
D11*
X187110000Y-90540000D03*
D14*
X178335000Y-84590000D03*
X189885000Y-86790000D03*
%TD*%
D10*
%TO.C,DX2\u002CY3*%
X150704251Y-108056691D03*
X150704251Y-104753626D03*
%TD*%
D11*
%TO.C,SWX2\u002CY0*%
X86110000Y-110040000D03*
D12*
X86610000Y-106290000D03*
X91610000Y-104090000D03*
D13*
X91610000Y-110040000D03*
D12*
X96610000Y-106290000D03*
D11*
X97110000Y-110040000D03*
D14*
X88335000Y-104090000D03*
X99885000Y-106290000D03*
%TD*%
D10*
%TO.C,DX4\u002CY4*%
X168719533Y-76563788D03*
X168719533Y-73260723D03*
%TD*%
%TO.C,DX0\u002CY1*%
X149943433Y-141976439D03*
X149943433Y-138673374D03*
%TD*%
D11*
%TO.C,SWX4\u002CY2*%
X122110000Y-71040000D03*
D12*
X122610000Y-67290000D03*
X127610000Y-65090000D03*
D13*
X127610000Y-71040000D03*
D12*
X132610000Y-67290000D03*
D11*
X133110000Y-71040000D03*
D14*
X124335000Y-65090000D03*
X135885000Y-67290000D03*
%TD*%
D11*
%TO.C,SWX0\u002CY5*%
X225971691Y-158138889D03*
D12*
X227724112Y-154786052D03*
X233175020Y-154428829D03*
D13*
X231140000Y-160020000D03*
D12*
X237121039Y-158206253D03*
D11*
X236308309Y-161901111D03*
D17*
X230097527Y-153308713D03*
X240198532Y-159326369D03*
%TD*%
D11*
%TO.C,SWMR1*%
X220891691Y-135278889D03*
D12*
X222644112Y-131926052D03*
X228095020Y-131568829D03*
D13*
X226060000Y-137160000D03*
D12*
X232041039Y-135346253D03*
D11*
X231228309Y-139041111D03*
D17*
X225017527Y-130448713D03*
X235118532Y-136466369D03*
%TD*%
M02*
