%TF.GenerationSoftware,KiCad,Pcbnew,8.0.5*%
%TF.CreationDate,2024-12-08T15:47:29-07:00*%
%TF.ProjectId,Split V2,53706c69-7420-4563-922e-6b696361645f,rev?*%
%TF.SameCoordinates,Original*%
%TF.FileFunction,Paste,Bot*%
%TF.FilePolarity,Positive*%
%FSLAX46Y46*%
G04 Gerber Fmt 4.6, Leading zero omitted, Abs format (unit mm)*
G04 Created by KiCad (PCBNEW 8.0.5) date 2024-12-08 15:47:29*
%MOMM*%
%LPD*%
G01*
G04 APERTURE LIST*
G04 Aperture macros list*
%AMRoundRect*
0 Rectangle with rounded corners*
0 $1 Rounding radius*
0 $2 $3 $4 $5 $6 $7 $8 $9 X,Y pos of 4 corners*
0 Add a 4 corners polygon primitive as box body*
4,1,4,$2,$3,$4,$5,$6,$7,$8,$9,$2,$3,0*
0 Add four circle primitives for the rounded corners*
1,1,$1+$1,$2,$3*
1,1,$1+$1,$4,$5*
1,1,$1+$1,$6,$7*
1,1,$1+$1,$8,$9*
0 Add four rect primitives between the rounded corners*
20,1,$1+$1,$2,$3,$4,$5,0*
20,1,$1+$1,$4,$5,$6,$7,0*
20,1,$1+$1,$6,$7,$8,$9,0*
20,1,$1+$1,$8,$9,$2,$3,0*%
%AMRotRect*
0 Rectangle, with rotation*
0 The origin of the aperture is its center*
0 $1 length*
0 $2 width*
0 $3 Rotation angle, in degrees counterclockwise*
0 Add horizontal line*
21,1,$1,$2,0,0,$3*%
%AMFreePoly0*
4,1,6,0.273003,-0.563966,0.054118,-0.566755,-0.636958,0.066744,0.054118,0.683245,0.269411,0.686099,0.273003,-0.563966,0.273003,-0.563966,$1*%
%AMFreePoly1*
4,1,6,0.164090,-0.411589,0.855166,-1.028090,-0.394834,-1.028090,-0.394834,0.221910,0.855166,0.221910,0.164090,-0.411589,0.164090,-0.411589,$1*%
G04 Aperture macros list end*
%ADD10RoundRect,0.225000X0.375000X-0.225000X0.375000X0.225000X-0.375000X0.225000X-0.375000X-0.225000X0*%
%ADD11R,2.600000X2.600000*%
%ADD12RotRect,2.600000X2.600000X340.000000*%
%ADD13FreePoly0,180.000000*%
%ADD14FreePoly1,180.000000*%
%ADD15C,0.800000*%
%ADD16FreePoly1,0.000000*%
%ADD17FreePoly0,0.000000*%
%ADD18RoundRect,0.225000X0.275430X-0.339688X0.429339X0.083173X-0.275430X0.339688X-0.429339X-0.083173X0*%
G04 APERTURE END LIST*
D10*
%TO.C,DX3\u002CY2*%
X132601803Y-93637266D03*
X132601803Y-90334201D03*
%TD*%
%TO.C,DX1\u002CY5*%
X186734423Y-130115582D03*
X186734423Y-126812517D03*
%TD*%
D11*
%TO.C,SWX1\u002CY0*%
X88335000Y-121090000D03*
X99885000Y-123290000D03*
%TD*%
D10*
%TO.C,DX3\u002CY3*%
X150762593Y-91090326D03*
X150762593Y-87787261D03*
%TD*%
D11*
%TO.C,SWX4\u002CY0*%
X88335000Y-70090000D03*
X99885000Y-72290000D03*
%TD*%
%TO.C,SWX1\u002CY5*%
X178335000Y-118590000D03*
X189885000Y-120790000D03*
%TD*%
%TO.C,SWX1\u002CY4*%
X160335000Y-116090000D03*
X171885000Y-118290000D03*
%TD*%
D10*
%TO.C,DX2\u002CY2*%
X132211251Y-110614970D03*
X132211251Y-107311905D03*
%TD*%
D12*
%TO.C,SWX0\u002CY3*%
X192039976Y-139456897D03*
X202140981Y-145474553D03*
%TD*%
D10*
%TO.C,DX1\u002CY0*%
X96568428Y-132729939D03*
X96568428Y-129426874D03*
%TD*%
D11*
%TO.C,SWX3\u002CY1*%
X106335000Y-87090000D03*
X117885000Y-89290000D03*
%TD*%
D10*
%TO.C,DX4\u002CY2*%
X132656338Y-76674524D03*
X132656338Y-73371459D03*
%TD*%
%TO.C,DX4\u002CY3*%
X150669480Y-74053760D03*
X150669480Y-70750695D03*
%TD*%
D13*
%TO.C,ProMicro1*%
X197105896Y-69934469D03*
D14*
X198194612Y-70398954D03*
D13*
X196994958Y-72611728D03*
D14*
X198050000Y-73086268D03*
D13*
X196994958Y-75161728D03*
D14*
X198050000Y-75636268D03*
D13*
X196994958Y-77611728D03*
D14*
X198050000Y-78036268D03*
D15*
X206550000Y-77786268D03*
D16*
X208250000Y-77386268D03*
D17*
X209355042Y-77860808D03*
D15*
X206550000Y-75236268D03*
D16*
X208150000Y-74736268D03*
D17*
X209355042Y-75210808D03*
D15*
X206550000Y-72636268D03*
D16*
X208196592Y-72382348D03*
D17*
X209297464Y-72810826D03*
D15*
X206550000Y-70186268D03*
D16*
X208196592Y-69732348D03*
D17*
X209305042Y-70210808D03*
%TD*%
D10*
%TO.C,DX3\u002CY4*%
X168517350Y-93415793D03*
X168517350Y-90112728D03*
%TD*%
D18*
%TO.C,DX0\u002CY5*%
X233832247Y-166812963D03*
X234961962Y-163709098D03*
%TD*%
D10*
%TO.C,DX1\u002CY1*%
X114009430Y-132619203D03*
X114009430Y-129316138D03*
%TD*%
D18*
%TO.C,DMR1*%
X228734339Y-143939382D03*
X229864054Y-140835517D03*
%TD*%
%TO.C,DX0\u002CY4*%
X214785564Y-159873474D03*
X215915279Y-156769609D03*
%TD*%
D10*
%TO.C,DX1\u002CY3*%
X150802734Y-125269304D03*
X150802734Y-121966239D03*
%TD*%
%TO.C,DX4\u002CY1*%
X114310987Y-81620756D03*
X114310987Y-78317691D03*
%TD*%
D11*
%TO.C,SWX3\u002CY2*%
X124335000Y-82090000D03*
X135885000Y-84290000D03*
%TD*%
%TO.C,SWX4\u002CY3*%
X142335000Y-62590000D03*
X153885000Y-64790000D03*
%TD*%
D10*
%TO.C,DX2\u002CY4*%
X168532832Y-110578058D03*
X168532832Y-107274993D03*
%TD*%
D11*
%TO.C,SWX2\u002CY2*%
X124335000Y-99090000D03*
X135885000Y-101290000D03*
%TD*%
D10*
%TO.C,DX4\u002CY5*%
X186326641Y-79258376D03*
X186326641Y-75955311D03*
%TD*%
D11*
%TO.C,SWX0\u002CY0*%
X124335000Y-133090000D03*
X135885000Y-135290000D03*
%TD*%
D10*
%TO.C,DX1\u002CY4*%
X168803195Y-127692443D03*
X168803195Y-124389378D03*
%TD*%
%TO.C,DX3\u002CY0*%
X96612432Y-98620409D03*
X96612432Y-95317344D03*
%TD*%
D11*
%TO.C,SWX3\u002CY4*%
X160335000Y-82090000D03*
X171885000Y-84290000D03*
%TD*%
%TO.C,SWX2\u002CY5*%
X178335000Y-101590000D03*
X189885000Y-103790000D03*
%TD*%
D10*
%TO.C,DX3\u002CY1*%
X114256452Y-98657322D03*
X114256452Y-95354257D03*
%TD*%
D11*
%TO.C,SWX2\u002CY1*%
X106335000Y-104090000D03*
X117885000Y-106290000D03*
%TD*%
D18*
%TO.C,DX0\u002CY3*%
X195396121Y-152970805D03*
X196525836Y-149866940D03*
%TD*%
D11*
%TO.C,SWX1\u002CY3*%
X142335000Y-113590000D03*
X153885000Y-115790000D03*
%TD*%
D10*
%TO.C,DX0\u002CY2*%
X168381064Y-144689484D03*
X168381064Y-141386419D03*
%TD*%
D11*
%TO.C,SWX2\u002CY4*%
X160335000Y-99090000D03*
X171885000Y-101290000D03*
%TD*%
%TO.C,SWX1\u002CY2*%
X124335000Y-116090000D03*
X135885000Y-118290000D03*
%TD*%
D10*
%TO.C,DX3\u002CY5*%
X186899613Y-96147294D03*
X186899613Y-92844229D03*
%TD*%
%TO.C,DX4\u002CY0*%
X96703880Y-81694580D03*
X96703880Y-78391515D03*
%TD*%
D12*
%TO.C,SWML1*%
X205988751Y-123522805D03*
X216089756Y-129540461D03*
%TD*%
D11*
%TO.C,SWX0\u002CY1*%
X142335000Y-130590000D03*
X153885000Y-132790000D03*
%TD*%
D18*
%TO.C,DML1*%
X209344896Y-137036713D03*
X210474611Y-133932848D03*
%TD*%
D11*
%TO.C,SWX4\u002CY4*%
X160335000Y-65090000D03*
X171885000Y-67290000D03*
%TD*%
D12*
%TO.C,SWX0\u002CY4*%
X221169757Y-152400461D03*
X211068752Y-146382805D03*
%TD*%
D11*
%TO.C,SWX2\u002CY3*%
X142335000Y-96590000D03*
X153885000Y-98790000D03*
%TD*%
%TO.C,SWX3\u002CY3*%
X142335000Y-79590000D03*
X153885000Y-81790000D03*
%TD*%
%TO.C,SWX0\u002CY2*%
X160335000Y-133090000D03*
X171885000Y-135290000D03*
%TD*%
%TO.C,SWX1\u002CY1*%
X106335000Y-121090000D03*
X117885000Y-123290000D03*
%TD*%
D10*
%TO.C,DX1\u002CY2*%
X132525342Y-127692443D03*
X132525342Y-124389378D03*
%TD*%
D11*
%TO.C,SWX4\u002CY5*%
X178335000Y-67590000D03*
X189885000Y-69790000D03*
%TD*%
D10*
%TO.C,DX2\u002CY0*%
X96184969Y-115635026D03*
X96184969Y-112331961D03*
%TD*%
D11*
%TO.C,SWX3\u002CY0*%
X88335000Y-87090000D03*
X99885000Y-89290000D03*
%TD*%
D10*
%TO.C,DX2\u002CY5*%
X186582733Y-113254267D03*
X186582733Y-109951202D03*
%TD*%
%TO.C,DX2\u002CY1*%
X114382671Y-115671938D03*
X114382671Y-112368873D03*
%TD*%
D11*
%TO.C,SWX4\u002CY1*%
X106335000Y-70090000D03*
X117885000Y-72290000D03*
%TD*%
D10*
%TO.C,DX0\u002CY0*%
X132668535Y-144634116D03*
X132668535Y-141331051D03*
%TD*%
D11*
%TO.C,SWX3\u002CY5*%
X178335000Y-84590000D03*
X189885000Y-86790000D03*
%TD*%
D10*
%TO.C,DX2\u002CY3*%
X150704251Y-108056691D03*
X150704251Y-104753626D03*
%TD*%
D11*
%TO.C,SWX2\u002CY0*%
X88335000Y-104090000D03*
X99885000Y-106290000D03*
%TD*%
D10*
%TO.C,DX4\u002CY4*%
X168719533Y-76563788D03*
X168719533Y-73260723D03*
%TD*%
%TO.C,DX0\u002CY1*%
X149943433Y-141976439D03*
X149943433Y-138673374D03*
%TD*%
D11*
%TO.C,SWX4\u002CY2*%
X124335000Y-65090000D03*
X135885000Y-67290000D03*
%TD*%
D12*
%TO.C,SWX0\u002CY5*%
X230097527Y-153308713D03*
X240198532Y-159326369D03*
%TD*%
%TO.C,SWMR1*%
X225017527Y-130448713D03*
X235118532Y-136466369D03*
%TD*%
M02*
