M48
; DRILL file {KiCad 8.0.5} date 2024-12-08T15:47:21-0700
; FORMAT={-:-/ absolute / inch / decimal}
; #@! TF.CreationDate,2024-12-08T15:47:21-07:00
; #@! TF.GenerationSoftware,Kicad,Pcbnew,8.0.5
; #@! TF.FileFunction,Plated,1,2,PTH
FMAT,2
INCH
; #@! TA.AperFunction,Plated,PTH,ViaDrill
T1C0.0157
; #@! TA.AperFunction,Plated,PTH,ComponentDrill
T2C0.0157
; #@! TA.AperFunction,Plated,PTH,ComponentDrill
T3C0.0300
; #@! TA.AperFunction,Plated,PTH,ComponentDrill
T4C0.0315
; #@! TA.AperFunction,Plated,PTH,ComponentDrill
T5C0.0354
; #@! TA.AperFunction,Plated,PTH,ComponentDrill
T6C0.0430
%
G90
G05
T1
X3.6Y-4.2
X3.6017Y-2.6462
X3.6061Y-4.8968
X3.634Y-3.566
X3.9Y-3.2162
X3.9Y-3.884
X3.9Y-4.5524
X4.0Y-5.2211
X4.3Y-2.6
X4.3Y-3.3152
X4.3Y-4.6537
X4.3006Y-4.0
X4.4Y-3.2162
X4.4Y-3.884
X4.4Y-5.2211
X4.6Y-4.5
X5.0283Y-2.4447
X5.0294Y-4.4597
X5.036Y-3.129
X5.0399Y-3.7978
X5.0434Y-5.3495
X5.1Y-3.0185
X5.1Y-3.6864
X5.1Y-5.0271
X5.2816Y-5.6357
X5.4Y-4.3548
X5.7363Y-3.7054
X5.7386Y-3.2399
X5.7403Y-2.5724
X5.7423Y-5.2473
X5.7483Y-4.5706
X5.8Y-3.5861
X5.8Y-5.5895
X5.8631Y-5.0004
X5.8736Y-2.9736
X6.1Y-4.3
X6.3183Y-3.4
X6.3183Y-4.1
X6.3591Y-4.7
X6.4523Y-5.3463
X6.4588Y-2.4601
X6.5Y-3.0142
X6.5Y-3.6777
X6.5Y-5.0271
X6.5Y-5.6963
X6.7781Y-4.3533
X7.027Y-3.5
X7.027Y-4.2
X7.1Y-4.8
X7.1643Y-2.5478
X7.2Y-4.4587
X7.2Y-5.1225
X7.3Y-3.7852
X7.5Y-3.1203
X7.6Y-6.0223
X7.6949Y-5.6415
X8.0864Y-5.3681
X8.2Y-5.0
X8.3Y-6.3
X8.5Y-5.7
X8.9Y-5.6668
X8.9447Y-5.2769
X9.1Y-6.5673
X9.1464Y-6.1816
T2
X7.8524Y-2.8597
X7.8524Y-2.964
X7.8538Y-2.7554
X7.8543Y-3.0605
X8.1319Y-2.7632
X8.1319Y-2.8597
X8.1319Y-2.9621
X8.1319Y-3.0625
T3
X7.6575Y-4.7661
X7.6575Y-4.8448
T4
X7.6575Y-4.9236
X7.9272Y-4.4964
X8.0059Y-4.4964
X8.0847Y-4.4964
T6
X7.7Y-2.5597
X7.7Y-2.6597
X7.7Y-2.7597
X7.7Y-2.8597
X7.7Y-2.9597
X7.7Y-3.0597
X7.7Y-3.1597
X7.7Y-3.2597
X7.7Y-3.3597
X7.7Y-3.4597
X7.7Y-3.5597
X7.7Y-3.6597
X8.3Y-2.5597
X8.3Y-2.6597
X8.3Y-2.7597
X8.3Y-2.8597
X8.3Y-2.9597
X8.3Y-3.0597
X8.3Y-3.1597
X8.3Y-3.2597
X8.3Y-3.3597
X8.3Y-3.4597
X8.3Y-3.5597
X8.3Y-3.6597
T5
G00X8.1518Y-3.9126
M15
G01X8.1282Y-3.9126
M16
G05
G00X8.1518Y-4.0031
M15
G01X8.1282Y-4.0031
M16
G05
G00X8.1951Y-3.822
M15
G01X8.1715Y-3.822
M16
G05
G00X8.1951Y-4.0937
M15
G01X8.1715Y-4.0937
M16
G05
G00X8.3526Y-3.822
M15
G01X8.329Y-3.822
M16
G05
G00X8.3526Y-4.0937
M15
G01X8.329Y-4.0937
M16
G05
G00X8.4707Y-3.822
M15
G01X8.4471Y-3.822
M16
G05
G00X8.4707Y-4.0937
M15
G01X8.4471Y-4.0937
M16
G05
M30
