%TF.GenerationSoftware,KiCad,Pcbnew,8.0.5*%
%TF.CreationDate,2024-12-08T15:47:30-07:00*%
%TF.ProjectId,Split V2,53706c69-7420-4563-922e-6b696361645f,rev?*%
%TF.SameCoordinates,Original*%
%TF.FileFunction,Legend,Bot*%
%TF.FilePolarity,Positive*%
%FSLAX46Y46*%
G04 Gerber Fmt 4.6, Leading zero omitted, Abs format (unit mm)*
G04 Created by KiCad (PCBNEW 8.0.5) date 2024-12-08 15:47:30*
%MOMM*%
%LPD*%
G01*
G04 APERTURE LIST*
%ADD10C,0.100000*%
%ADD11C,0.150000*%
%ADD12C,0.381000*%
G04 APERTURE END LIST*
D10*
X199977484Y-113829694D02*
X199977484Y-114543979D01*
X199977484Y-114543979D02*
X200025103Y-114686836D01*
X200025103Y-114686836D02*
X200120341Y-114782075D01*
X200120341Y-114782075D02*
X200263198Y-114829694D01*
X200263198Y-114829694D02*
X200358436Y-114829694D01*
X199358436Y-114829694D02*
X199453674Y-114782075D01*
X199453674Y-114782075D02*
X199501293Y-114734455D01*
X199501293Y-114734455D02*
X199548912Y-114639217D01*
X199548912Y-114639217D02*
X199548912Y-114353503D01*
X199548912Y-114353503D02*
X199501293Y-114258265D01*
X199501293Y-114258265D02*
X199453674Y-114210646D01*
X199453674Y-114210646D02*
X199358436Y-114163027D01*
X199358436Y-114163027D02*
X199215579Y-114163027D01*
X199215579Y-114163027D02*
X199120341Y-114210646D01*
X199120341Y-114210646D02*
X199072722Y-114258265D01*
X199072722Y-114258265D02*
X199025103Y-114353503D01*
X199025103Y-114353503D02*
X199025103Y-114639217D01*
X199025103Y-114639217D02*
X199072722Y-114734455D01*
X199072722Y-114734455D02*
X199120341Y-114782075D01*
X199120341Y-114782075D02*
X199215579Y-114829694D01*
X199215579Y-114829694D02*
X199358436Y-114829694D01*
X198691769Y-114163027D02*
X198453674Y-114829694D01*
X198215579Y-114163027D02*
X198453674Y-114829694D01*
X198453674Y-114829694D02*
X198548912Y-115067789D01*
X198548912Y-115067789D02*
X198596531Y-115115408D01*
X198596531Y-115115408D02*
X198691769Y-115163027D01*
X197882245Y-114782075D02*
X197787007Y-114829694D01*
X197787007Y-114829694D02*
X197596531Y-114829694D01*
X197596531Y-114829694D02*
X197501293Y-114782075D01*
X197501293Y-114782075D02*
X197453674Y-114686836D01*
X197453674Y-114686836D02*
X197453674Y-114639217D01*
X197453674Y-114639217D02*
X197501293Y-114543979D01*
X197501293Y-114543979D02*
X197596531Y-114496360D01*
X197596531Y-114496360D02*
X197739388Y-114496360D01*
X197739388Y-114496360D02*
X197834626Y-114448741D01*
X197834626Y-114448741D02*
X197882245Y-114353503D01*
X197882245Y-114353503D02*
X197882245Y-114305884D01*
X197882245Y-114305884D02*
X197834626Y-114210646D01*
X197834626Y-114210646D02*
X197739388Y-114163027D01*
X197739388Y-114163027D02*
X197596531Y-114163027D01*
X197596531Y-114163027D02*
X197501293Y-114210646D01*
X197167959Y-114163027D02*
X196787007Y-114163027D01*
X197025102Y-113829694D02*
X197025102Y-114686836D01*
X197025102Y-114686836D02*
X196977483Y-114782075D01*
X196977483Y-114782075D02*
X196882245Y-114829694D01*
X196882245Y-114829694D02*
X196787007Y-114829694D01*
X196453673Y-114829694D02*
X196453673Y-114163027D01*
X196453673Y-113829694D02*
X196501292Y-113877313D01*
X196501292Y-113877313D02*
X196453673Y-113924932D01*
X196453673Y-113924932D02*
X196406054Y-113877313D01*
X196406054Y-113877313D02*
X196453673Y-113829694D01*
X196453673Y-113829694D02*
X196453673Y-113924932D01*
X195548912Y-114782075D02*
X195644150Y-114829694D01*
X195644150Y-114829694D02*
X195834626Y-114829694D01*
X195834626Y-114829694D02*
X195929864Y-114782075D01*
X195929864Y-114782075D02*
X195977483Y-114734455D01*
X195977483Y-114734455D02*
X196025102Y-114639217D01*
X196025102Y-114639217D02*
X196025102Y-114353503D01*
X196025102Y-114353503D02*
X195977483Y-114258265D01*
X195977483Y-114258265D02*
X195929864Y-114210646D01*
X195929864Y-114210646D02*
X195834626Y-114163027D01*
X195834626Y-114163027D02*
X195644150Y-114163027D01*
X195644150Y-114163027D02*
X195548912Y-114210646D01*
X195120340Y-114829694D02*
X195120340Y-113829694D01*
X195025102Y-114448741D02*
X194739388Y-114829694D01*
X194739388Y-114163027D02*
X195120340Y-114543979D01*
X193787007Y-114829694D02*
X194358435Y-114829694D01*
X194072721Y-114829694D02*
X194072721Y-113829694D01*
X194072721Y-113829694D02*
X194167959Y-113972551D01*
X194167959Y-113972551D02*
X194263197Y-114067789D01*
X194263197Y-114067789D02*
X194358435Y-114115408D01*
D11*
X130853755Y-92229973D02*
X130853755Y-91229973D01*
X130853755Y-91229973D02*
X130615660Y-91229973D01*
X130615660Y-91229973D02*
X130472803Y-91277592D01*
X130472803Y-91277592D02*
X130377565Y-91372830D01*
X130377565Y-91372830D02*
X130329946Y-91468068D01*
X130329946Y-91468068D02*
X130282327Y-91658544D01*
X130282327Y-91658544D02*
X130282327Y-91801401D01*
X130282327Y-91801401D02*
X130329946Y-91991877D01*
X130329946Y-91991877D02*
X130377565Y-92087115D01*
X130377565Y-92087115D02*
X130472803Y-92182354D01*
X130472803Y-92182354D02*
X130615660Y-92229973D01*
X130615660Y-92229973D02*
X130853755Y-92229973D01*
X129948993Y-91229973D02*
X129282327Y-92229973D01*
X129282327Y-91229973D02*
X129948993Y-92229973D01*
X128996612Y-91229973D02*
X128377565Y-91229973D01*
X128377565Y-91229973D02*
X128710898Y-91610925D01*
X128710898Y-91610925D02*
X128568041Y-91610925D01*
X128568041Y-91610925D02*
X128472803Y-91658544D01*
X128472803Y-91658544D02*
X128425184Y-91706163D01*
X128425184Y-91706163D02*
X128377565Y-91801401D01*
X128377565Y-91801401D02*
X128377565Y-92039496D01*
X128377565Y-92039496D02*
X128425184Y-92134734D01*
X128425184Y-92134734D02*
X128472803Y-92182354D01*
X128472803Y-92182354D02*
X128568041Y-92229973D01*
X128568041Y-92229973D02*
X128853755Y-92229973D01*
X128853755Y-92229973D02*
X128948993Y-92182354D01*
X128948993Y-92182354D02*
X128996612Y-92134734D01*
X127901374Y-92182354D02*
X127901374Y-92229973D01*
X127901374Y-92229973D02*
X127948993Y-92325211D01*
X127948993Y-92325211D02*
X127996612Y-92372830D01*
X127282327Y-91753782D02*
X127282327Y-92229973D01*
X127615660Y-91229973D02*
X127282327Y-91753782D01*
X127282327Y-91753782D02*
X126948994Y-91229973D01*
X126663279Y-91325211D02*
X126615660Y-91277592D01*
X126615660Y-91277592D02*
X126520422Y-91229973D01*
X126520422Y-91229973D02*
X126282327Y-91229973D01*
X126282327Y-91229973D02*
X126187089Y-91277592D01*
X126187089Y-91277592D02*
X126139470Y-91325211D01*
X126139470Y-91325211D02*
X126091851Y-91420449D01*
X126091851Y-91420449D02*
X126091851Y-91515687D01*
X126091851Y-91515687D02*
X126139470Y-91658544D01*
X126139470Y-91658544D02*
X126710898Y-92229973D01*
X126710898Y-92229973D02*
X126091851Y-92229973D01*
X185309909Y-128319174D02*
X185309909Y-127319174D01*
X185309909Y-127319174D02*
X185071814Y-127319174D01*
X185071814Y-127319174D02*
X184928957Y-127366793D01*
X184928957Y-127366793D02*
X184833719Y-127462031D01*
X184833719Y-127462031D02*
X184786100Y-127557269D01*
X184786100Y-127557269D02*
X184738481Y-127747745D01*
X184738481Y-127747745D02*
X184738481Y-127890602D01*
X184738481Y-127890602D02*
X184786100Y-128081078D01*
X184786100Y-128081078D02*
X184833719Y-128176316D01*
X184833719Y-128176316D02*
X184928957Y-128271555D01*
X184928957Y-128271555D02*
X185071814Y-128319174D01*
X185071814Y-128319174D02*
X185309909Y-128319174D01*
X184405147Y-127319174D02*
X183738481Y-128319174D01*
X183738481Y-127319174D02*
X184405147Y-128319174D01*
X182833719Y-128319174D02*
X183405147Y-128319174D01*
X183119433Y-128319174D02*
X183119433Y-127319174D01*
X183119433Y-127319174D02*
X183214671Y-127462031D01*
X183214671Y-127462031D02*
X183309909Y-127557269D01*
X183309909Y-127557269D02*
X183405147Y-127604888D01*
X182357528Y-128271555D02*
X182357528Y-128319174D01*
X182357528Y-128319174D02*
X182405147Y-128414412D01*
X182405147Y-128414412D02*
X182452766Y-128462031D01*
X181738481Y-127842983D02*
X181738481Y-128319174D01*
X182071814Y-127319174D02*
X181738481Y-127842983D01*
X181738481Y-127842983D02*
X181405148Y-127319174D01*
X180595624Y-127319174D02*
X181071814Y-127319174D01*
X181071814Y-127319174D02*
X181119433Y-127795364D01*
X181119433Y-127795364D02*
X181071814Y-127747745D01*
X181071814Y-127747745D02*
X180976576Y-127700126D01*
X180976576Y-127700126D02*
X180738481Y-127700126D01*
X180738481Y-127700126D02*
X180643243Y-127747745D01*
X180643243Y-127747745D02*
X180595624Y-127795364D01*
X180595624Y-127795364D02*
X180548005Y-127890602D01*
X180548005Y-127890602D02*
X180548005Y-128128697D01*
X180548005Y-128128697D02*
X180595624Y-128223935D01*
X180595624Y-128223935D02*
X180643243Y-128271555D01*
X180643243Y-128271555D02*
X180738481Y-128319174D01*
X180738481Y-128319174D02*
X180976576Y-128319174D01*
X180976576Y-128319174D02*
X181071814Y-128271555D01*
X181071814Y-128271555D02*
X181119433Y-128223935D01*
X149034041Y-90040271D02*
X149034041Y-89040271D01*
X149034041Y-89040271D02*
X148795946Y-89040271D01*
X148795946Y-89040271D02*
X148653089Y-89087890D01*
X148653089Y-89087890D02*
X148557851Y-89183128D01*
X148557851Y-89183128D02*
X148510232Y-89278366D01*
X148510232Y-89278366D02*
X148462613Y-89468842D01*
X148462613Y-89468842D02*
X148462613Y-89611699D01*
X148462613Y-89611699D02*
X148510232Y-89802175D01*
X148510232Y-89802175D02*
X148557851Y-89897413D01*
X148557851Y-89897413D02*
X148653089Y-89992652D01*
X148653089Y-89992652D02*
X148795946Y-90040271D01*
X148795946Y-90040271D02*
X149034041Y-90040271D01*
X148129279Y-89040271D02*
X147462613Y-90040271D01*
X147462613Y-89040271D02*
X148129279Y-90040271D01*
X147176898Y-89040271D02*
X146557851Y-89040271D01*
X146557851Y-89040271D02*
X146891184Y-89421223D01*
X146891184Y-89421223D02*
X146748327Y-89421223D01*
X146748327Y-89421223D02*
X146653089Y-89468842D01*
X146653089Y-89468842D02*
X146605470Y-89516461D01*
X146605470Y-89516461D02*
X146557851Y-89611699D01*
X146557851Y-89611699D02*
X146557851Y-89849794D01*
X146557851Y-89849794D02*
X146605470Y-89945032D01*
X146605470Y-89945032D02*
X146653089Y-89992652D01*
X146653089Y-89992652D02*
X146748327Y-90040271D01*
X146748327Y-90040271D02*
X147034041Y-90040271D01*
X147034041Y-90040271D02*
X147129279Y-89992652D01*
X147129279Y-89992652D02*
X147176898Y-89945032D01*
X146081660Y-89992652D02*
X146081660Y-90040271D01*
X146081660Y-90040271D02*
X146129279Y-90135509D01*
X146129279Y-90135509D02*
X146176898Y-90183128D01*
X145462613Y-89564080D02*
X145462613Y-90040271D01*
X145795946Y-89040271D02*
X145462613Y-89564080D01*
X145462613Y-89564080D02*
X145129280Y-89040271D01*
X144891184Y-89040271D02*
X144272137Y-89040271D01*
X144272137Y-89040271D02*
X144605470Y-89421223D01*
X144605470Y-89421223D02*
X144462613Y-89421223D01*
X144462613Y-89421223D02*
X144367375Y-89468842D01*
X144367375Y-89468842D02*
X144319756Y-89516461D01*
X144319756Y-89516461D02*
X144272137Y-89611699D01*
X144272137Y-89611699D02*
X144272137Y-89849794D01*
X144272137Y-89849794D02*
X144319756Y-89945032D01*
X144319756Y-89945032D02*
X144367375Y-89992652D01*
X144367375Y-89992652D02*
X144462613Y-90040271D01*
X144462613Y-90040271D02*
X144748327Y-90040271D01*
X144748327Y-90040271D02*
X144843565Y-89992652D01*
X144843565Y-89992652D02*
X144891184Y-89945032D01*
X99586151Y-67690666D02*
X99443294Y-67738285D01*
X99443294Y-67738285D02*
X99205199Y-67738285D01*
X99205199Y-67738285D02*
X99109961Y-67690666D01*
X99109961Y-67690666D02*
X99062342Y-67643046D01*
X99062342Y-67643046D02*
X99014723Y-67547808D01*
X99014723Y-67547808D02*
X99014723Y-67452570D01*
X99014723Y-67452570D02*
X99062342Y-67357332D01*
X99062342Y-67357332D02*
X99109961Y-67309713D01*
X99109961Y-67309713D02*
X99205199Y-67262094D01*
X99205199Y-67262094D02*
X99395675Y-67214475D01*
X99395675Y-67214475D02*
X99490913Y-67166856D01*
X99490913Y-67166856D02*
X99538532Y-67119237D01*
X99538532Y-67119237D02*
X99586151Y-67023999D01*
X99586151Y-67023999D02*
X99586151Y-66928761D01*
X99586151Y-66928761D02*
X99538532Y-66833523D01*
X99538532Y-66833523D02*
X99490913Y-66785904D01*
X99490913Y-66785904D02*
X99395675Y-66738285D01*
X99395675Y-66738285D02*
X99157580Y-66738285D01*
X99157580Y-66738285D02*
X99014723Y-66785904D01*
X98681389Y-66738285D02*
X98443294Y-67738285D01*
X98443294Y-67738285D02*
X98252818Y-67023999D01*
X98252818Y-67023999D02*
X98062342Y-67738285D01*
X98062342Y-67738285D02*
X97824247Y-66738285D01*
X97538532Y-66738285D02*
X96871866Y-67738285D01*
X96871866Y-66738285D02*
X97538532Y-67738285D01*
X96062342Y-67071618D02*
X96062342Y-67738285D01*
X96300437Y-66690666D02*
X96538532Y-67404951D01*
X96538532Y-67404951D02*
X95919485Y-67404951D01*
X95490913Y-67690666D02*
X95490913Y-67738285D01*
X95490913Y-67738285D02*
X95538532Y-67833523D01*
X95538532Y-67833523D02*
X95586151Y-67881142D01*
X94871866Y-67262094D02*
X94871866Y-67738285D01*
X95205199Y-66738285D02*
X94871866Y-67262094D01*
X94871866Y-67262094D02*
X94538533Y-66738285D01*
X94014723Y-66738285D02*
X93919485Y-66738285D01*
X93919485Y-66738285D02*
X93824247Y-66785904D01*
X93824247Y-66785904D02*
X93776628Y-66833523D01*
X93776628Y-66833523D02*
X93729009Y-66928761D01*
X93729009Y-66928761D02*
X93681390Y-67119237D01*
X93681390Y-67119237D02*
X93681390Y-67357332D01*
X93681390Y-67357332D02*
X93729009Y-67547808D01*
X93729009Y-67547808D02*
X93776628Y-67643046D01*
X93776628Y-67643046D02*
X93824247Y-67690666D01*
X93824247Y-67690666D02*
X93919485Y-67738285D01*
X93919485Y-67738285D02*
X94014723Y-67738285D01*
X94014723Y-67738285D02*
X94109961Y-67690666D01*
X94109961Y-67690666D02*
X94157580Y-67643046D01*
X94157580Y-67643046D02*
X94205199Y-67547808D01*
X94205199Y-67547808D02*
X94252818Y-67357332D01*
X94252818Y-67357332D02*
X94252818Y-67119237D01*
X94252818Y-67119237D02*
X94205199Y-66928761D01*
X94205199Y-66928761D02*
X94157580Y-66833523D01*
X94157580Y-66833523D02*
X94109961Y-66785904D01*
X94109961Y-66785904D02*
X94014723Y-66738285D01*
X130585336Y-109539871D02*
X130585336Y-108539871D01*
X130585336Y-108539871D02*
X130347241Y-108539871D01*
X130347241Y-108539871D02*
X130204384Y-108587490D01*
X130204384Y-108587490D02*
X130109146Y-108682728D01*
X130109146Y-108682728D02*
X130061527Y-108777966D01*
X130061527Y-108777966D02*
X130013908Y-108968442D01*
X130013908Y-108968442D02*
X130013908Y-109111299D01*
X130013908Y-109111299D02*
X130061527Y-109301775D01*
X130061527Y-109301775D02*
X130109146Y-109397013D01*
X130109146Y-109397013D02*
X130204384Y-109492252D01*
X130204384Y-109492252D02*
X130347241Y-109539871D01*
X130347241Y-109539871D02*
X130585336Y-109539871D01*
X129680574Y-108539871D02*
X129013908Y-109539871D01*
X129013908Y-108539871D02*
X129680574Y-109539871D01*
X128680574Y-108635109D02*
X128632955Y-108587490D01*
X128632955Y-108587490D02*
X128537717Y-108539871D01*
X128537717Y-108539871D02*
X128299622Y-108539871D01*
X128299622Y-108539871D02*
X128204384Y-108587490D01*
X128204384Y-108587490D02*
X128156765Y-108635109D01*
X128156765Y-108635109D02*
X128109146Y-108730347D01*
X128109146Y-108730347D02*
X128109146Y-108825585D01*
X128109146Y-108825585D02*
X128156765Y-108968442D01*
X128156765Y-108968442D02*
X128728193Y-109539871D01*
X128728193Y-109539871D02*
X128109146Y-109539871D01*
X127632955Y-109492252D02*
X127632955Y-109539871D01*
X127632955Y-109539871D02*
X127680574Y-109635109D01*
X127680574Y-109635109D02*
X127728193Y-109682728D01*
X127013908Y-109063680D02*
X127013908Y-109539871D01*
X127347241Y-108539871D02*
X127013908Y-109063680D01*
X127013908Y-109063680D02*
X126680575Y-108539871D01*
X126394860Y-108635109D02*
X126347241Y-108587490D01*
X126347241Y-108587490D02*
X126252003Y-108539871D01*
X126252003Y-108539871D02*
X126013908Y-108539871D01*
X126013908Y-108539871D02*
X125918670Y-108587490D01*
X125918670Y-108587490D02*
X125871051Y-108635109D01*
X125871051Y-108635109D02*
X125823432Y-108730347D01*
X125823432Y-108730347D02*
X125823432Y-108825585D01*
X125823432Y-108825585D02*
X125871051Y-108968442D01*
X125871051Y-108968442D02*
X126442479Y-109539871D01*
X126442479Y-109539871D02*
X125823432Y-109539871D01*
X190492741Y-152003000D02*
X190342213Y-151998887D01*
X190342213Y-151998887D02*
X190118477Y-151917454D01*
X190118477Y-151917454D02*
X190045269Y-151840133D01*
X190045269Y-151840133D02*
X190016808Y-151779099D01*
X190016808Y-151779099D02*
X190004634Y-151673318D01*
X190004634Y-151673318D02*
X190037208Y-151583824D01*
X190037208Y-151583824D02*
X190114528Y-151510616D01*
X190114528Y-151510616D02*
X190175562Y-151482155D01*
X190175562Y-151482155D02*
X190281343Y-151469981D01*
X190281343Y-151469981D02*
X190476619Y-151490381D01*
X190476619Y-151490381D02*
X190582400Y-151478207D01*
X190582400Y-151478207D02*
X190643434Y-151449746D01*
X190643434Y-151449746D02*
X190720755Y-151376538D01*
X190720755Y-151376538D02*
X190753328Y-151287044D01*
X190753328Y-151287044D02*
X190741154Y-151181263D01*
X190741154Y-151181263D02*
X190712694Y-151120229D01*
X190712694Y-151120229D02*
X190639486Y-151042908D01*
X190639486Y-151042908D02*
X190415749Y-150961475D01*
X190415749Y-150961475D02*
X190265221Y-150957362D01*
X189968277Y-150798608D02*
X189402520Y-151656867D01*
X189402520Y-151656867D02*
X189467831Y-150920511D01*
X189467831Y-150920511D02*
X189044542Y-151526574D01*
X189044542Y-151526574D02*
X189162826Y-150505448D01*
X188894342Y-150407728D02*
X187925861Y-151119407D01*
X188267881Y-150179714D02*
X188552322Y-151347420D01*
X187730913Y-149984274D02*
X187641419Y-149951701D01*
X187641419Y-149951701D02*
X187535638Y-149963875D01*
X187535638Y-149963875D02*
X187474604Y-149992335D01*
X187474604Y-149992335D02*
X187397283Y-150065543D01*
X187397283Y-150065543D02*
X187287389Y-150228246D01*
X187287389Y-150228246D02*
X187205956Y-150451982D01*
X187205956Y-150451982D02*
X187185556Y-150647258D01*
X187185556Y-150647258D02*
X187197730Y-150753039D01*
X187197730Y-150753039D02*
X187226191Y-150814073D01*
X187226191Y-150814073D02*
X187299399Y-150891394D01*
X187299399Y-150891394D02*
X187388893Y-150923967D01*
X187388893Y-150923967D02*
X187494674Y-150911793D01*
X187494674Y-150911793D02*
X187555708Y-150883332D01*
X187555708Y-150883332D02*
X187633029Y-150810124D01*
X187633029Y-150810124D02*
X187742923Y-150647422D01*
X187742923Y-150647422D02*
X187824356Y-150423686D01*
X187824356Y-150423686D02*
X187844756Y-150228410D01*
X187844756Y-150228410D02*
X187832582Y-150122629D01*
X187832582Y-150122629D02*
X187804121Y-150061595D01*
X187804121Y-150061595D02*
X187730913Y-149984274D01*
X186644476Y-150602346D02*
X186628190Y-150647093D01*
X186628190Y-150647093D02*
X186640364Y-150752875D01*
X186640364Y-150752875D02*
X186668824Y-150813909D01*
X186209342Y-149987894D02*
X186046476Y-150435367D01*
X186701727Y-149609681D02*
X186209342Y-149987894D01*
X186209342Y-149987894D02*
X186075265Y-149381667D01*
X185851528Y-149300234D02*
X185269814Y-149088507D01*
X185269814Y-149088507D02*
X185452751Y-149560492D01*
X185452751Y-149560492D02*
X185318510Y-149511632D01*
X185318510Y-149511632D02*
X185212728Y-149523806D01*
X185212728Y-149523806D02*
X185151694Y-149552267D01*
X185151694Y-149552267D02*
X185074374Y-149625475D01*
X185074374Y-149625475D02*
X184992941Y-149849211D01*
X184992941Y-149849211D02*
X185005114Y-149954992D01*
X185005114Y-149954992D02*
X185033575Y-150016026D01*
X185033575Y-150016026D02*
X185106783Y-150093347D01*
X185106783Y-150093347D02*
X185375266Y-150191067D01*
X185375266Y-150191067D02*
X185481048Y-150178893D01*
X185481048Y-150178893D02*
X185542082Y-150150432D01*
X95182428Y-132115527D02*
X95182428Y-131115527D01*
X95182428Y-131115527D02*
X94944333Y-131115527D01*
X94944333Y-131115527D02*
X94801476Y-131163146D01*
X94801476Y-131163146D02*
X94706238Y-131258384D01*
X94706238Y-131258384D02*
X94658619Y-131353622D01*
X94658619Y-131353622D02*
X94611000Y-131544098D01*
X94611000Y-131544098D02*
X94611000Y-131686955D01*
X94611000Y-131686955D02*
X94658619Y-131877431D01*
X94658619Y-131877431D02*
X94706238Y-131972669D01*
X94706238Y-131972669D02*
X94801476Y-132067908D01*
X94801476Y-132067908D02*
X94944333Y-132115527D01*
X94944333Y-132115527D02*
X95182428Y-132115527D01*
X94277666Y-131115527D02*
X93611000Y-132115527D01*
X93611000Y-131115527D02*
X94277666Y-132115527D01*
X92706238Y-132115527D02*
X93277666Y-132115527D01*
X92991952Y-132115527D02*
X92991952Y-131115527D01*
X92991952Y-131115527D02*
X93087190Y-131258384D01*
X93087190Y-131258384D02*
X93182428Y-131353622D01*
X93182428Y-131353622D02*
X93277666Y-131401241D01*
X92230047Y-132067908D02*
X92230047Y-132115527D01*
X92230047Y-132115527D02*
X92277666Y-132210765D01*
X92277666Y-132210765D02*
X92325285Y-132258384D01*
X91611000Y-131639336D02*
X91611000Y-132115527D01*
X91944333Y-131115527D02*
X91611000Y-131639336D01*
X91611000Y-131639336D02*
X91277667Y-131115527D01*
X90753857Y-131115527D02*
X90658619Y-131115527D01*
X90658619Y-131115527D02*
X90563381Y-131163146D01*
X90563381Y-131163146D02*
X90515762Y-131210765D01*
X90515762Y-131210765D02*
X90468143Y-131306003D01*
X90468143Y-131306003D02*
X90420524Y-131496479D01*
X90420524Y-131496479D02*
X90420524Y-131734574D01*
X90420524Y-131734574D02*
X90468143Y-131925050D01*
X90468143Y-131925050D02*
X90515762Y-132020288D01*
X90515762Y-132020288D02*
X90563381Y-132067908D01*
X90563381Y-132067908D02*
X90658619Y-132115527D01*
X90658619Y-132115527D02*
X90753857Y-132115527D01*
X90753857Y-132115527D02*
X90849095Y-132067908D01*
X90849095Y-132067908D02*
X90896714Y-132020288D01*
X90896714Y-132020288D02*
X90944333Y-131925050D01*
X90944333Y-131925050D02*
X90991952Y-131734574D01*
X90991952Y-131734574D02*
X90991952Y-131496479D01*
X90991952Y-131496479D02*
X90944333Y-131306003D01*
X90944333Y-131306003D02*
X90896714Y-131210765D01*
X90896714Y-131210765D02*
X90849095Y-131163146D01*
X90849095Y-131163146D02*
X90753857Y-131115527D01*
X112562380Y-84557200D02*
X112419523Y-84604819D01*
X112419523Y-84604819D02*
X112181428Y-84604819D01*
X112181428Y-84604819D02*
X112086190Y-84557200D01*
X112086190Y-84557200D02*
X112038571Y-84509580D01*
X112038571Y-84509580D02*
X111990952Y-84414342D01*
X111990952Y-84414342D02*
X111990952Y-84319104D01*
X111990952Y-84319104D02*
X112038571Y-84223866D01*
X112038571Y-84223866D02*
X112086190Y-84176247D01*
X112086190Y-84176247D02*
X112181428Y-84128628D01*
X112181428Y-84128628D02*
X112371904Y-84081009D01*
X112371904Y-84081009D02*
X112467142Y-84033390D01*
X112467142Y-84033390D02*
X112514761Y-83985771D01*
X112514761Y-83985771D02*
X112562380Y-83890533D01*
X112562380Y-83890533D02*
X112562380Y-83795295D01*
X112562380Y-83795295D02*
X112514761Y-83700057D01*
X112514761Y-83700057D02*
X112467142Y-83652438D01*
X112467142Y-83652438D02*
X112371904Y-83604819D01*
X112371904Y-83604819D02*
X112133809Y-83604819D01*
X112133809Y-83604819D02*
X111990952Y-83652438D01*
X111657618Y-83604819D02*
X111419523Y-84604819D01*
X111419523Y-84604819D02*
X111229047Y-83890533D01*
X111229047Y-83890533D02*
X111038571Y-84604819D01*
X111038571Y-84604819D02*
X110800476Y-83604819D01*
X110514761Y-83604819D02*
X109848095Y-84604819D01*
X109848095Y-83604819D02*
X110514761Y-84604819D01*
X109562380Y-83604819D02*
X108943333Y-83604819D01*
X108943333Y-83604819D02*
X109276666Y-83985771D01*
X109276666Y-83985771D02*
X109133809Y-83985771D01*
X109133809Y-83985771D02*
X109038571Y-84033390D01*
X109038571Y-84033390D02*
X108990952Y-84081009D01*
X108990952Y-84081009D02*
X108943333Y-84176247D01*
X108943333Y-84176247D02*
X108943333Y-84414342D01*
X108943333Y-84414342D02*
X108990952Y-84509580D01*
X108990952Y-84509580D02*
X109038571Y-84557200D01*
X109038571Y-84557200D02*
X109133809Y-84604819D01*
X109133809Y-84604819D02*
X109419523Y-84604819D01*
X109419523Y-84604819D02*
X109514761Y-84557200D01*
X109514761Y-84557200D02*
X109562380Y-84509580D01*
X108467142Y-84557200D02*
X108467142Y-84604819D01*
X108467142Y-84604819D02*
X108514761Y-84700057D01*
X108514761Y-84700057D02*
X108562380Y-84747676D01*
X107848095Y-84128628D02*
X107848095Y-84604819D01*
X108181428Y-83604819D02*
X107848095Y-84128628D01*
X107848095Y-84128628D02*
X107514762Y-83604819D01*
X106657619Y-84604819D02*
X107229047Y-84604819D01*
X106943333Y-84604819D02*
X106943333Y-83604819D01*
X106943333Y-83604819D02*
X107038571Y-83747676D01*
X107038571Y-83747676D02*
X107133809Y-83842914D01*
X107133809Y-83842914D02*
X107229047Y-83890533D01*
X130718310Y-75538481D02*
X130718310Y-74538481D01*
X130718310Y-74538481D02*
X130480215Y-74538481D01*
X130480215Y-74538481D02*
X130337358Y-74586100D01*
X130337358Y-74586100D02*
X130242120Y-74681338D01*
X130242120Y-74681338D02*
X130194501Y-74776576D01*
X130194501Y-74776576D02*
X130146882Y-74967052D01*
X130146882Y-74967052D02*
X130146882Y-75109909D01*
X130146882Y-75109909D02*
X130194501Y-75300385D01*
X130194501Y-75300385D02*
X130242120Y-75395623D01*
X130242120Y-75395623D02*
X130337358Y-75490862D01*
X130337358Y-75490862D02*
X130480215Y-75538481D01*
X130480215Y-75538481D02*
X130718310Y-75538481D01*
X129813548Y-74538481D02*
X129146882Y-75538481D01*
X129146882Y-74538481D02*
X129813548Y-75538481D01*
X128337358Y-74871814D02*
X128337358Y-75538481D01*
X128575453Y-74490862D02*
X128813548Y-75205147D01*
X128813548Y-75205147D02*
X128194501Y-75205147D01*
X127765929Y-75490862D02*
X127765929Y-75538481D01*
X127765929Y-75538481D02*
X127813548Y-75633719D01*
X127813548Y-75633719D02*
X127861167Y-75681338D01*
X127146882Y-75062290D02*
X127146882Y-75538481D01*
X127480215Y-74538481D02*
X127146882Y-75062290D01*
X127146882Y-75062290D02*
X126813549Y-74538481D01*
X126527834Y-74633719D02*
X126480215Y-74586100D01*
X126480215Y-74586100D02*
X126384977Y-74538481D01*
X126384977Y-74538481D02*
X126146882Y-74538481D01*
X126146882Y-74538481D02*
X126051644Y-74586100D01*
X126051644Y-74586100D02*
X126004025Y-74633719D01*
X126004025Y-74633719D02*
X125956406Y-74728957D01*
X125956406Y-74728957D02*
X125956406Y-74824195D01*
X125956406Y-74824195D02*
X126004025Y-74967052D01*
X126004025Y-74967052D02*
X126575453Y-75538481D01*
X126575453Y-75538481D02*
X125956406Y-75538481D01*
X148900697Y-73192839D02*
X148900697Y-72192839D01*
X148900697Y-72192839D02*
X148662602Y-72192839D01*
X148662602Y-72192839D02*
X148519745Y-72240458D01*
X148519745Y-72240458D02*
X148424507Y-72335696D01*
X148424507Y-72335696D02*
X148376888Y-72430934D01*
X148376888Y-72430934D02*
X148329269Y-72621410D01*
X148329269Y-72621410D02*
X148329269Y-72764267D01*
X148329269Y-72764267D02*
X148376888Y-72954743D01*
X148376888Y-72954743D02*
X148424507Y-73049981D01*
X148424507Y-73049981D02*
X148519745Y-73145220D01*
X148519745Y-73145220D02*
X148662602Y-73192839D01*
X148662602Y-73192839D02*
X148900697Y-73192839D01*
X147995935Y-72192839D02*
X147329269Y-73192839D01*
X147329269Y-72192839D02*
X147995935Y-73192839D01*
X146519745Y-72526172D02*
X146519745Y-73192839D01*
X146757840Y-72145220D02*
X146995935Y-72859505D01*
X146995935Y-72859505D02*
X146376888Y-72859505D01*
X145948316Y-73145220D02*
X145948316Y-73192839D01*
X145948316Y-73192839D02*
X145995935Y-73288077D01*
X145995935Y-73288077D02*
X146043554Y-73335696D01*
X145329269Y-72716648D02*
X145329269Y-73192839D01*
X145662602Y-72192839D02*
X145329269Y-72716648D01*
X145329269Y-72716648D02*
X144995936Y-72192839D01*
X144757840Y-72192839D02*
X144138793Y-72192839D01*
X144138793Y-72192839D02*
X144472126Y-72573791D01*
X144472126Y-72573791D02*
X144329269Y-72573791D01*
X144329269Y-72573791D02*
X144234031Y-72621410D01*
X144234031Y-72621410D02*
X144186412Y-72669029D01*
X144186412Y-72669029D02*
X144138793Y-72764267D01*
X144138793Y-72764267D02*
X144138793Y-73002362D01*
X144138793Y-73002362D02*
X144186412Y-73097600D01*
X144186412Y-73097600D02*
X144234031Y-73145220D01*
X144234031Y-73145220D02*
X144329269Y-73192839D01*
X144329269Y-73192839D02*
X144614983Y-73192839D01*
X144614983Y-73192839D02*
X144710221Y-73145220D01*
X144710221Y-73145220D02*
X144757840Y-73097600D01*
X166761101Y-92278977D02*
X166761101Y-91278977D01*
X166761101Y-91278977D02*
X166523006Y-91278977D01*
X166523006Y-91278977D02*
X166380149Y-91326596D01*
X166380149Y-91326596D02*
X166284911Y-91421834D01*
X166284911Y-91421834D02*
X166237292Y-91517072D01*
X166237292Y-91517072D02*
X166189673Y-91707548D01*
X166189673Y-91707548D02*
X166189673Y-91850405D01*
X166189673Y-91850405D02*
X166237292Y-92040881D01*
X166237292Y-92040881D02*
X166284911Y-92136119D01*
X166284911Y-92136119D02*
X166380149Y-92231358D01*
X166380149Y-92231358D02*
X166523006Y-92278977D01*
X166523006Y-92278977D02*
X166761101Y-92278977D01*
X165856339Y-91278977D02*
X165189673Y-92278977D01*
X165189673Y-91278977D02*
X165856339Y-92278977D01*
X164903958Y-91278977D02*
X164284911Y-91278977D01*
X164284911Y-91278977D02*
X164618244Y-91659929D01*
X164618244Y-91659929D02*
X164475387Y-91659929D01*
X164475387Y-91659929D02*
X164380149Y-91707548D01*
X164380149Y-91707548D02*
X164332530Y-91755167D01*
X164332530Y-91755167D02*
X164284911Y-91850405D01*
X164284911Y-91850405D02*
X164284911Y-92088500D01*
X164284911Y-92088500D02*
X164332530Y-92183738D01*
X164332530Y-92183738D02*
X164380149Y-92231358D01*
X164380149Y-92231358D02*
X164475387Y-92278977D01*
X164475387Y-92278977D02*
X164761101Y-92278977D01*
X164761101Y-92278977D02*
X164856339Y-92231358D01*
X164856339Y-92231358D02*
X164903958Y-92183738D01*
X163808720Y-92231358D02*
X163808720Y-92278977D01*
X163808720Y-92278977D02*
X163856339Y-92374215D01*
X163856339Y-92374215D02*
X163903958Y-92421834D01*
X163189673Y-91802786D02*
X163189673Y-92278977D01*
X163523006Y-91278977D02*
X163189673Y-91802786D01*
X163189673Y-91802786D02*
X162856340Y-91278977D01*
X162094435Y-91612310D02*
X162094435Y-92278977D01*
X162332530Y-91231358D02*
X162570625Y-91945643D01*
X162570625Y-91945643D02*
X161951578Y-91945643D01*
X112389906Y-132049573D02*
X112389906Y-131049573D01*
X112389906Y-131049573D02*
X112151811Y-131049573D01*
X112151811Y-131049573D02*
X112008954Y-131097192D01*
X112008954Y-131097192D02*
X111913716Y-131192430D01*
X111913716Y-131192430D02*
X111866097Y-131287668D01*
X111866097Y-131287668D02*
X111818478Y-131478144D01*
X111818478Y-131478144D02*
X111818478Y-131621001D01*
X111818478Y-131621001D02*
X111866097Y-131811477D01*
X111866097Y-131811477D02*
X111913716Y-131906715D01*
X111913716Y-131906715D02*
X112008954Y-132001954D01*
X112008954Y-132001954D02*
X112151811Y-132049573D01*
X112151811Y-132049573D02*
X112389906Y-132049573D01*
X111485144Y-131049573D02*
X110818478Y-132049573D01*
X110818478Y-131049573D02*
X111485144Y-132049573D01*
X109913716Y-132049573D02*
X110485144Y-132049573D01*
X110199430Y-132049573D02*
X110199430Y-131049573D01*
X110199430Y-131049573D02*
X110294668Y-131192430D01*
X110294668Y-131192430D02*
X110389906Y-131287668D01*
X110389906Y-131287668D02*
X110485144Y-131335287D01*
X109437525Y-132001954D02*
X109437525Y-132049573D01*
X109437525Y-132049573D02*
X109485144Y-132144811D01*
X109485144Y-132144811D02*
X109532763Y-132192430D01*
X108818478Y-131573382D02*
X108818478Y-132049573D01*
X109151811Y-131049573D02*
X108818478Y-131573382D01*
X108818478Y-131573382D02*
X108485145Y-131049573D01*
X107628002Y-132049573D02*
X108199430Y-132049573D01*
X107913716Y-132049573D02*
X107913716Y-131049573D01*
X107913716Y-131049573D02*
X108008954Y-131192430D01*
X108008954Y-131192430D02*
X108104192Y-131287668D01*
X108104192Y-131287668D02*
X108199430Y-131335287D01*
X149463267Y-125318185D02*
X149463267Y-124318185D01*
X149463267Y-124318185D02*
X149225172Y-124318185D01*
X149225172Y-124318185D02*
X149082315Y-124365804D01*
X149082315Y-124365804D02*
X148987077Y-124461042D01*
X148987077Y-124461042D02*
X148939458Y-124556280D01*
X148939458Y-124556280D02*
X148891839Y-124746756D01*
X148891839Y-124746756D02*
X148891839Y-124889613D01*
X148891839Y-124889613D02*
X148939458Y-125080089D01*
X148939458Y-125080089D02*
X148987077Y-125175327D01*
X148987077Y-125175327D02*
X149082315Y-125270566D01*
X149082315Y-125270566D02*
X149225172Y-125318185D01*
X149225172Y-125318185D02*
X149463267Y-125318185D01*
X148558505Y-124318185D02*
X147891839Y-125318185D01*
X147891839Y-124318185D02*
X148558505Y-125318185D01*
X146987077Y-125318185D02*
X147558505Y-125318185D01*
X147272791Y-125318185D02*
X147272791Y-124318185D01*
X147272791Y-124318185D02*
X147368029Y-124461042D01*
X147368029Y-124461042D02*
X147463267Y-124556280D01*
X147463267Y-124556280D02*
X147558505Y-124603899D01*
X146510886Y-125270566D02*
X146510886Y-125318185D01*
X146510886Y-125318185D02*
X146558505Y-125413423D01*
X146558505Y-125413423D02*
X146606124Y-125461042D01*
X145891839Y-124841994D02*
X145891839Y-125318185D01*
X146225172Y-124318185D02*
X145891839Y-124841994D01*
X145891839Y-124841994D02*
X145558506Y-124318185D01*
X145320410Y-124318185D02*
X144701363Y-124318185D01*
X144701363Y-124318185D02*
X145034696Y-124699137D01*
X145034696Y-124699137D02*
X144891839Y-124699137D01*
X144891839Y-124699137D02*
X144796601Y-124746756D01*
X144796601Y-124746756D02*
X144748982Y-124794375D01*
X144748982Y-124794375D02*
X144701363Y-124889613D01*
X144701363Y-124889613D02*
X144701363Y-125127708D01*
X144701363Y-125127708D02*
X144748982Y-125222946D01*
X144748982Y-125222946D02*
X144796601Y-125270566D01*
X144796601Y-125270566D02*
X144891839Y-125318185D01*
X144891839Y-125318185D02*
X145177553Y-125318185D01*
X145177553Y-125318185D02*
X145272791Y-125270566D01*
X145272791Y-125270566D02*
X145320410Y-125222946D01*
X112983875Y-80351849D02*
X112983875Y-79351849D01*
X112983875Y-79351849D02*
X112745780Y-79351849D01*
X112745780Y-79351849D02*
X112602923Y-79399468D01*
X112602923Y-79399468D02*
X112507685Y-79494706D01*
X112507685Y-79494706D02*
X112460066Y-79589944D01*
X112460066Y-79589944D02*
X112412447Y-79780420D01*
X112412447Y-79780420D02*
X112412447Y-79923277D01*
X112412447Y-79923277D02*
X112460066Y-80113753D01*
X112460066Y-80113753D02*
X112507685Y-80208991D01*
X112507685Y-80208991D02*
X112602923Y-80304230D01*
X112602923Y-80304230D02*
X112745780Y-80351849D01*
X112745780Y-80351849D02*
X112983875Y-80351849D01*
X112079113Y-79351849D02*
X111412447Y-80351849D01*
X111412447Y-79351849D02*
X112079113Y-80351849D01*
X110602923Y-79685182D02*
X110602923Y-80351849D01*
X110841018Y-79304230D02*
X111079113Y-80018515D01*
X111079113Y-80018515D02*
X110460066Y-80018515D01*
X110031494Y-80304230D02*
X110031494Y-80351849D01*
X110031494Y-80351849D02*
X110079113Y-80447087D01*
X110079113Y-80447087D02*
X110126732Y-80494706D01*
X109412447Y-79875658D02*
X109412447Y-80351849D01*
X109745780Y-79351849D02*
X109412447Y-79875658D01*
X109412447Y-79875658D02*
X109079114Y-79351849D01*
X108221971Y-80351849D02*
X108793399Y-80351849D01*
X108507685Y-80351849D02*
X108507685Y-79351849D01*
X108507685Y-79351849D02*
X108602923Y-79494706D01*
X108602923Y-79494706D02*
X108698161Y-79589944D01*
X108698161Y-79589944D02*
X108793399Y-79637563D01*
X135757724Y-80069179D02*
X135614867Y-80116798D01*
X135614867Y-80116798D02*
X135376772Y-80116798D01*
X135376772Y-80116798D02*
X135281534Y-80069179D01*
X135281534Y-80069179D02*
X135233915Y-80021559D01*
X135233915Y-80021559D02*
X135186296Y-79926321D01*
X135186296Y-79926321D02*
X135186296Y-79831083D01*
X135186296Y-79831083D02*
X135233915Y-79735845D01*
X135233915Y-79735845D02*
X135281534Y-79688226D01*
X135281534Y-79688226D02*
X135376772Y-79640607D01*
X135376772Y-79640607D02*
X135567248Y-79592988D01*
X135567248Y-79592988D02*
X135662486Y-79545369D01*
X135662486Y-79545369D02*
X135710105Y-79497750D01*
X135710105Y-79497750D02*
X135757724Y-79402512D01*
X135757724Y-79402512D02*
X135757724Y-79307274D01*
X135757724Y-79307274D02*
X135710105Y-79212036D01*
X135710105Y-79212036D02*
X135662486Y-79164417D01*
X135662486Y-79164417D02*
X135567248Y-79116798D01*
X135567248Y-79116798D02*
X135329153Y-79116798D01*
X135329153Y-79116798D02*
X135186296Y-79164417D01*
X134852962Y-79116798D02*
X134614867Y-80116798D01*
X134614867Y-80116798D02*
X134424391Y-79402512D01*
X134424391Y-79402512D02*
X134233915Y-80116798D01*
X134233915Y-80116798D02*
X133995820Y-79116798D01*
X133710105Y-79116798D02*
X133043439Y-80116798D01*
X133043439Y-79116798D02*
X133710105Y-80116798D01*
X132757724Y-79116798D02*
X132138677Y-79116798D01*
X132138677Y-79116798D02*
X132472010Y-79497750D01*
X132472010Y-79497750D02*
X132329153Y-79497750D01*
X132329153Y-79497750D02*
X132233915Y-79545369D01*
X132233915Y-79545369D02*
X132186296Y-79592988D01*
X132186296Y-79592988D02*
X132138677Y-79688226D01*
X132138677Y-79688226D02*
X132138677Y-79926321D01*
X132138677Y-79926321D02*
X132186296Y-80021559D01*
X132186296Y-80021559D02*
X132233915Y-80069179D01*
X132233915Y-80069179D02*
X132329153Y-80116798D01*
X132329153Y-80116798D02*
X132614867Y-80116798D01*
X132614867Y-80116798D02*
X132710105Y-80069179D01*
X132710105Y-80069179D02*
X132757724Y-80021559D01*
X131662486Y-80069179D02*
X131662486Y-80116798D01*
X131662486Y-80116798D02*
X131710105Y-80212036D01*
X131710105Y-80212036D02*
X131757724Y-80259655D01*
X131043439Y-79640607D02*
X131043439Y-80116798D01*
X131376772Y-79116798D02*
X131043439Y-79640607D01*
X131043439Y-79640607D02*
X130710106Y-79116798D01*
X130424391Y-79212036D02*
X130376772Y-79164417D01*
X130376772Y-79164417D02*
X130281534Y-79116798D01*
X130281534Y-79116798D02*
X130043439Y-79116798D01*
X130043439Y-79116798D02*
X129948201Y-79164417D01*
X129948201Y-79164417D02*
X129900582Y-79212036D01*
X129900582Y-79212036D02*
X129852963Y-79307274D01*
X129852963Y-79307274D02*
X129852963Y-79402512D01*
X129852963Y-79402512D02*
X129900582Y-79545369D01*
X129900582Y-79545369D02*
X130472010Y-80116798D01*
X130472010Y-80116798D02*
X129852963Y-80116798D01*
X148528396Y-58879962D02*
X148385539Y-58927581D01*
X148385539Y-58927581D02*
X148147444Y-58927581D01*
X148147444Y-58927581D02*
X148052206Y-58879962D01*
X148052206Y-58879962D02*
X148004587Y-58832342D01*
X148004587Y-58832342D02*
X147956968Y-58737104D01*
X147956968Y-58737104D02*
X147956968Y-58641866D01*
X147956968Y-58641866D02*
X148004587Y-58546628D01*
X148004587Y-58546628D02*
X148052206Y-58499009D01*
X148052206Y-58499009D02*
X148147444Y-58451390D01*
X148147444Y-58451390D02*
X148337920Y-58403771D01*
X148337920Y-58403771D02*
X148433158Y-58356152D01*
X148433158Y-58356152D02*
X148480777Y-58308533D01*
X148480777Y-58308533D02*
X148528396Y-58213295D01*
X148528396Y-58213295D02*
X148528396Y-58118057D01*
X148528396Y-58118057D02*
X148480777Y-58022819D01*
X148480777Y-58022819D02*
X148433158Y-57975200D01*
X148433158Y-57975200D02*
X148337920Y-57927581D01*
X148337920Y-57927581D02*
X148099825Y-57927581D01*
X148099825Y-57927581D02*
X147956968Y-57975200D01*
X147623634Y-57927581D02*
X147385539Y-58927581D01*
X147385539Y-58927581D02*
X147195063Y-58213295D01*
X147195063Y-58213295D02*
X147004587Y-58927581D01*
X147004587Y-58927581D02*
X146766492Y-57927581D01*
X146480777Y-57927581D02*
X145814111Y-58927581D01*
X145814111Y-57927581D02*
X146480777Y-58927581D01*
X145004587Y-58260914D02*
X145004587Y-58927581D01*
X145242682Y-57879962D02*
X145480777Y-58594247D01*
X145480777Y-58594247D02*
X144861730Y-58594247D01*
X144433158Y-58879962D02*
X144433158Y-58927581D01*
X144433158Y-58927581D02*
X144480777Y-59022819D01*
X144480777Y-59022819D02*
X144528396Y-59070438D01*
X143814111Y-58451390D02*
X143814111Y-58927581D01*
X144147444Y-57927581D02*
X143814111Y-58451390D01*
X143814111Y-58451390D02*
X143480778Y-57927581D01*
X143242682Y-57927581D02*
X142623635Y-57927581D01*
X142623635Y-57927581D02*
X142956968Y-58308533D01*
X142956968Y-58308533D02*
X142814111Y-58308533D01*
X142814111Y-58308533D02*
X142718873Y-58356152D01*
X142718873Y-58356152D02*
X142671254Y-58403771D01*
X142671254Y-58403771D02*
X142623635Y-58499009D01*
X142623635Y-58499009D02*
X142623635Y-58737104D01*
X142623635Y-58737104D02*
X142671254Y-58832342D01*
X142671254Y-58832342D02*
X142718873Y-58879962D01*
X142718873Y-58879962D02*
X142814111Y-58927581D01*
X142814111Y-58927581D02*
X143099825Y-58927581D01*
X143099825Y-58927581D02*
X143195063Y-58879962D01*
X143195063Y-58879962D02*
X143242682Y-58832342D01*
X167005264Y-109521155D02*
X167005264Y-108521155D01*
X167005264Y-108521155D02*
X166767169Y-108521155D01*
X166767169Y-108521155D02*
X166624312Y-108568774D01*
X166624312Y-108568774D02*
X166529074Y-108664012D01*
X166529074Y-108664012D02*
X166481455Y-108759250D01*
X166481455Y-108759250D02*
X166433836Y-108949726D01*
X166433836Y-108949726D02*
X166433836Y-109092583D01*
X166433836Y-109092583D02*
X166481455Y-109283059D01*
X166481455Y-109283059D02*
X166529074Y-109378297D01*
X166529074Y-109378297D02*
X166624312Y-109473536D01*
X166624312Y-109473536D02*
X166767169Y-109521155D01*
X166767169Y-109521155D02*
X167005264Y-109521155D01*
X166100502Y-108521155D02*
X165433836Y-109521155D01*
X165433836Y-108521155D02*
X166100502Y-109521155D01*
X165100502Y-108616393D02*
X165052883Y-108568774D01*
X165052883Y-108568774D02*
X164957645Y-108521155D01*
X164957645Y-108521155D02*
X164719550Y-108521155D01*
X164719550Y-108521155D02*
X164624312Y-108568774D01*
X164624312Y-108568774D02*
X164576693Y-108616393D01*
X164576693Y-108616393D02*
X164529074Y-108711631D01*
X164529074Y-108711631D02*
X164529074Y-108806869D01*
X164529074Y-108806869D02*
X164576693Y-108949726D01*
X164576693Y-108949726D02*
X165148121Y-109521155D01*
X165148121Y-109521155D02*
X164529074Y-109521155D01*
X164052883Y-109473536D02*
X164052883Y-109521155D01*
X164052883Y-109521155D02*
X164100502Y-109616393D01*
X164100502Y-109616393D02*
X164148121Y-109664012D01*
X163433836Y-109044964D02*
X163433836Y-109521155D01*
X163767169Y-108521155D02*
X163433836Y-109044964D01*
X163433836Y-109044964D02*
X163100503Y-108521155D01*
X162338598Y-108854488D02*
X162338598Y-109521155D01*
X162576693Y-108473536D02*
X162814788Y-109187821D01*
X162814788Y-109187821D02*
X162195741Y-109187821D01*
X184829092Y-79790756D02*
X184829092Y-78790756D01*
X184829092Y-78790756D02*
X184590997Y-78790756D01*
X184590997Y-78790756D02*
X184448140Y-78838375D01*
X184448140Y-78838375D02*
X184352902Y-78933613D01*
X184352902Y-78933613D02*
X184305283Y-79028851D01*
X184305283Y-79028851D02*
X184257664Y-79219327D01*
X184257664Y-79219327D02*
X184257664Y-79362184D01*
X184257664Y-79362184D02*
X184305283Y-79552660D01*
X184305283Y-79552660D02*
X184352902Y-79647898D01*
X184352902Y-79647898D02*
X184448140Y-79743137D01*
X184448140Y-79743137D02*
X184590997Y-79790756D01*
X184590997Y-79790756D02*
X184829092Y-79790756D01*
X183924330Y-78790756D02*
X183257664Y-79790756D01*
X183257664Y-78790756D02*
X183924330Y-79790756D01*
X182448140Y-79124089D02*
X182448140Y-79790756D01*
X182686235Y-78743137D02*
X182924330Y-79457422D01*
X182924330Y-79457422D02*
X182305283Y-79457422D01*
X181876711Y-79743137D02*
X181876711Y-79790756D01*
X181876711Y-79790756D02*
X181924330Y-79885994D01*
X181924330Y-79885994D02*
X181971949Y-79933613D01*
X181257664Y-79314565D02*
X181257664Y-79790756D01*
X181590997Y-78790756D02*
X181257664Y-79314565D01*
X181257664Y-79314565D02*
X180924331Y-78790756D01*
X180114807Y-78790756D02*
X180590997Y-78790756D01*
X180590997Y-78790756D02*
X180638616Y-79266946D01*
X180638616Y-79266946D02*
X180590997Y-79219327D01*
X180590997Y-79219327D02*
X180495759Y-79171708D01*
X180495759Y-79171708D02*
X180257664Y-79171708D01*
X180257664Y-79171708D02*
X180162426Y-79219327D01*
X180162426Y-79219327D02*
X180114807Y-79266946D01*
X180114807Y-79266946D02*
X180067188Y-79362184D01*
X180067188Y-79362184D02*
X180067188Y-79600279D01*
X180067188Y-79600279D02*
X180114807Y-79695517D01*
X180114807Y-79695517D02*
X180162426Y-79743137D01*
X180162426Y-79743137D02*
X180257664Y-79790756D01*
X180257664Y-79790756D02*
X180495759Y-79790756D01*
X180495759Y-79790756D02*
X180590997Y-79743137D01*
X180590997Y-79743137D02*
X180638616Y-79695517D01*
X134767041Y-147882585D02*
X134624184Y-147930204D01*
X134624184Y-147930204D02*
X134386089Y-147930204D01*
X134386089Y-147930204D02*
X134290851Y-147882585D01*
X134290851Y-147882585D02*
X134243232Y-147834965D01*
X134243232Y-147834965D02*
X134195613Y-147739727D01*
X134195613Y-147739727D02*
X134195613Y-147644489D01*
X134195613Y-147644489D02*
X134243232Y-147549251D01*
X134243232Y-147549251D02*
X134290851Y-147501632D01*
X134290851Y-147501632D02*
X134386089Y-147454013D01*
X134386089Y-147454013D02*
X134576565Y-147406394D01*
X134576565Y-147406394D02*
X134671803Y-147358775D01*
X134671803Y-147358775D02*
X134719422Y-147311156D01*
X134719422Y-147311156D02*
X134767041Y-147215918D01*
X134767041Y-147215918D02*
X134767041Y-147120680D01*
X134767041Y-147120680D02*
X134719422Y-147025442D01*
X134719422Y-147025442D02*
X134671803Y-146977823D01*
X134671803Y-146977823D02*
X134576565Y-146930204D01*
X134576565Y-146930204D02*
X134338470Y-146930204D01*
X134338470Y-146930204D02*
X134195613Y-146977823D01*
X133862279Y-146930204D02*
X133624184Y-147930204D01*
X133624184Y-147930204D02*
X133433708Y-147215918D01*
X133433708Y-147215918D02*
X133243232Y-147930204D01*
X133243232Y-147930204D02*
X133005137Y-146930204D01*
X132719422Y-146930204D02*
X132052756Y-147930204D01*
X132052756Y-146930204D02*
X132719422Y-147930204D01*
X131481327Y-146930204D02*
X131386089Y-146930204D01*
X131386089Y-146930204D02*
X131290851Y-146977823D01*
X131290851Y-146977823D02*
X131243232Y-147025442D01*
X131243232Y-147025442D02*
X131195613Y-147120680D01*
X131195613Y-147120680D02*
X131147994Y-147311156D01*
X131147994Y-147311156D02*
X131147994Y-147549251D01*
X131147994Y-147549251D02*
X131195613Y-147739727D01*
X131195613Y-147739727D02*
X131243232Y-147834965D01*
X131243232Y-147834965D02*
X131290851Y-147882585D01*
X131290851Y-147882585D02*
X131386089Y-147930204D01*
X131386089Y-147930204D02*
X131481327Y-147930204D01*
X131481327Y-147930204D02*
X131576565Y-147882585D01*
X131576565Y-147882585D02*
X131624184Y-147834965D01*
X131624184Y-147834965D02*
X131671803Y-147739727D01*
X131671803Y-147739727D02*
X131719422Y-147549251D01*
X131719422Y-147549251D02*
X131719422Y-147311156D01*
X131719422Y-147311156D02*
X131671803Y-147120680D01*
X131671803Y-147120680D02*
X131624184Y-147025442D01*
X131624184Y-147025442D02*
X131576565Y-146977823D01*
X131576565Y-146977823D02*
X131481327Y-146930204D01*
X130671803Y-147882585D02*
X130671803Y-147930204D01*
X130671803Y-147930204D02*
X130719422Y-148025442D01*
X130719422Y-148025442D02*
X130767041Y-148073061D01*
X130052756Y-147454013D02*
X130052756Y-147930204D01*
X130386089Y-146930204D02*
X130052756Y-147454013D01*
X130052756Y-147454013D02*
X129719423Y-146930204D01*
X129195613Y-146930204D02*
X129100375Y-146930204D01*
X129100375Y-146930204D02*
X129005137Y-146977823D01*
X129005137Y-146977823D02*
X128957518Y-147025442D01*
X128957518Y-147025442D02*
X128909899Y-147120680D01*
X128909899Y-147120680D02*
X128862280Y-147311156D01*
X128862280Y-147311156D02*
X128862280Y-147549251D01*
X128862280Y-147549251D02*
X128909899Y-147739727D01*
X128909899Y-147739727D02*
X128957518Y-147834965D01*
X128957518Y-147834965D02*
X129005137Y-147882585D01*
X129005137Y-147882585D02*
X129100375Y-147930204D01*
X129100375Y-147930204D02*
X129195613Y-147930204D01*
X129195613Y-147930204D02*
X129290851Y-147882585D01*
X129290851Y-147882585D02*
X129338470Y-147834965D01*
X129338470Y-147834965D02*
X129386089Y-147739727D01*
X129386089Y-147739727D02*
X129433708Y-147549251D01*
X129433708Y-147549251D02*
X129433708Y-147311156D01*
X129433708Y-147311156D02*
X129386089Y-147120680D01*
X129386089Y-147120680D02*
X129338470Y-147025442D01*
X129338470Y-147025442D02*
X129290851Y-146977823D01*
X129290851Y-146977823D02*
X129195613Y-146930204D01*
X167318130Y-126475215D02*
X167318130Y-125475215D01*
X167318130Y-125475215D02*
X167080035Y-125475215D01*
X167080035Y-125475215D02*
X166937178Y-125522834D01*
X166937178Y-125522834D02*
X166841940Y-125618072D01*
X166841940Y-125618072D02*
X166794321Y-125713310D01*
X166794321Y-125713310D02*
X166746702Y-125903786D01*
X166746702Y-125903786D02*
X166746702Y-126046643D01*
X166746702Y-126046643D02*
X166794321Y-126237119D01*
X166794321Y-126237119D02*
X166841940Y-126332357D01*
X166841940Y-126332357D02*
X166937178Y-126427596D01*
X166937178Y-126427596D02*
X167080035Y-126475215D01*
X167080035Y-126475215D02*
X167318130Y-126475215D01*
X166413368Y-125475215D02*
X165746702Y-126475215D01*
X165746702Y-125475215D02*
X166413368Y-126475215D01*
X164841940Y-126475215D02*
X165413368Y-126475215D01*
X165127654Y-126475215D02*
X165127654Y-125475215D01*
X165127654Y-125475215D02*
X165222892Y-125618072D01*
X165222892Y-125618072D02*
X165318130Y-125713310D01*
X165318130Y-125713310D02*
X165413368Y-125760929D01*
X164365749Y-126427596D02*
X164365749Y-126475215D01*
X164365749Y-126475215D02*
X164413368Y-126570453D01*
X164413368Y-126570453D02*
X164460987Y-126618072D01*
X163746702Y-125999024D02*
X163746702Y-126475215D01*
X164080035Y-125475215D02*
X163746702Y-125999024D01*
X163746702Y-125999024D02*
X163413369Y-125475215D01*
X162651464Y-125808548D02*
X162651464Y-126475215D01*
X162889559Y-125427596D02*
X163127654Y-126141881D01*
X163127654Y-126141881D02*
X162508607Y-126141881D01*
X94954172Y-97675415D02*
X94954172Y-96675415D01*
X94954172Y-96675415D02*
X94716077Y-96675415D01*
X94716077Y-96675415D02*
X94573220Y-96723034D01*
X94573220Y-96723034D02*
X94477982Y-96818272D01*
X94477982Y-96818272D02*
X94430363Y-96913510D01*
X94430363Y-96913510D02*
X94382744Y-97103986D01*
X94382744Y-97103986D02*
X94382744Y-97246843D01*
X94382744Y-97246843D02*
X94430363Y-97437319D01*
X94430363Y-97437319D02*
X94477982Y-97532557D01*
X94477982Y-97532557D02*
X94573220Y-97627796D01*
X94573220Y-97627796D02*
X94716077Y-97675415D01*
X94716077Y-97675415D02*
X94954172Y-97675415D01*
X94049410Y-96675415D02*
X93382744Y-97675415D01*
X93382744Y-96675415D02*
X94049410Y-97675415D01*
X93097029Y-96675415D02*
X92477982Y-96675415D01*
X92477982Y-96675415D02*
X92811315Y-97056367D01*
X92811315Y-97056367D02*
X92668458Y-97056367D01*
X92668458Y-97056367D02*
X92573220Y-97103986D01*
X92573220Y-97103986D02*
X92525601Y-97151605D01*
X92525601Y-97151605D02*
X92477982Y-97246843D01*
X92477982Y-97246843D02*
X92477982Y-97484938D01*
X92477982Y-97484938D02*
X92525601Y-97580176D01*
X92525601Y-97580176D02*
X92573220Y-97627796D01*
X92573220Y-97627796D02*
X92668458Y-97675415D01*
X92668458Y-97675415D02*
X92954172Y-97675415D01*
X92954172Y-97675415D02*
X93049410Y-97627796D01*
X93049410Y-97627796D02*
X93097029Y-97580176D01*
X92001791Y-97627796D02*
X92001791Y-97675415D01*
X92001791Y-97675415D02*
X92049410Y-97770653D01*
X92049410Y-97770653D02*
X92097029Y-97818272D01*
X91382744Y-97199224D02*
X91382744Y-97675415D01*
X91716077Y-96675415D02*
X91382744Y-97199224D01*
X91382744Y-97199224D02*
X91049411Y-96675415D01*
X90525601Y-96675415D02*
X90430363Y-96675415D01*
X90430363Y-96675415D02*
X90335125Y-96723034D01*
X90335125Y-96723034D02*
X90287506Y-96770653D01*
X90287506Y-96770653D02*
X90239887Y-96865891D01*
X90239887Y-96865891D02*
X90192268Y-97056367D01*
X90192268Y-97056367D02*
X90192268Y-97294462D01*
X90192268Y-97294462D02*
X90239887Y-97484938D01*
X90239887Y-97484938D02*
X90287506Y-97580176D01*
X90287506Y-97580176D02*
X90335125Y-97627796D01*
X90335125Y-97627796D02*
X90430363Y-97675415D01*
X90430363Y-97675415D02*
X90525601Y-97675415D01*
X90525601Y-97675415D02*
X90620839Y-97627796D01*
X90620839Y-97627796D02*
X90668458Y-97580176D01*
X90668458Y-97580176D02*
X90716077Y-97484938D01*
X90716077Y-97484938D02*
X90763696Y-97294462D01*
X90763696Y-97294462D02*
X90763696Y-97056367D01*
X90763696Y-97056367D02*
X90716077Y-96865891D01*
X90716077Y-96865891D02*
X90668458Y-96770653D01*
X90668458Y-96770653D02*
X90620839Y-96723034D01*
X90620839Y-96723034D02*
X90525601Y-96675415D01*
X171842740Y-80094790D02*
X171699883Y-80142409D01*
X171699883Y-80142409D02*
X171461788Y-80142409D01*
X171461788Y-80142409D02*
X171366550Y-80094790D01*
X171366550Y-80094790D02*
X171318931Y-80047170D01*
X171318931Y-80047170D02*
X171271312Y-79951932D01*
X171271312Y-79951932D02*
X171271312Y-79856694D01*
X171271312Y-79856694D02*
X171318931Y-79761456D01*
X171318931Y-79761456D02*
X171366550Y-79713837D01*
X171366550Y-79713837D02*
X171461788Y-79666218D01*
X171461788Y-79666218D02*
X171652264Y-79618599D01*
X171652264Y-79618599D02*
X171747502Y-79570980D01*
X171747502Y-79570980D02*
X171795121Y-79523361D01*
X171795121Y-79523361D02*
X171842740Y-79428123D01*
X171842740Y-79428123D02*
X171842740Y-79332885D01*
X171842740Y-79332885D02*
X171795121Y-79237647D01*
X171795121Y-79237647D02*
X171747502Y-79190028D01*
X171747502Y-79190028D02*
X171652264Y-79142409D01*
X171652264Y-79142409D02*
X171414169Y-79142409D01*
X171414169Y-79142409D02*
X171271312Y-79190028D01*
X170937978Y-79142409D02*
X170699883Y-80142409D01*
X170699883Y-80142409D02*
X170509407Y-79428123D01*
X170509407Y-79428123D02*
X170318931Y-80142409D01*
X170318931Y-80142409D02*
X170080836Y-79142409D01*
X169795121Y-79142409D02*
X169128455Y-80142409D01*
X169128455Y-79142409D02*
X169795121Y-80142409D01*
X168842740Y-79142409D02*
X168223693Y-79142409D01*
X168223693Y-79142409D02*
X168557026Y-79523361D01*
X168557026Y-79523361D02*
X168414169Y-79523361D01*
X168414169Y-79523361D02*
X168318931Y-79570980D01*
X168318931Y-79570980D02*
X168271312Y-79618599D01*
X168271312Y-79618599D02*
X168223693Y-79713837D01*
X168223693Y-79713837D02*
X168223693Y-79951932D01*
X168223693Y-79951932D02*
X168271312Y-80047170D01*
X168271312Y-80047170D02*
X168318931Y-80094790D01*
X168318931Y-80094790D02*
X168414169Y-80142409D01*
X168414169Y-80142409D02*
X168699883Y-80142409D01*
X168699883Y-80142409D02*
X168795121Y-80094790D01*
X168795121Y-80094790D02*
X168842740Y-80047170D01*
X167747502Y-80094790D02*
X167747502Y-80142409D01*
X167747502Y-80142409D02*
X167795121Y-80237647D01*
X167795121Y-80237647D02*
X167842740Y-80285266D01*
X167128455Y-79666218D02*
X167128455Y-80142409D01*
X167461788Y-79142409D02*
X167128455Y-79666218D01*
X167128455Y-79666218D02*
X166795122Y-79142409D01*
X166033217Y-79475742D02*
X166033217Y-80142409D01*
X166271312Y-79094790D02*
X166509407Y-79809075D01*
X166509407Y-79809075D02*
X165890360Y-79809075D01*
X112615845Y-97444920D02*
X112615845Y-96444920D01*
X112615845Y-96444920D02*
X112377750Y-96444920D01*
X112377750Y-96444920D02*
X112234893Y-96492539D01*
X112234893Y-96492539D02*
X112139655Y-96587777D01*
X112139655Y-96587777D02*
X112092036Y-96683015D01*
X112092036Y-96683015D02*
X112044417Y-96873491D01*
X112044417Y-96873491D02*
X112044417Y-97016348D01*
X112044417Y-97016348D02*
X112092036Y-97206824D01*
X112092036Y-97206824D02*
X112139655Y-97302062D01*
X112139655Y-97302062D02*
X112234893Y-97397301D01*
X112234893Y-97397301D02*
X112377750Y-97444920D01*
X112377750Y-97444920D02*
X112615845Y-97444920D01*
X111711083Y-96444920D02*
X111044417Y-97444920D01*
X111044417Y-96444920D02*
X111711083Y-97444920D01*
X110758702Y-96444920D02*
X110139655Y-96444920D01*
X110139655Y-96444920D02*
X110472988Y-96825872D01*
X110472988Y-96825872D02*
X110330131Y-96825872D01*
X110330131Y-96825872D02*
X110234893Y-96873491D01*
X110234893Y-96873491D02*
X110187274Y-96921110D01*
X110187274Y-96921110D02*
X110139655Y-97016348D01*
X110139655Y-97016348D02*
X110139655Y-97254443D01*
X110139655Y-97254443D02*
X110187274Y-97349681D01*
X110187274Y-97349681D02*
X110234893Y-97397301D01*
X110234893Y-97397301D02*
X110330131Y-97444920D01*
X110330131Y-97444920D02*
X110615845Y-97444920D01*
X110615845Y-97444920D02*
X110711083Y-97397301D01*
X110711083Y-97397301D02*
X110758702Y-97349681D01*
X109663464Y-97397301D02*
X109663464Y-97444920D01*
X109663464Y-97444920D02*
X109711083Y-97540158D01*
X109711083Y-97540158D02*
X109758702Y-97587777D01*
X109044417Y-96968729D02*
X109044417Y-97444920D01*
X109377750Y-96444920D02*
X109044417Y-96968729D01*
X109044417Y-96968729D02*
X108711084Y-96444920D01*
X107853941Y-97444920D02*
X108425369Y-97444920D01*
X108139655Y-97444920D02*
X108139655Y-96444920D01*
X108139655Y-96444920D02*
X108234893Y-96587777D01*
X108234893Y-96587777D02*
X108330131Y-96683015D01*
X108330131Y-96683015D02*
X108425369Y-96730634D01*
X166563974Y-143559174D02*
X166563974Y-142559174D01*
X166563974Y-142559174D02*
X166325879Y-142559174D01*
X166325879Y-142559174D02*
X166183022Y-142606793D01*
X166183022Y-142606793D02*
X166087784Y-142702031D01*
X166087784Y-142702031D02*
X166040165Y-142797269D01*
X166040165Y-142797269D02*
X165992546Y-142987745D01*
X165992546Y-142987745D02*
X165992546Y-143130602D01*
X165992546Y-143130602D02*
X166040165Y-143321078D01*
X166040165Y-143321078D02*
X166087784Y-143416316D01*
X166087784Y-143416316D02*
X166183022Y-143511555D01*
X166183022Y-143511555D02*
X166325879Y-143559174D01*
X166325879Y-143559174D02*
X166563974Y-143559174D01*
X165659212Y-142559174D02*
X164992546Y-143559174D01*
X164992546Y-142559174D02*
X165659212Y-143559174D01*
X164421117Y-142559174D02*
X164325879Y-142559174D01*
X164325879Y-142559174D02*
X164230641Y-142606793D01*
X164230641Y-142606793D02*
X164183022Y-142654412D01*
X164183022Y-142654412D02*
X164135403Y-142749650D01*
X164135403Y-142749650D02*
X164087784Y-142940126D01*
X164087784Y-142940126D02*
X164087784Y-143178221D01*
X164087784Y-143178221D02*
X164135403Y-143368697D01*
X164135403Y-143368697D02*
X164183022Y-143463935D01*
X164183022Y-143463935D02*
X164230641Y-143511555D01*
X164230641Y-143511555D02*
X164325879Y-143559174D01*
X164325879Y-143559174D02*
X164421117Y-143559174D01*
X164421117Y-143559174D02*
X164516355Y-143511555D01*
X164516355Y-143511555D02*
X164563974Y-143463935D01*
X164563974Y-143463935D02*
X164611593Y-143368697D01*
X164611593Y-143368697D02*
X164659212Y-143178221D01*
X164659212Y-143178221D02*
X164659212Y-142940126D01*
X164659212Y-142940126D02*
X164611593Y-142749650D01*
X164611593Y-142749650D02*
X164563974Y-142654412D01*
X164563974Y-142654412D02*
X164516355Y-142606793D01*
X164516355Y-142606793D02*
X164421117Y-142559174D01*
X163611593Y-143511555D02*
X163611593Y-143559174D01*
X163611593Y-143559174D02*
X163659212Y-143654412D01*
X163659212Y-143654412D02*
X163706831Y-143702031D01*
X162992546Y-143082983D02*
X162992546Y-143559174D01*
X163325879Y-142559174D02*
X162992546Y-143082983D01*
X162992546Y-143082983D02*
X162659213Y-142559174D01*
X162373498Y-142654412D02*
X162325879Y-142606793D01*
X162325879Y-142606793D02*
X162230641Y-142559174D01*
X162230641Y-142559174D02*
X161992546Y-142559174D01*
X161992546Y-142559174D02*
X161897308Y-142606793D01*
X161897308Y-142606793D02*
X161849689Y-142654412D01*
X161849689Y-142654412D02*
X161802070Y-142749650D01*
X161802070Y-142749650D02*
X161802070Y-142844888D01*
X161802070Y-142844888D02*
X161849689Y-142987745D01*
X161849689Y-142987745D02*
X162421117Y-143559174D01*
X162421117Y-143559174D02*
X161802070Y-143559174D01*
X185450397Y-95044916D02*
X185450397Y-94044916D01*
X185450397Y-94044916D02*
X185212302Y-94044916D01*
X185212302Y-94044916D02*
X185069445Y-94092535D01*
X185069445Y-94092535D02*
X184974207Y-94187773D01*
X184974207Y-94187773D02*
X184926588Y-94283011D01*
X184926588Y-94283011D02*
X184878969Y-94473487D01*
X184878969Y-94473487D02*
X184878969Y-94616344D01*
X184878969Y-94616344D02*
X184926588Y-94806820D01*
X184926588Y-94806820D02*
X184974207Y-94902058D01*
X184974207Y-94902058D02*
X185069445Y-94997297D01*
X185069445Y-94997297D02*
X185212302Y-95044916D01*
X185212302Y-95044916D02*
X185450397Y-95044916D01*
X184545635Y-94044916D02*
X183878969Y-95044916D01*
X183878969Y-94044916D02*
X184545635Y-95044916D01*
X183593254Y-94044916D02*
X182974207Y-94044916D01*
X182974207Y-94044916D02*
X183307540Y-94425868D01*
X183307540Y-94425868D02*
X183164683Y-94425868D01*
X183164683Y-94425868D02*
X183069445Y-94473487D01*
X183069445Y-94473487D02*
X183021826Y-94521106D01*
X183021826Y-94521106D02*
X182974207Y-94616344D01*
X182974207Y-94616344D02*
X182974207Y-94854439D01*
X182974207Y-94854439D02*
X183021826Y-94949677D01*
X183021826Y-94949677D02*
X183069445Y-94997297D01*
X183069445Y-94997297D02*
X183164683Y-95044916D01*
X183164683Y-95044916D02*
X183450397Y-95044916D01*
X183450397Y-95044916D02*
X183545635Y-94997297D01*
X183545635Y-94997297D02*
X183593254Y-94949677D01*
X182498016Y-94997297D02*
X182498016Y-95044916D01*
X182498016Y-95044916D02*
X182545635Y-95140154D01*
X182545635Y-95140154D02*
X182593254Y-95187773D01*
X181878969Y-94568725D02*
X181878969Y-95044916D01*
X182212302Y-94044916D02*
X181878969Y-94568725D01*
X181878969Y-94568725D02*
X181545636Y-94044916D01*
X180736112Y-94044916D02*
X181212302Y-94044916D01*
X181212302Y-94044916D02*
X181259921Y-94521106D01*
X181259921Y-94521106D02*
X181212302Y-94473487D01*
X181212302Y-94473487D02*
X181117064Y-94425868D01*
X181117064Y-94425868D02*
X180878969Y-94425868D01*
X180878969Y-94425868D02*
X180783731Y-94473487D01*
X180783731Y-94473487D02*
X180736112Y-94521106D01*
X180736112Y-94521106D02*
X180688493Y-94616344D01*
X180688493Y-94616344D02*
X180688493Y-94854439D01*
X180688493Y-94854439D02*
X180736112Y-94949677D01*
X180736112Y-94949677D02*
X180783731Y-94997297D01*
X180783731Y-94997297D02*
X180878969Y-95044916D01*
X180878969Y-95044916D02*
X181117064Y-95044916D01*
X181117064Y-95044916D02*
X181212302Y-94997297D01*
X181212302Y-94997297D02*
X181259921Y-94949677D01*
X95098366Y-81010939D02*
X95098366Y-80010939D01*
X95098366Y-80010939D02*
X94860271Y-80010939D01*
X94860271Y-80010939D02*
X94717414Y-80058558D01*
X94717414Y-80058558D02*
X94622176Y-80153796D01*
X94622176Y-80153796D02*
X94574557Y-80249034D01*
X94574557Y-80249034D02*
X94526938Y-80439510D01*
X94526938Y-80439510D02*
X94526938Y-80582367D01*
X94526938Y-80582367D02*
X94574557Y-80772843D01*
X94574557Y-80772843D02*
X94622176Y-80868081D01*
X94622176Y-80868081D02*
X94717414Y-80963320D01*
X94717414Y-80963320D02*
X94860271Y-81010939D01*
X94860271Y-81010939D02*
X95098366Y-81010939D01*
X94193604Y-80010939D02*
X93526938Y-81010939D01*
X93526938Y-80010939D02*
X94193604Y-81010939D01*
X92717414Y-80344272D02*
X92717414Y-81010939D01*
X92955509Y-79963320D02*
X93193604Y-80677605D01*
X93193604Y-80677605D02*
X92574557Y-80677605D01*
X92145985Y-80963320D02*
X92145985Y-81010939D01*
X92145985Y-81010939D02*
X92193604Y-81106177D01*
X92193604Y-81106177D02*
X92241223Y-81153796D01*
X91526938Y-80534748D02*
X91526938Y-81010939D01*
X91860271Y-80010939D02*
X91526938Y-80534748D01*
X91526938Y-80534748D02*
X91193605Y-80010939D01*
X90669795Y-80010939D02*
X90574557Y-80010939D01*
X90574557Y-80010939D02*
X90479319Y-80058558D01*
X90479319Y-80058558D02*
X90431700Y-80106177D01*
X90431700Y-80106177D02*
X90384081Y-80201415D01*
X90384081Y-80201415D02*
X90336462Y-80391891D01*
X90336462Y-80391891D02*
X90336462Y-80629986D01*
X90336462Y-80629986D02*
X90384081Y-80820462D01*
X90384081Y-80820462D02*
X90431700Y-80915700D01*
X90431700Y-80915700D02*
X90479319Y-80963320D01*
X90479319Y-80963320D02*
X90574557Y-81010939D01*
X90574557Y-81010939D02*
X90669795Y-81010939D01*
X90669795Y-81010939D02*
X90765033Y-80963320D01*
X90765033Y-80963320D02*
X90812652Y-80915700D01*
X90812652Y-80915700D02*
X90860271Y-80820462D01*
X90860271Y-80820462D02*
X90907890Y-80629986D01*
X90907890Y-80629986D02*
X90907890Y-80391891D01*
X90907890Y-80391891D02*
X90860271Y-80201415D01*
X90860271Y-80201415D02*
X90812652Y-80106177D01*
X90812652Y-80106177D02*
X90765033Y-80058558D01*
X90765033Y-80058558D02*
X90669795Y-80010939D01*
X203942172Y-134310929D02*
X203791644Y-134306816D01*
X203791644Y-134306816D02*
X203567908Y-134225383D01*
X203567908Y-134225383D02*
X203494700Y-134148062D01*
X203494700Y-134148062D02*
X203466239Y-134087028D01*
X203466239Y-134087028D02*
X203454065Y-133981247D01*
X203454065Y-133981247D02*
X203486639Y-133891753D01*
X203486639Y-133891753D02*
X203563959Y-133818545D01*
X203563959Y-133818545D02*
X203624993Y-133790084D01*
X203624993Y-133790084D02*
X203730774Y-133777910D01*
X203730774Y-133777910D02*
X203926050Y-133798310D01*
X203926050Y-133798310D02*
X204031831Y-133786136D01*
X204031831Y-133786136D02*
X204092865Y-133757675D01*
X204092865Y-133757675D02*
X204170186Y-133684467D01*
X204170186Y-133684467D02*
X204202759Y-133594973D01*
X204202759Y-133594973D02*
X204190585Y-133489192D01*
X204190585Y-133489192D02*
X204162125Y-133428158D01*
X204162125Y-133428158D02*
X204088917Y-133350837D01*
X204088917Y-133350837D02*
X203865180Y-133269404D01*
X203865180Y-133269404D02*
X203714652Y-133265291D01*
X203417708Y-133106537D02*
X202851951Y-133964796D01*
X202851951Y-133964796D02*
X202917262Y-133228440D01*
X202917262Y-133228440D02*
X202493973Y-133834503D01*
X202493973Y-133834503D02*
X202612257Y-132813377D01*
X201912259Y-133622776D02*
X202254279Y-132683083D01*
X202254279Y-132683083D02*
X201696748Y-133240286D01*
X201696748Y-133240286D02*
X201627817Y-132455070D01*
X201627817Y-132455070D02*
X201285797Y-133394763D01*
X200390852Y-133069029D02*
X200838324Y-133231896D01*
X200838324Y-133231896D02*
X201180345Y-132292203D01*
X199585401Y-132775869D02*
X200122368Y-132971309D01*
X199853884Y-132873589D02*
X200195905Y-131933896D01*
X200195905Y-131933896D02*
X200236539Y-132100712D01*
X200236539Y-132100712D02*
X200293460Y-132222779D01*
X200293460Y-132222779D02*
X200366668Y-132300100D01*
X152832079Y-145981002D02*
X152689222Y-146028621D01*
X152689222Y-146028621D02*
X152451127Y-146028621D01*
X152451127Y-146028621D02*
X152355889Y-145981002D01*
X152355889Y-145981002D02*
X152308270Y-145933382D01*
X152308270Y-145933382D02*
X152260651Y-145838144D01*
X152260651Y-145838144D02*
X152260651Y-145742906D01*
X152260651Y-145742906D02*
X152308270Y-145647668D01*
X152308270Y-145647668D02*
X152355889Y-145600049D01*
X152355889Y-145600049D02*
X152451127Y-145552430D01*
X152451127Y-145552430D02*
X152641603Y-145504811D01*
X152641603Y-145504811D02*
X152736841Y-145457192D01*
X152736841Y-145457192D02*
X152784460Y-145409573D01*
X152784460Y-145409573D02*
X152832079Y-145314335D01*
X152832079Y-145314335D02*
X152832079Y-145219097D01*
X152832079Y-145219097D02*
X152784460Y-145123859D01*
X152784460Y-145123859D02*
X152736841Y-145076240D01*
X152736841Y-145076240D02*
X152641603Y-145028621D01*
X152641603Y-145028621D02*
X152403508Y-145028621D01*
X152403508Y-145028621D02*
X152260651Y-145076240D01*
X151927317Y-145028621D02*
X151689222Y-146028621D01*
X151689222Y-146028621D02*
X151498746Y-145314335D01*
X151498746Y-145314335D02*
X151308270Y-146028621D01*
X151308270Y-146028621D02*
X151070175Y-145028621D01*
X150784460Y-145028621D02*
X150117794Y-146028621D01*
X150117794Y-145028621D02*
X150784460Y-146028621D01*
X149546365Y-145028621D02*
X149451127Y-145028621D01*
X149451127Y-145028621D02*
X149355889Y-145076240D01*
X149355889Y-145076240D02*
X149308270Y-145123859D01*
X149308270Y-145123859D02*
X149260651Y-145219097D01*
X149260651Y-145219097D02*
X149213032Y-145409573D01*
X149213032Y-145409573D02*
X149213032Y-145647668D01*
X149213032Y-145647668D02*
X149260651Y-145838144D01*
X149260651Y-145838144D02*
X149308270Y-145933382D01*
X149308270Y-145933382D02*
X149355889Y-145981002D01*
X149355889Y-145981002D02*
X149451127Y-146028621D01*
X149451127Y-146028621D02*
X149546365Y-146028621D01*
X149546365Y-146028621D02*
X149641603Y-145981002D01*
X149641603Y-145981002D02*
X149689222Y-145933382D01*
X149689222Y-145933382D02*
X149736841Y-145838144D01*
X149736841Y-145838144D02*
X149784460Y-145647668D01*
X149784460Y-145647668D02*
X149784460Y-145409573D01*
X149784460Y-145409573D02*
X149736841Y-145219097D01*
X149736841Y-145219097D02*
X149689222Y-145123859D01*
X149689222Y-145123859D02*
X149641603Y-145076240D01*
X149641603Y-145076240D02*
X149546365Y-145028621D01*
X148736841Y-145981002D02*
X148736841Y-146028621D01*
X148736841Y-146028621D02*
X148784460Y-146123859D01*
X148784460Y-146123859D02*
X148832079Y-146171478D01*
X148117794Y-145552430D02*
X148117794Y-146028621D01*
X148451127Y-145028621D02*
X148117794Y-145552430D01*
X148117794Y-145552430D02*
X147784461Y-145028621D01*
X146927318Y-146028621D02*
X147498746Y-146028621D01*
X147213032Y-146028621D02*
X147213032Y-145028621D01*
X147213032Y-145028621D02*
X147308270Y-145171478D01*
X147308270Y-145171478D02*
X147403508Y-145266716D01*
X147403508Y-145266716D02*
X147498746Y-145314335D01*
X174396156Y-63801064D02*
X174253299Y-63848683D01*
X174253299Y-63848683D02*
X174015204Y-63848683D01*
X174015204Y-63848683D02*
X173919966Y-63801064D01*
X173919966Y-63801064D02*
X173872347Y-63753444D01*
X173872347Y-63753444D02*
X173824728Y-63658206D01*
X173824728Y-63658206D02*
X173824728Y-63562968D01*
X173824728Y-63562968D02*
X173872347Y-63467730D01*
X173872347Y-63467730D02*
X173919966Y-63420111D01*
X173919966Y-63420111D02*
X174015204Y-63372492D01*
X174015204Y-63372492D02*
X174205680Y-63324873D01*
X174205680Y-63324873D02*
X174300918Y-63277254D01*
X174300918Y-63277254D02*
X174348537Y-63229635D01*
X174348537Y-63229635D02*
X174396156Y-63134397D01*
X174396156Y-63134397D02*
X174396156Y-63039159D01*
X174396156Y-63039159D02*
X174348537Y-62943921D01*
X174348537Y-62943921D02*
X174300918Y-62896302D01*
X174300918Y-62896302D02*
X174205680Y-62848683D01*
X174205680Y-62848683D02*
X173967585Y-62848683D01*
X173967585Y-62848683D02*
X173824728Y-62896302D01*
X173491394Y-62848683D02*
X173253299Y-63848683D01*
X173253299Y-63848683D02*
X173062823Y-63134397D01*
X173062823Y-63134397D02*
X172872347Y-63848683D01*
X172872347Y-63848683D02*
X172634252Y-62848683D01*
X172348537Y-62848683D02*
X171681871Y-63848683D01*
X171681871Y-62848683D02*
X172348537Y-63848683D01*
X170872347Y-63182016D02*
X170872347Y-63848683D01*
X171110442Y-62801064D02*
X171348537Y-63515349D01*
X171348537Y-63515349D02*
X170729490Y-63515349D01*
X170300918Y-63801064D02*
X170300918Y-63848683D01*
X170300918Y-63848683D02*
X170348537Y-63943921D01*
X170348537Y-63943921D02*
X170396156Y-63991540D01*
X169681871Y-63372492D02*
X169681871Y-63848683D01*
X170015204Y-62848683D02*
X169681871Y-63372492D01*
X169681871Y-63372492D02*
X169348538Y-62848683D01*
X168586633Y-63182016D02*
X168586633Y-63848683D01*
X168824728Y-62801064D02*
X169062823Y-63515349D01*
X169062823Y-63515349D02*
X168443776Y-63515349D01*
X207650206Y-161121955D02*
X207499678Y-161117842D01*
X207499678Y-161117842D02*
X207275942Y-161036409D01*
X207275942Y-161036409D02*
X207202734Y-160959088D01*
X207202734Y-160959088D02*
X207174273Y-160898054D01*
X207174273Y-160898054D02*
X207162099Y-160792273D01*
X207162099Y-160792273D02*
X207194673Y-160702779D01*
X207194673Y-160702779D02*
X207271993Y-160629571D01*
X207271993Y-160629571D02*
X207333027Y-160601110D01*
X207333027Y-160601110D02*
X207438808Y-160588936D01*
X207438808Y-160588936D02*
X207634084Y-160609336D01*
X207634084Y-160609336D02*
X207739865Y-160597162D01*
X207739865Y-160597162D02*
X207800899Y-160568701D01*
X207800899Y-160568701D02*
X207878220Y-160495493D01*
X207878220Y-160495493D02*
X207910793Y-160405999D01*
X207910793Y-160405999D02*
X207898619Y-160300218D01*
X207898619Y-160300218D02*
X207870159Y-160239184D01*
X207870159Y-160239184D02*
X207796951Y-160161863D01*
X207796951Y-160161863D02*
X207573214Y-160080430D01*
X207573214Y-160080430D02*
X207422686Y-160076317D01*
X207125742Y-159917563D02*
X206559985Y-160775822D01*
X206559985Y-160775822D02*
X206625296Y-160039466D01*
X206625296Y-160039466D02*
X206202007Y-160645529D01*
X206202007Y-160645529D02*
X206320291Y-159624403D01*
X206051807Y-159526683D02*
X205083326Y-160238362D01*
X205425346Y-159298669D02*
X205709787Y-160466375D01*
X204888378Y-159103229D02*
X204798884Y-159070656D01*
X204798884Y-159070656D02*
X204693103Y-159082830D01*
X204693103Y-159082830D02*
X204632069Y-159111290D01*
X204632069Y-159111290D02*
X204554748Y-159184498D01*
X204554748Y-159184498D02*
X204444854Y-159347201D01*
X204444854Y-159347201D02*
X204363421Y-159570937D01*
X204363421Y-159570937D02*
X204343021Y-159766213D01*
X204343021Y-159766213D02*
X204355195Y-159871994D01*
X204355195Y-159871994D02*
X204383656Y-159933028D01*
X204383656Y-159933028D02*
X204456864Y-160010349D01*
X204456864Y-160010349D02*
X204546358Y-160042922D01*
X204546358Y-160042922D02*
X204652139Y-160030748D01*
X204652139Y-160030748D02*
X204713173Y-160002287D01*
X204713173Y-160002287D02*
X204790494Y-159929079D01*
X204790494Y-159929079D02*
X204900388Y-159766377D01*
X204900388Y-159766377D02*
X204981821Y-159542641D01*
X204981821Y-159542641D02*
X205002221Y-159347365D01*
X205002221Y-159347365D02*
X204990047Y-159241584D01*
X204990047Y-159241584D02*
X204961586Y-159180550D01*
X204961586Y-159180550D02*
X204888378Y-159103229D01*
X203801941Y-159721301D02*
X203785655Y-159766048D01*
X203785655Y-159766048D02*
X203797829Y-159871830D01*
X203797829Y-159871830D02*
X203826289Y-159932864D01*
X203366807Y-159106849D02*
X203203941Y-159554322D01*
X203859192Y-158728636D02*
X203366807Y-159106849D01*
X203366807Y-159106849D02*
X203232730Y-158500622D01*
X202402767Y-158553267D02*
X202174753Y-159179728D01*
X202756796Y-158276722D02*
X202736233Y-159029364D01*
X202736233Y-159029364D02*
X202154518Y-158817637D01*
X154243861Y-77764230D02*
X154101004Y-77811849D01*
X154101004Y-77811849D02*
X153862909Y-77811849D01*
X153862909Y-77811849D02*
X153767671Y-77764230D01*
X153767671Y-77764230D02*
X153720052Y-77716610D01*
X153720052Y-77716610D02*
X153672433Y-77621372D01*
X153672433Y-77621372D02*
X153672433Y-77526134D01*
X153672433Y-77526134D02*
X153720052Y-77430896D01*
X153720052Y-77430896D02*
X153767671Y-77383277D01*
X153767671Y-77383277D02*
X153862909Y-77335658D01*
X153862909Y-77335658D02*
X154053385Y-77288039D01*
X154053385Y-77288039D02*
X154148623Y-77240420D01*
X154148623Y-77240420D02*
X154196242Y-77192801D01*
X154196242Y-77192801D02*
X154243861Y-77097563D01*
X154243861Y-77097563D02*
X154243861Y-77002325D01*
X154243861Y-77002325D02*
X154196242Y-76907087D01*
X154196242Y-76907087D02*
X154148623Y-76859468D01*
X154148623Y-76859468D02*
X154053385Y-76811849D01*
X154053385Y-76811849D02*
X153815290Y-76811849D01*
X153815290Y-76811849D02*
X153672433Y-76859468D01*
X153339099Y-76811849D02*
X153101004Y-77811849D01*
X153101004Y-77811849D02*
X152910528Y-77097563D01*
X152910528Y-77097563D02*
X152720052Y-77811849D01*
X152720052Y-77811849D02*
X152481957Y-76811849D01*
X152196242Y-76811849D02*
X151529576Y-77811849D01*
X151529576Y-76811849D02*
X152196242Y-77811849D01*
X151243861Y-76811849D02*
X150624814Y-76811849D01*
X150624814Y-76811849D02*
X150958147Y-77192801D01*
X150958147Y-77192801D02*
X150815290Y-77192801D01*
X150815290Y-77192801D02*
X150720052Y-77240420D01*
X150720052Y-77240420D02*
X150672433Y-77288039D01*
X150672433Y-77288039D02*
X150624814Y-77383277D01*
X150624814Y-77383277D02*
X150624814Y-77621372D01*
X150624814Y-77621372D02*
X150672433Y-77716610D01*
X150672433Y-77716610D02*
X150720052Y-77764230D01*
X150720052Y-77764230D02*
X150815290Y-77811849D01*
X150815290Y-77811849D02*
X151101004Y-77811849D01*
X151101004Y-77811849D02*
X151196242Y-77764230D01*
X151196242Y-77764230D02*
X151243861Y-77716610D01*
X150148623Y-77764230D02*
X150148623Y-77811849D01*
X150148623Y-77811849D02*
X150196242Y-77907087D01*
X150196242Y-77907087D02*
X150243861Y-77954706D01*
X149529576Y-77335658D02*
X149529576Y-77811849D01*
X149862909Y-76811849D02*
X149529576Y-77335658D01*
X149529576Y-77335658D02*
X149196243Y-76811849D01*
X148958147Y-76811849D02*
X148339100Y-76811849D01*
X148339100Y-76811849D02*
X148672433Y-77192801D01*
X148672433Y-77192801D02*
X148529576Y-77192801D01*
X148529576Y-77192801D02*
X148434338Y-77240420D01*
X148434338Y-77240420D02*
X148386719Y-77288039D01*
X148386719Y-77288039D02*
X148339100Y-77383277D01*
X148339100Y-77383277D02*
X148339100Y-77621372D01*
X148339100Y-77621372D02*
X148386719Y-77716610D01*
X148386719Y-77716610D02*
X148434338Y-77764230D01*
X148434338Y-77764230D02*
X148529576Y-77811849D01*
X148529576Y-77811849D02*
X148815290Y-77811849D01*
X148815290Y-77811849D02*
X148910528Y-77764230D01*
X148910528Y-77764230D02*
X148958147Y-77716610D01*
X170421723Y-148098674D02*
X170278866Y-148146293D01*
X170278866Y-148146293D02*
X170040771Y-148146293D01*
X170040771Y-148146293D02*
X169945533Y-148098674D01*
X169945533Y-148098674D02*
X169897914Y-148051054D01*
X169897914Y-148051054D02*
X169850295Y-147955816D01*
X169850295Y-147955816D02*
X169850295Y-147860578D01*
X169850295Y-147860578D02*
X169897914Y-147765340D01*
X169897914Y-147765340D02*
X169945533Y-147717721D01*
X169945533Y-147717721D02*
X170040771Y-147670102D01*
X170040771Y-147670102D02*
X170231247Y-147622483D01*
X170231247Y-147622483D02*
X170326485Y-147574864D01*
X170326485Y-147574864D02*
X170374104Y-147527245D01*
X170374104Y-147527245D02*
X170421723Y-147432007D01*
X170421723Y-147432007D02*
X170421723Y-147336769D01*
X170421723Y-147336769D02*
X170374104Y-147241531D01*
X170374104Y-147241531D02*
X170326485Y-147193912D01*
X170326485Y-147193912D02*
X170231247Y-147146293D01*
X170231247Y-147146293D02*
X169993152Y-147146293D01*
X169993152Y-147146293D02*
X169850295Y-147193912D01*
X169516961Y-147146293D02*
X169278866Y-148146293D01*
X169278866Y-148146293D02*
X169088390Y-147432007D01*
X169088390Y-147432007D02*
X168897914Y-148146293D01*
X168897914Y-148146293D02*
X168659819Y-147146293D01*
X168374104Y-147146293D02*
X167707438Y-148146293D01*
X167707438Y-147146293D02*
X168374104Y-148146293D01*
X167136009Y-147146293D02*
X167040771Y-147146293D01*
X167040771Y-147146293D02*
X166945533Y-147193912D01*
X166945533Y-147193912D02*
X166897914Y-147241531D01*
X166897914Y-147241531D02*
X166850295Y-147336769D01*
X166850295Y-147336769D02*
X166802676Y-147527245D01*
X166802676Y-147527245D02*
X166802676Y-147765340D01*
X166802676Y-147765340D02*
X166850295Y-147955816D01*
X166850295Y-147955816D02*
X166897914Y-148051054D01*
X166897914Y-148051054D02*
X166945533Y-148098674D01*
X166945533Y-148098674D02*
X167040771Y-148146293D01*
X167040771Y-148146293D02*
X167136009Y-148146293D01*
X167136009Y-148146293D02*
X167231247Y-148098674D01*
X167231247Y-148098674D02*
X167278866Y-148051054D01*
X167278866Y-148051054D02*
X167326485Y-147955816D01*
X167326485Y-147955816D02*
X167374104Y-147765340D01*
X167374104Y-147765340D02*
X167374104Y-147527245D01*
X167374104Y-147527245D02*
X167326485Y-147336769D01*
X167326485Y-147336769D02*
X167278866Y-147241531D01*
X167278866Y-147241531D02*
X167231247Y-147193912D01*
X167231247Y-147193912D02*
X167136009Y-147146293D01*
X166326485Y-148098674D02*
X166326485Y-148146293D01*
X166326485Y-148146293D02*
X166374104Y-148241531D01*
X166374104Y-148241531D02*
X166421723Y-148289150D01*
X165707438Y-147670102D02*
X165707438Y-148146293D01*
X166040771Y-147146293D02*
X165707438Y-147670102D01*
X165707438Y-147670102D02*
X165374105Y-147146293D01*
X165088390Y-147241531D02*
X165040771Y-147193912D01*
X165040771Y-147193912D02*
X164945533Y-147146293D01*
X164945533Y-147146293D02*
X164707438Y-147146293D01*
X164707438Y-147146293D02*
X164612200Y-147193912D01*
X164612200Y-147193912D02*
X164564581Y-147241531D01*
X164564581Y-147241531D02*
X164516962Y-147336769D01*
X164516962Y-147336769D02*
X164516962Y-147432007D01*
X164516962Y-147432007D02*
X164564581Y-147574864D01*
X164564581Y-147574864D02*
X165136009Y-148146293D01*
X165136009Y-148146293D02*
X164516962Y-148146293D01*
X116676880Y-135854370D02*
X116534023Y-135901989D01*
X116534023Y-135901989D02*
X116295928Y-135901989D01*
X116295928Y-135901989D02*
X116200690Y-135854370D01*
X116200690Y-135854370D02*
X116153071Y-135806750D01*
X116153071Y-135806750D02*
X116105452Y-135711512D01*
X116105452Y-135711512D02*
X116105452Y-135616274D01*
X116105452Y-135616274D02*
X116153071Y-135521036D01*
X116153071Y-135521036D02*
X116200690Y-135473417D01*
X116200690Y-135473417D02*
X116295928Y-135425798D01*
X116295928Y-135425798D02*
X116486404Y-135378179D01*
X116486404Y-135378179D02*
X116581642Y-135330560D01*
X116581642Y-135330560D02*
X116629261Y-135282941D01*
X116629261Y-135282941D02*
X116676880Y-135187703D01*
X116676880Y-135187703D02*
X116676880Y-135092465D01*
X116676880Y-135092465D02*
X116629261Y-134997227D01*
X116629261Y-134997227D02*
X116581642Y-134949608D01*
X116581642Y-134949608D02*
X116486404Y-134901989D01*
X116486404Y-134901989D02*
X116248309Y-134901989D01*
X116248309Y-134901989D02*
X116105452Y-134949608D01*
X115772118Y-134901989D02*
X115534023Y-135901989D01*
X115534023Y-135901989D02*
X115343547Y-135187703D01*
X115343547Y-135187703D02*
X115153071Y-135901989D01*
X115153071Y-135901989D02*
X114914976Y-134901989D01*
X114629261Y-134901989D02*
X113962595Y-135901989D01*
X113962595Y-134901989D02*
X114629261Y-135901989D01*
X113057833Y-135901989D02*
X113629261Y-135901989D01*
X113343547Y-135901989D02*
X113343547Y-134901989D01*
X113343547Y-134901989D02*
X113438785Y-135044846D01*
X113438785Y-135044846D02*
X113534023Y-135140084D01*
X113534023Y-135140084D02*
X113629261Y-135187703D01*
X112581642Y-135854370D02*
X112581642Y-135901989D01*
X112581642Y-135901989D02*
X112629261Y-135997227D01*
X112629261Y-135997227D02*
X112676880Y-136044846D01*
X111962595Y-135425798D02*
X111962595Y-135901989D01*
X112295928Y-134901989D02*
X111962595Y-135425798D01*
X111962595Y-135425798D02*
X111629262Y-134901989D01*
X110772119Y-135901989D02*
X111343547Y-135901989D01*
X111057833Y-135901989D02*
X111057833Y-134901989D01*
X111057833Y-134901989D02*
X111153071Y-135044846D01*
X111153071Y-135044846D02*
X111248309Y-135140084D01*
X111248309Y-135140084D02*
X111343547Y-135187703D01*
X130944746Y-126748190D02*
X130944746Y-125748190D01*
X130944746Y-125748190D02*
X130706651Y-125748190D01*
X130706651Y-125748190D02*
X130563794Y-125795809D01*
X130563794Y-125795809D02*
X130468556Y-125891047D01*
X130468556Y-125891047D02*
X130420937Y-125986285D01*
X130420937Y-125986285D02*
X130373318Y-126176761D01*
X130373318Y-126176761D02*
X130373318Y-126319618D01*
X130373318Y-126319618D02*
X130420937Y-126510094D01*
X130420937Y-126510094D02*
X130468556Y-126605332D01*
X130468556Y-126605332D02*
X130563794Y-126700571D01*
X130563794Y-126700571D02*
X130706651Y-126748190D01*
X130706651Y-126748190D02*
X130944746Y-126748190D01*
X130039984Y-125748190D02*
X129373318Y-126748190D01*
X129373318Y-125748190D02*
X130039984Y-126748190D01*
X128468556Y-126748190D02*
X129039984Y-126748190D01*
X128754270Y-126748190D02*
X128754270Y-125748190D01*
X128754270Y-125748190D02*
X128849508Y-125891047D01*
X128849508Y-125891047D02*
X128944746Y-125986285D01*
X128944746Y-125986285D02*
X129039984Y-126033904D01*
X127992365Y-126700571D02*
X127992365Y-126748190D01*
X127992365Y-126748190D02*
X128039984Y-126843428D01*
X128039984Y-126843428D02*
X128087603Y-126891047D01*
X127373318Y-126271999D02*
X127373318Y-126748190D01*
X127706651Y-125748190D02*
X127373318Y-126271999D01*
X127373318Y-126271999D02*
X127039985Y-125748190D01*
X126754270Y-125843428D02*
X126706651Y-125795809D01*
X126706651Y-125795809D02*
X126611413Y-125748190D01*
X126611413Y-125748190D02*
X126373318Y-125748190D01*
X126373318Y-125748190D02*
X126278080Y-125795809D01*
X126278080Y-125795809D02*
X126230461Y-125843428D01*
X126230461Y-125843428D02*
X126182842Y-125938666D01*
X126182842Y-125938666D02*
X126182842Y-126033904D01*
X126182842Y-126033904D02*
X126230461Y-126176761D01*
X126230461Y-126176761D02*
X126801889Y-126748190D01*
X126801889Y-126748190D02*
X126182842Y-126748190D01*
X192536924Y-65443832D02*
X192394067Y-65491451D01*
X192394067Y-65491451D02*
X192155972Y-65491451D01*
X192155972Y-65491451D02*
X192060734Y-65443832D01*
X192060734Y-65443832D02*
X192013115Y-65396212D01*
X192013115Y-65396212D02*
X191965496Y-65300974D01*
X191965496Y-65300974D02*
X191965496Y-65205736D01*
X191965496Y-65205736D02*
X192013115Y-65110498D01*
X192013115Y-65110498D02*
X192060734Y-65062879D01*
X192060734Y-65062879D02*
X192155972Y-65015260D01*
X192155972Y-65015260D02*
X192346448Y-64967641D01*
X192346448Y-64967641D02*
X192441686Y-64920022D01*
X192441686Y-64920022D02*
X192489305Y-64872403D01*
X192489305Y-64872403D02*
X192536924Y-64777165D01*
X192536924Y-64777165D02*
X192536924Y-64681927D01*
X192536924Y-64681927D02*
X192489305Y-64586689D01*
X192489305Y-64586689D02*
X192441686Y-64539070D01*
X192441686Y-64539070D02*
X192346448Y-64491451D01*
X192346448Y-64491451D02*
X192108353Y-64491451D01*
X192108353Y-64491451D02*
X191965496Y-64539070D01*
X191632162Y-64491451D02*
X191394067Y-65491451D01*
X191394067Y-65491451D02*
X191203591Y-64777165D01*
X191203591Y-64777165D02*
X191013115Y-65491451D01*
X191013115Y-65491451D02*
X190775020Y-64491451D01*
X190489305Y-64491451D02*
X189822639Y-65491451D01*
X189822639Y-64491451D02*
X190489305Y-65491451D01*
X189013115Y-64824784D02*
X189013115Y-65491451D01*
X189251210Y-64443832D02*
X189489305Y-65158117D01*
X189489305Y-65158117D02*
X188870258Y-65158117D01*
X188441686Y-65443832D02*
X188441686Y-65491451D01*
X188441686Y-65491451D02*
X188489305Y-65586689D01*
X188489305Y-65586689D02*
X188536924Y-65634308D01*
X187822639Y-65015260D02*
X187822639Y-65491451D01*
X188155972Y-64491451D02*
X187822639Y-65015260D01*
X187822639Y-65015260D02*
X187489306Y-64491451D01*
X186679782Y-64491451D02*
X187155972Y-64491451D01*
X187155972Y-64491451D02*
X187203591Y-64967641D01*
X187203591Y-64967641D02*
X187155972Y-64920022D01*
X187155972Y-64920022D02*
X187060734Y-64872403D01*
X187060734Y-64872403D02*
X186822639Y-64872403D01*
X186822639Y-64872403D02*
X186727401Y-64920022D01*
X186727401Y-64920022D02*
X186679782Y-64967641D01*
X186679782Y-64967641D02*
X186632163Y-65062879D01*
X186632163Y-65062879D02*
X186632163Y-65300974D01*
X186632163Y-65300974D02*
X186679782Y-65396212D01*
X186679782Y-65396212D02*
X186727401Y-65443832D01*
X186727401Y-65443832D02*
X186822639Y-65491451D01*
X186822639Y-65491451D02*
X187060734Y-65491451D01*
X187060734Y-65491451D02*
X187155972Y-65443832D01*
X187155972Y-65443832D02*
X187203591Y-65396212D01*
X94584666Y-114548087D02*
X94584666Y-113548087D01*
X94584666Y-113548087D02*
X94346571Y-113548087D01*
X94346571Y-113548087D02*
X94203714Y-113595706D01*
X94203714Y-113595706D02*
X94108476Y-113690944D01*
X94108476Y-113690944D02*
X94060857Y-113786182D01*
X94060857Y-113786182D02*
X94013238Y-113976658D01*
X94013238Y-113976658D02*
X94013238Y-114119515D01*
X94013238Y-114119515D02*
X94060857Y-114309991D01*
X94060857Y-114309991D02*
X94108476Y-114405229D01*
X94108476Y-114405229D02*
X94203714Y-114500468D01*
X94203714Y-114500468D02*
X94346571Y-114548087D01*
X94346571Y-114548087D02*
X94584666Y-114548087D01*
X93679904Y-113548087D02*
X93013238Y-114548087D01*
X93013238Y-113548087D02*
X93679904Y-114548087D01*
X92679904Y-113643325D02*
X92632285Y-113595706D01*
X92632285Y-113595706D02*
X92537047Y-113548087D01*
X92537047Y-113548087D02*
X92298952Y-113548087D01*
X92298952Y-113548087D02*
X92203714Y-113595706D01*
X92203714Y-113595706D02*
X92156095Y-113643325D01*
X92156095Y-113643325D02*
X92108476Y-113738563D01*
X92108476Y-113738563D02*
X92108476Y-113833801D01*
X92108476Y-113833801D02*
X92156095Y-113976658D01*
X92156095Y-113976658D02*
X92727523Y-114548087D01*
X92727523Y-114548087D02*
X92108476Y-114548087D01*
X91632285Y-114500468D02*
X91632285Y-114548087D01*
X91632285Y-114548087D02*
X91679904Y-114643325D01*
X91679904Y-114643325D02*
X91727523Y-114690944D01*
X91013238Y-114071896D02*
X91013238Y-114548087D01*
X91346571Y-113548087D02*
X91013238Y-114071896D01*
X91013238Y-114071896D02*
X90679905Y-113548087D01*
X90156095Y-113548087D02*
X90060857Y-113548087D01*
X90060857Y-113548087D02*
X89965619Y-113595706D01*
X89965619Y-113595706D02*
X89918000Y-113643325D01*
X89918000Y-113643325D02*
X89870381Y-113738563D01*
X89870381Y-113738563D02*
X89822762Y-113929039D01*
X89822762Y-113929039D02*
X89822762Y-114167134D01*
X89822762Y-114167134D02*
X89870381Y-114357610D01*
X89870381Y-114357610D02*
X89918000Y-114452848D01*
X89918000Y-114452848D02*
X89965619Y-114500468D01*
X89965619Y-114500468D02*
X90060857Y-114548087D01*
X90060857Y-114548087D02*
X90156095Y-114548087D01*
X90156095Y-114548087D02*
X90251333Y-114500468D01*
X90251333Y-114500468D02*
X90298952Y-114452848D01*
X90298952Y-114452848D02*
X90346571Y-114357610D01*
X90346571Y-114357610D02*
X90394190Y-114167134D01*
X90394190Y-114167134D02*
X90394190Y-113929039D01*
X90394190Y-113929039D02*
X90346571Y-113738563D01*
X90346571Y-113738563D02*
X90298952Y-113643325D01*
X90298952Y-113643325D02*
X90251333Y-113595706D01*
X90251333Y-113595706D02*
X90156095Y-113548087D01*
X94693691Y-84409478D02*
X94550834Y-84457097D01*
X94550834Y-84457097D02*
X94312739Y-84457097D01*
X94312739Y-84457097D02*
X94217501Y-84409478D01*
X94217501Y-84409478D02*
X94169882Y-84361858D01*
X94169882Y-84361858D02*
X94122263Y-84266620D01*
X94122263Y-84266620D02*
X94122263Y-84171382D01*
X94122263Y-84171382D02*
X94169882Y-84076144D01*
X94169882Y-84076144D02*
X94217501Y-84028525D01*
X94217501Y-84028525D02*
X94312739Y-83980906D01*
X94312739Y-83980906D02*
X94503215Y-83933287D01*
X94503215Y-83933287D02*
X94598453Y-83885668D01*
X94598453Y-83885668D02*
X94646072Y-83838049D01*
X94646072Y-83838049D02*
X94693691Y-83742811D01*
X94693691Y-83742811D02*
X94693691Y-83647573D01*
X94693691Y-83647573D02*
X94646072Y-83552335D01*
X94646072Y-83552335D02*
X94598453Y-83504716D01*
X94598453Y-83504716D02*
X94503215Y-83457097D01*
X94503215Y-83457097D02*
X94265120Y-83457097D01*
X94265120Y-83457097D02*
X94122263Y-83504716D01*
X93788929Y-83457097D02*
X93550834Y-84457097D01*
X93550834Y-84457097D02*
X93360358Y-83742811D01*
X93360358Y-83742811D02*
X93169882Y-84457097D01*
X93169882Y-84457097D02*
X92931787Y-83457097D01*
X92646072Y-83457097D02*
X91979406Y-84457097D01*
X91979406Y-83457097D02*
X92646072Y-84457097D01*
X91693691Y-83457097D02*
X91074644Y-83457097D01*
X91074644Y-83457097D02*
X91407977Y-83838049D01*
X91407977Y-83838049D02*
X91265120Y-83838049D01*
X91265120Y-83838049D02*
X91169882Y-83885668D01*
X91169882Y-83885668D02*
X91122263Y-83933287D01*
X91122263Y-83933287D02*
X91074644Y-84028525D01*
X91074644Y-84028525D02*
X91074644Y-84266620D01*
X91074644Y-84266620D02*
X91122263Y-84361858D01*
X91122263Y-84361858D02*
X91169882Y-84409478D01*
X91169882Y-84409478D02*
X91265120Y-84457097D01*
X91265120Y-84457097D02*
X91550834Y-84457097D01*
X91550834Y-84457097D02*
X91646072Y-84409478D01*
X91646072Y-84409478D02*
X91693691Y-84361858D01*
X90598453Y-84409478D02*
X90598453Y-84457097D01*
X90598453Y-84457097D02*
X90646072Y-84552335D01*
X90646072Y-84552335D02*
X90693691Y-84599954D01*
X89979406Y-83980906D02*
X89979406Y-84457097D01*
X90312739Y-83457097D02*
X89979406Y-83980906D01*
X89979406Y-83980906D02*
X89646073Y-83457097D01*
X89122263Y-83457097D02*
X89027025Y-83457097D01*
X89027025Y-83457097D02*
X88931787Y-83504716D01*
X88931787Y-83504716D02*
X88884168Y-83552335D01*
X88884168Y-83552335D02*
X88836549Y-83647573D01*
X88836549Y-83647573D02*
X88788930Y-83838049D01*
X88788930Y-83838049D02*
X88788930Y-84076144D01*
X88788930Y-84076144D02*
X88836549Y-84266620D01*
X88836549Y-84266620D02*
X88884168Y-84361858D01*
X88884168Y-84361858D02*
X88931787Y-84409478D01*
X88931787Y-84409478D02*
X89027025Y-84457097D01*
X89027025Y-84457097D02*
X89122263Y-84457097D01*
X89122263Y-84457097D02*
X89217501Y-84409478D01*
X89217501Y-84409478D02*
X89265120Y-84361858D01*
X89265120Y-84361858D02*
X89312739Y-84266620D01*
X89312739Y-84266620D02*
X89360358Y-84076144D01*
X89360358Y-84076144D02*
X89360358Y-83838049D01*
X89360358Y-83838049D02*
X89312739Y-83647573D01*
X89312739Y-83647573D02*
X89265120Y-83552335D01*
X89265120Y-83552335D02*
X89217501Y-83504716D01*
X89217501Y-83504716D02*
X89122263Y-83457097D01*
X184782184Y-112095015D02*
X184782184Y-111095015D01*
X184782184Y-111095015D02*
X184544089Y-111095015D01*
X184544089Y-111095015D02*
X184401232Y-111142634D01*
X184401232Y-111142634D02*
X184305994Y-111237872D01*
X184305994Y-111237872D02*
X184258375Y-111333110D01*
X184258375Y-111333110D02*
X184210756Y-111523586D01*
X184210756Y-111523586D02*
X184210756Y-111666443D01*
X184210756Y-111666443D02*
X184258375Y-111856919D01*
X184258375Y-111856919D02*
X184305994Y-111952157D01*
X184305994Y-111952157D02*
X184401232Y-112047396D01*
X184401232Y-112047396D02*
X184544089Y-112095015D01*
X184544089Y-112095015D02*
X184782184Y-112095015D01*
X183877422Y-111095015D02*
X183210756Y-112095015D01*
X183210756Y-111095015D02*
X183877422Y-112095015D01*
X182877422Y-111190253D02*
X182829803Y-111142634D01*
X182829803Y-111142634D02*
X182734565Y-111095015D01*
X182734565Y-111095015D02*
X182496470Y-111095015D01*
X182496470Y-111095015D02*
X182401232Y-111142634D01*
X182401232Y-111142634D02*
X182353613Y-111190253D01*
X182353613Y-111190253D02*
X182305994Y-111285491D01*
X182305994Y-111285491D02*
X182305994Y-111380729D01*
X182305994Y-111380729D02*
X182353613Y-111523586D01*
X182353613Y-111523586D02*
X182925041Y-112095015D01*
X182925041Y-112095015D02*
X182305994Y-112095015D01*
X181829803Y-112047396D02*
X181829803Y-112095015D01*
X181829803Y-112095015D02*
X181877422Y-112190253D01*
X181877422Y-112190253D02*
X181925041Y-112237872D01*
X181210756Y-111618824D02*
X181210756Y-112095015D01*
X181544089Y-111095015D02*
X181210756Y-111618824D01*
X181210756Y-111618824D02*
X180877423Y-111095015D01*
X180067899Y-111095015D02*
X180544089Y-111095015D01*
X180544089Y-111095015D02*
X180591708Y-111571205D01*
X180591708Y-111571205D02*
X180544089Y-111523586D01*
X180544089Y-111523586D02*
X180448851Y-111475967D01*
X180448851Y-111475967D02*
X180210756Y-111475967D01*
X180210756Y-111475967D02*
X180115518Y-111523586D01*
X180115518Y-111523586D02*
X180067899Y-111571205D01*
X180067899Y-111571205D02*
X180020280Y-111666443D01*
X180020280Y-111666443D02*
X180020280Y-111904538D01*
X180020280Y-111904538D02*
X180067899Y-111999776D01*
X180067899Y-111999776D02*
X180115518Y-112047396D01*
X180115518Y-112047396D02*
X180210756Y-112095015D01*
X180210756Y-112095015D02*
X180448851Y-112095015D01*
X180448851Y-112095015D02*
X180544089Y-112047396D01*
X180544089Y-112047396D02*
X180591708Y-111999776D01*
X112837228Y-114524324D02*
X112837228Y-113524324D01*
X112837228Y-113524324D02*
X112599133Y-113524324D01*
X112599133Y-113524324D02*
X112456276Y-113571943D01*
X112456276Y-113571943D02*
X112361038Y-113667181D01*
X112361038Y-113667181D02*
X112313419Y-113762419D01*
X112313419Y-113762419D02*
X112265800Y-113952895D01*
X112265800Y-113952895D02*
X112265800Y-114095752D01*
X112265800Y-114095752D02*
X112313419Y-114286228D01*
X112313419Y-114286228D02*
X112361038Y-114381466D01*
X112361038Y-114381466D02*
X112456276Y-114476705D01*
X112456276Y-114476705D02*
X112599133Y-114524324D01*
X112599133Y-114524324D02*
X112837228Y-114524324D01*
X111932466Y-113524324D02*
X111265800Y-114524324D01*
X111265800Y-113524324D02*
X111932466Y-114524324D01*
X110932466Y-113619562D02*
X110884847Y-113571943D01*
X110884847Y-113571943D02*
X110789609Y-113524324D01*
X110789609Y-113524324D02*
X110551514Y-113524324D01*
X110551514Y-113524324D02*
X110456276Y-113571943D01*
X110456276Y-113571943D02*
X110408657Y-113619562D01*
X110408657Y-113619562D02*
X110361038Y-113714800D01*
X110361038Y-113714800D02*
X110361038Y-113810038D01*
X110361038Y-113810038D02*
X110408657Y-113952895D01*
X110408657Y-113952895D02*
X110980085Y-114524324D01*
X110980085Y-114524324D02*
X110361038Y-114524324D01*
X109884847Y-114476705D02*
X109884847Y-114524324D01*
X109884847Y-114524324D02*
X109932466Y-114619562D01*
X109932466Y-114619562D02*
X109980085Y-114667181D01*
X109265800Y-114048133D02*
X109265800Y-114524324D01*
X109599133Y-113524324D02*
X109265800Y-114048133D01*
X109265800Y-114048133D02*
X108932467Y-113524324D01*
X108075324Y-114524324D02*
X108646752Y-114524324D01*
X108361038Y-114524324D02*
X108361038Y-113524324D01*
X108361038Y-113524324D02*
X108456276Y-113667181D01*
X108456276Y-113667181D02*
X108551514Y-113762419D01*
X108551514Y-113762419D02*
X108646752Y-113810038D01*
X116959705Y-67301705D02*
X116816848Y-67349324D01*
X116816848Y-67349324D02*
X116578753Y-67349324D01*
X116578753Y-67349324D02*
X116483515Y-67301705D01*
X116483515Y-67301705D02*
X116435896Y-67254085D01*
X116435896Y-67254085D02*
X116388277Y-67158847D01*
X116388277Y-67158847D02*
X116388277Y-67063609D01*
X116388277Y-67063609D02*
X116435896Y-66968371D01*
X116435896Y-66968371D02*
X116483515Y-66920752D01*
X116483515Y-66920752D02*
X116578753Y-66873133D01*
X116578753Y-66873133D02*
X116769229Y-66825514D01*
X116769229Y-66825514D02*
X116864467Y-66777895D01*
X116864467Y-66777895D02*
X116912086Y-66730276D01*
X116912086Y-66730276D02*
X116959705Y-66635038D01*
X116959705Y-66635038D02*
X116959705Y-66539800D01*
X116959705Y-66539800D02*
X116912086Y-66444562D01*
X116912086Y-66444562D02*
X116864467Y-66396943D01*
X116864467Y-66396943D02*
X116769229Y-66349324D01*
X116769229Y-66349324D02*
X116531134Y-66349324D01*
X116531134Y-66349324D02*
X116388277Y-66396943D01*
X116054943Y-66349324D02*
X115816848Y-67349324D01*
X115816848Y-67349324D02*
X115626372Y-66635038D01*
X115626372Y-66635038D02*
X115435896Y-67349324D01*
X115435896Y-67349324D02*
X115197801Y-66349324D01*
X114912086Y-66349324D02*
X114245420Y-67349324D01*
X114245420Y-66349324D02*
X114912086Y-67349324D01*
X113435896Y-66682657D02*
X113435896Y-67349324D01*
X113673991Y-66301705D02*
X113912086Y-67015990D01*
X113912086Y-67015990D02*
X113293039Y-67015990D01*
X112864467Y-67301705D02*
X112864467Y-67349324D01*
X112864467Y-67349324D02*
X112912086Y-67444562D01*
X112912086Y-67444562D02*
X112959705Y-67492181D01*
X112245420Y-66873133D02*
X112245420Y-67349324D01*
X112578753Y-66349324D02*
X112245420Y-66873133D01*
X112245420Y-66873133D02*
X111912087Y-66349324D01*
X111054944Y-67349324D02*
X111626372Y-67349324D01*
X111340658Y-67349324D02*
X111340658Y-66349324D01*
X111340658Y-66349324D02*
X111435896Y-66492181D01*
X111435896Y-66492181D02*
X111531134Y-66587419D01*
X111531134Y-66587419D02*
X111626372Y-66635038D01*
X130722015Y-143645610D02*
X130722015Y-142645610D01*
X130722015Y-142645610D02*
X130483920Y-142645610D01*
X130483920Y-142645610D02*
X130341063Y-142693229D01*
X130341063Y-142693229D02*
X130245825Y-142788467D01*
X130245825Y-142788467D02*
X130198206Y-142883705D01*
X130198206Y-142883705D02*
X130150587Y-143074181D01*
X130150587Y-143074181D02*
X130150587Y-143217038D01*
X130150587Y-143217038D02*
X130198206Y-143407514D01*
X130198206Y-143407514D02*
X130245825Y-143502752D01*
X130245825Y-143502752D02*
X130341063Y-143597991D01*
X130341063Y-143597991D02*
X130483920Y-143645610D01*
X130483920Y-143645610D02*
X130722015Y-143645610D01*
X129817253Y-142645610D02*
X129150587Y-143645610D01*
X129150587Y-142645610D02*
X129817253Y-143645610D01*
X128579158Y-142645610D02*
X128483920Y-142645610D01*
X128483920Y-142645610D02*
X128388682Y-142693229D01*
X128388682Y-142693229D02*
X128341063Y-142740848D01*
X128341063Y-142740848D02*
X128293444Y-142836086D01*
X128293444Y-142836086D02*
X128245825Y-143026562D01*
X128245825Y-143026562D02*
X128245825Y-143264657D01*
X128245825Y-143264657D02*
X128293444Y-143455133D01*
X128293444Y-143455133D02*
X128341063Y-143550371D01*
X128341063Y-143550371D02*
X128388682Y-143597991D01*
X128388682Y-143597991D02*
X128483920Y-143645610D01*
X128483920Y-143645610D02*
X128579158Y-143645610D01*
X128579158Y-143645610D02*
X128674396Y-143597991D01*
X128674396Y-143597991D02*
X128722015Y-143550371D01*
X128722015Y-143550371D02*
X128769634Y-143455133D01*
X128769634Y-143455133D02*
X128817253Y-143264657D01*
X128817253Y-143264657D02*
X128817253Y-143026562D01*
X128817253Y-143026562D02*
X128769634Y-142836086D01*
X128769634Y-142836086D02*
X128722015Y-142740848D01*
X128722015Y-142740848D02*
X128674396Y-142693229D01*
X128674396Y-142693229D02*
X128579158Y-142645610D01*
X127769634Y-143597991D02*
X127769634Y-143645610D01*
X127769634Y-143645610D02*
X127817253Y-143740848D01*
X127817253Y-143740848D02*
X127864872Y-143788467D01*
X127150587Y-143169419D02*
X127150587Y-143645610D01*
X127483920Y-142645610D02*
X127150587Y-143169419D01*
X127150587Y-143169419D02*
X126817254Y-142645610D01*
X126293444Y-142645610D02*
X126198206Y-142645610D01*
X126198206Y-142645610D02*
X126102968Y-142693229D01*
X126102968Y-142693229D02*
X126055349Y-142740848D01*
X126055349Y-142740848D02*
X126007730Y-142836086D01*
X126007730Y-142836086D02*
X125960111Y-143026562D01*
X125960111Y-143026562D02*
X125960111Y-143264657D01*
X125960111Y-143264657D02*
X126007730Y-143455133D01*
X126007730Y-143455133D02*
X126055349Y-143550371D01*
X126055349Y-143550371D02*
X126102968Y-143597991D01*
X126102968Y-143597991D02*
X126198206Y-143645610D01*
X126198206Y-143645610D02*
X126293444Y-143645610D01*
X126293444Y-143645610D02*
X126388682Y-143597991D01*
X126388682Y-143597991D02*
X126436301Y-143550371D01*
X126436301Y-143550371D02*
X126483920Y-143455133D01*
X126483920Y-143455133D02*
X126531539Y-143264657D01*
X126531539Y-143264657D02*
X126531539Y-143026562D01*
X126531539Y-143026562D02*
X126483920Y-142836086D01*
X126483920Y-142836086D02*
X126436301Y-142740848D01*
X126436301Y-142740848D02*
X126388682Y-142693229D01*
X126388682Y-142693229D02*
X126293444Y-142645610D01*
X189904456Y-82634790D02*
X189761599Y-82682409D01*
X189761599Y-82682409D02*
X189523504Y-82682409D01*
X189523504Y-82682409D02*
X189428266Y-82634790D01*
X189428266Y-82634790D02*
X189380647Y-82587170D01*
X189380647Y-82587170D02*
X189333028Y-82491932D01*
X189333028Y-82491932D02*
X189333028Y-82396694D01*
X189333028Y-82396694D02*
X189380647Y-82301456D01*
X189380647Y-82301456D02*
X189428266Y-82253837D01*
X189428266Y-82253837D02*
X189523504Y-82206218D01*
X189523504Y-82206218D02*
X189713980Y-82158599D01*
X189713980Y-82158599D02*
X189809218Y-82110980D01*
X189809218Y-82110980D02*
X189856837Y-82063361D01*
X189856837Y-82063361D02*
X189904456Y-81968123D01*
X189904456Y-81968123D02*
X189904456Y-81872885D01*
X189904456Y-81872885D02*
X189856837Y-81777647D01*
X189856837Y-81777647D02*
X189809218Y-81730028D01*
X189809218Y-81730028D02*
X189713980Y-81682409D01*
X189713980Y-81682409D02*
X189475885Y-81682409D01*
X189475885Y-81682409D02*
X189333028Y-81730028D01*
X188999694Y-81682409D02*
X188761599Y-82682409D01*
X188761599Y-82682409D02*
X188571123Y-81968123D01*
X188571123Y-81968123D02*
X188380647Y-82682409D01*
X188380647Y-82682409D02*
X188142552Y-81682409D01*
X187856837Y-81682409D02*
X187190171Y-82682409D01*
X187190171Y-81682409D02*
X187856837Y-82682409D01*
X186904456Y-81682409D02*
X186285409Y-81682409D01*
X186285409Y-81682409D02*
X186618742Y-82063361D01*
X186618742Y-82063361D02*
X186475885Y-82063361D01*
X186475885Y-82063361D02*
X186380647Y-82110980D01*
X186380647Y-82110980D02*
X186333028Y-82158599D01*
X186333028Y-82158599D02*
X186285409Y-82253837D01*
X186285409Y-82253837D02*
X186285409Y-82491932D01*
X186285409Y-82491932D02*
X186333028Y-82587170D01*
X186333028Y-82587170D02*
X186380647Y-82634790D01*
X186380647Y-82634790D02*
X186475885Y-82682409D01*
X186475885Y-82682409D02*
X186761599Y-82682409D01*
X186761599Y-82682409D02*
X186856837Y-82634790D01*
X186856837Y-82634790D02*
X186904456Y-82587170D01*
X185809218Y-82634790D02*
X185809218Y-82682409D01*
X185809218Y-82682409D02*
X185856837Y-82777647D01*
X185856837Y-82777647D02*
X185904456Y-82825266D01*
X185190171Y-82206218D02*
X185190171Y-82682409D01*
X185523504Y-81682409D02*
X185190171Y-82206218D01*
X185190171Y-82206218D02*
X184856838Y-81682409D01*
X184047314Y-81682409D02*
X184523504Y-81682409D01*
X184523504Y-81682409D02*
X184571123Y-82158599D01*
X184571123Y-82158599D02*
X184523504Y-82110980D01*
X184523504Y-82110980D02*
X184428266Y-82063361D01*
X184428266Y-82063361D02*
X184190171Y-82063361D01*
X184190171Y-82063361D02*
X184094933Y-82110980D01*
X184094933Y-82110980D02*
X184047314Y-82158599D01*
X184047314Y-82158599D02*
X183999695Y-82253837D01*
X183999695Y-82253837D02*
X183999695Y-82491932D01*
X183999695Y-82491932D02*
X184047314Y-82587170D01*
X184047314Y-82587170D02*
X184094933Y-82634790D01*
X184094933Y-82634790D02*
X184190171Y-82682409D01*
X184190171Y-82682409D02*
X184428266Y-82682409D01*
X184428266Y-82682409D02*
X184523504Y-82634790D01*
X184523504Y-82634790D02*
X184571123Y-82587170D01*
X149124668Y-107038779D02*
X149124668Y-106038779D01*
X149124668Y-106038779D02*
X148886573Y-106038779D01*
X148886573Y-106038779D02*
X148743716Y-106086398D01*
X148743716Y-106086398D02*
X148648478Y-106181636D01*
X148648478Y-106181636D02*
X148600859Y-106276874D01*
X148600859Y-106276874D02*
X148553240Y-106467350D01*
X148553240Y-106467350D02*
X148553240Y-106610207D01*
X148553240Y-106610207D02*
X148600859Y-106800683D01*
X148600859Y-106800683D02*
X148648478Y-106895921D01*
X148648478Y-106895921D02*
X148743716Y-106991160D01*
X148743716Y-106991160D02*
X148886573Y-107038779D01*
X148886573Y-107038779D02*
X149124668Y-107038779D01*
X148219906Y-106038779D02*
X147553240Y-107038779D01*
X147553240Y-106038779D02*
X148219906Y-107038779D01*
X147219906Y-106134017D02*
X147172287Y-106086398D01*
X147172287Y-106086398D02*
X147077049Y-106038779D01*
X147077049Y-106038779D02*
X146838954Y-106038779D01*
X146838954Y-106038779D02*
X146743716Y-106086398D01*
X146743716Y-106086398D02*
X146696097Y-106134017D01*
X146696097Y-106134017D02*
X146648478Y-106229255D01*
X146648478Y-106229255D02*
X146648478Y-106324493D01*
X146648478Y-106324493D02*
X146696097Y-106467350D01*
X146696097Y-106467350D02*
X147267525Y-107038779D01*
X147267525Y-107038779D02*
X146648478Y-107038779D01*
X146172287Y-106991160D02*
X146172287Y-107038779D01*
X146172287Y-107038779D02*
X146219906Y-107134017D01*
X146219906Y-107134017D02*
X146267525Y-107181636D01*
X145553240Y-106562588D02*
X145553240Y-107038779D01*
X145886573Y-106038779D02*
X145553240Y-106562588D01*
X145553240Y-106562588D02*
X145219907Y-106038779D01*
X144981811Y-106038779D02*
X144362764Y-106038779D01*
X144362764Y-106038779D02*
X144696097Y-106419731D01*
X144696097Y-106419731D02*
X144553240Y-106419731D01*
X144553240Y-106419731D02*
X144458002Y-106467350D01*
X144458002Y-106467350D02*
X144410383Y-106514969D01*
X144410383Y-106514969D02*
X144362764Y-106610207D01*
X144362764Y-106610207D02*
X144362764Y-106848302D01*
X144362764Y-106848302D02*
X144410383Y-106943540D01*
X144410383Y-106943540D02*
X144458002Y-106991160D01*
X144458002Y-106991160D02*
X144553240Y-107038779D01*
X144553240Y-107038779D02*
X144838954Y-107038779D01*
X144838954Y-107038779D02*
X144934192Y-106991160D01*
X144934192Y-106991160D02*
X144981811Y-106943540D01*
X94562380Y-101557200D02*
X94419523Y-101604819D01*
X94419523Y-101604819D02*
X94181428Y-101604819D01*
X94181428Y-101604819D02*
X94086190Y-101557200D01*
X94086190Y-101557200D02*
X94038571Y-101509580D01*
X94038571Y-101509580D02*
X93990952Y-101414342D01*
X93990952Y-101414342D02*
X93990952Y-101319104D01*
X93990952Y-101319104D02*
X94038571Y-101223866D01*
X94038571Y-101223866D02*
X94086190Y-101176247D01*
X94086190Y-101176247D02*
X94181428Y-101128628D01*
X94181428Y-101128628D02*
X94371904Y-101081009D01*
X94371904Y-101081009D02*
X94467142Y-101033390D01*
X94467142Y-101033390D02*
X94514761Y-100985771D01*
X94514761Y-100985771D02*
X94562380Y-100890533D01*
X94562380Y-100890533D02*
X94562380Y-100795295D01*
X94562380Y-100795295D02*
X94514761Y-100700057D01*
X94514761Y-100700057D02*
X94467142Y-100652438D01*
X94467142Y-100652438D02*
X94371904Y-100604819D01*
X94371904Y-100604819D02*
X94133809Y-100604819D01*
X94133809Y-100604819D02*
X93990952Y-100652438D01*
X93657618Y-100604819D02*
X93419523Y-101604819D01*
X93419523Y-101604819D02*
X93229047Y-100890533D01*
X93229047Y-100890533D02*
X93038571Y-101604819D01*
X93038571Y-101604819D02*
X92800476Y-100604819D01*
X92514761Y-100604819D02*
X91848095Y-101604819D01*
X91848095Y-100604819D02*
X92514761Y-101604819D01*
X91514761Y-100700057D02*
X91467142Y-100652438D01*
X91467142Y-100652438D02*
X91371904Y-100604819D01*
X91371904Y-100604819D02*
X91133809Y-100604819D01*
X91133809Y-100604819D02*
X91038571Y-100652438D01*
X91038571Y-100652438D02*
X90990952Y-100700057D01*
X90990952Y-100700057D02*
X90943333Y-100795295D01*
X90943333Y-100795295D02*
X90943333Y-100890533D01*
X90943333Y-100890533D02*
X90990952Y-101033390D01*
X90990952Y-101033390D02*
X91562380Y-101604819D01*
X91562380Y-101604819D02*
X90943333Y-101604819D01*
X90467142Y-101557200D02*
X90467142Y-101604819D01*
X90467142Y-101604819D02*
X90514761Y-101700057D01*
X90514761Y-101700057D02*
X90562380Y-101747676D01*
X89848095Y-101128628D02*
X89848095Y-101604819D01*
X90181428Y-100604819D02*
X89848095Y-101128628D01*
X89848095Y-101128628D02*
X89514762Y-100604819D01*
X88990952Y-100604819D02*
X88895714Y-100604819D01*
X88895714Y-100604819D02*
X88800476Y-100652438D01*
X88800476Y-100652438D02*
X88752857Y-100700057D01*
X88752857Y-100700057D02*
X88705238Y-100795295D01*
X88705238Y-100795295D02*
X88657619Y-100985771D01*
X88657619Y-100985771D02*
X88657619Y-101223866D01*
X88657619Y-101223866D02*
X88705238Y-101414342D01*
X88705238Y-101414342D02*
X88752857Y-101509580D01*
X88752857Y-101509580D02*
X88800476Y-101557200D01*
X88800476Y-101557200D02*
X88895714Y-101604819D01*
X88895714Y-101604819D02*
X88990952Y-101604819D01*
X88990952Y-101604819D02*
X89086190Y-101557200D01*
X89086190Y-101557200D02*
X89133809Y-101509580D01*
X89133809Y-101509580D02*
X89181428Y-101414342D01*
X89181428Y-101414342D02*
X89229047Y-101223866D01*
X89229047Y-101223866D02*
X89229047Y-100985771D01*
X89229047Y-100985771D02*
X89181428Y-100795295D01*
X89181428Y-100795295D02*
X89133809Y-100700057D01*
X89133809Y-100700057D02*
X89086190Y-100652438D01*
X89086190Y-100652438D02*
X88990952Y-100604819D01*
X167426726Y-75382541D02*
X167426726Y-74382541D01*
X167426726Y-74382541D02*
X167188631Y-74382541D01*
X167188631Y-74382541D02*
X167045774Y-74430160D01*
X167045774Y-74430160D02*
X166950536Y-74525398D01*
X166950536Y-74525398D02*
X166902917Y-74620636D01*
X166902917Y-74620636D02*
X166855298Y-74811112D01*
X166855298Y-74811112D02*
X166855298Y-74953969D01*
X166855298Y-74953969D02*
X166902917Y-75144445D01*
X166902917Y-75144445D02*
X166950536Y-75239683D01*
X166950536Y-75239683D02*
X167045774Y-75334922D01*
X167045774Y-75334922D02*
X167188631Y-75382541D01*
X167188631Y-75382541D02*
X167426726Y-75382541D01*
X166521964Y-74382541D02*
X165855298Y-75382541D01*
X165855298Y-74382541D02*
X166521964Y-75382541D01*
X165045774Y-74715874D02*
X165045774Y-75382541D01*
X165283869Y-74334922D02*
X165521964Y-75049207D01*
X165521964Y-75049207D02*
X164902917Y-75049207D01*
X164474345Y-75334922D02*
X164474345Y-75382541D01*
X164474345Y-75382541D02*
X164521964Y-75477779D01*
X164521964Y-75477779D02*
X164569583Y-75525398D01*
X163855298Y-74906350D02*
X163855298Y-75382541D01*
X164188631Y-74382541D02*
X163855298Y-74906350D01*
X163855298Y-74906350D02*
X163521965Y-74382541D01*
X162760060Y-74715874D02*
X162760060Y-75382541D01*
X162998155Y-74334922D02*
X163236250Y-75049207D01*
X163236250Y-75049207D02*
X162617203Y-75049207D01*
X148354876Y-140908483D02*
X148354876Y-139908483D01*
X148354876Y-139908483D02*
X148116781Y-139908483D01*
X148116781Y-139908483D02*
X147973924Y-139956102D01*
X147973924Y-139956102D02*
X147878686Y-140051340D01*
X147878686Y-140051340D02*
X147831067Y-140146578D01*
X147831067Y-140146578D02*
X147783448Y-140337054D01*
X147783448Y-140337054D02*
X147783448Y-140479911D01*
X147783448Y-140479911D02*
X147831067Y-140670387D01*
X147831067Y-140670387D02*
X147878686Y-140765625D01*
X147878686Y-140765625D02*
X147973924Y-140860864D01*
X147973924Y-140860864D02*
X148116781Y-140908483D01*
X148116781Y-140908483D02*
X148354876Y-140908483D01*
X147450114Y-139908483D02*
X146783448Y-140908483D01*
X146783448Y-139908483D02*
X147450114Y-140908483D01*
X146212019Y-139908483D02*
X146116781Y-139908483D01*
X146116781Y-139908483D02*
X146021543Y-139956102D01*
X146021543Y-139956102D02*
X145973924Y-140003721D01*
X145973924Y-140003721D02*
X145926305Y-140098959D01*
X145926305Y-140098959D02*
X145878686Y-140289435D01*
X145878686Y-140289435D02*
X145878686Y-140527530D01*
X145878686Y-140527530D02*
X145926305Y-140718006D01*
X145926305Y-140718006D02*
X145973924Y-140813244D01*
X145973924Y-140813244D02*
X146021543Y-140860864D01*
X146021543Y-140860864D02*
X146116781Y-140908483D01*
X146116781Y-140908483D02*
X146212019Y-140908483D01*
X146212019Y-140908483D02*
X146307257Y-140860864D01*
X146307257Y-140860864D02*
X146354876Y-140813244D01*
X146354876Y-140813244D02*
X146402495Y-140718006D01*
X146402495Y-140718006D02*
X146450114Y-140527530D01*
X146450114Y-140527530D02*
X146450114Y-140289435D01*
X146450114Y-140289435D02*
X146402495Y-140098959D01*
X146402495Y-140098959D02*
X146354876Y-140003721D01*
X146354876Y-140003721D02*
X146307257Y-139956102D01*
X146307257Y-139956102D02*
X146212019Y-139908483D01*
X145402495Y-140860864D02*
X145402495Y-140908483D01*
X145402495Y-140908483D02*
X145450114Y-141003721D01*
X145450114Y-141003721D02*
X145497733Y-141051340D01*
X144783448Y-140432292D02*
X144783448Y-140908483D01*
X145116781Y-139908483D02*
X144783448Y-140432292D01*
X144783448Y-140432292D02*
X144450115Y-139908483D01*
X143592972Y-140908483D02*
X144164400Y-140908483D01*
X143878686Y-140908483D02*
X143878686Y-139908483D01*
X143878686Y-139908483D02*
X143973924Y-140051340D01*
X143973924Y-140051340D02*
X144069162Y-140146578D01*
X144069162Y-140146578D02*
X144164400Y-140194197D01*
X135586575Y-62763837D02*
X135443718Y-62811456D01*
X135443718Y-62811456D02*
X135205623Y-62811456D01*
X135205623Y-62811456D02*
X135110385Y-62763837D01*
X135110385Y-62763837D02*
X135062766Y-62716217D01*
X135062766Y-62716217D02*
X135015147Y-62620979D01*
X135015147Y-62620979D02*
X135015147Y-62525741D01*
X135015147Y-62525741D02*
X135062766Y-62430503D01*
X135062766Y-62430503D02*
X135110385Y-62382884D01*
X135110385Y-62382884D02*
X135205623Y-62335265D01*
X135205623Y-62335265D02*
X135396099Y-62287646D01*
X135396099Y-62287646D02*
X135491337Y-62240027D01*
X135491337Y-62240027D02*
X135538956Y-62192408D01*
X135538956Y-62192408D02*
X135586575Y-62097170D01*
X135586575Y-62097170D02*
X135586575Y-62001932D01*
X135586575Y-62001932D02*
X135538956Y-61906694D01*
X135538956Y-61906694D02*
X135491337Y-61859075D01*
X135491337Y-61859075D02*
X135396099Y-61811456D01*
X135396099Y-61811456D02*
X135158004Y-61811456D01*
X135158004Y-61811456D02*
X135015147Y-61859075D01*
X134681813Y-61811456D02*
X134443718Y-62811456D01*
X134443718Y-62811456D02*
X134253242Y-62097170D01*
X134253242Y-62097170D02*
X134062766Y-62811456D01*
X134062766Y-62811456D02*
X133824671Y-61811456D01*
X133538956Y-61811456D02*
X132872290Y-62811456D01*
X132872290Y-61811456D02*
X133538956Y-62811456D01*
X132062766Y-62144789D02*
X132062766Y-62811456D01*
X132300861Y-61763837D02*
X132538956Y-62478122D01*
X132538956Y-62478122D02*
X131919909Y-62478122D01*
X131491337Y-62763837D02*
X131491337Y-62811456D01*
X131491337Y-62811456D02*
X131538956Y-62906694D01*
X131538956Y-62906694D02*
X131586575Y-62954313D01*
X130872290Y-62335265D02*
X130872290Y-62811456D01*
X131205623Y-61811456D02*
X130872290Y-62335265D01*
X130872290Y-62335265D02*
X130538957Y-61811456D01*
X130253242Y-61906694D02*
X130205623Y-61859075D01*
X130205623Y-61859075D02*
X130110385Y-61811456D01*
X130110385Y-61811456D02*
X129872290Y-61811456D01*
X129872290Y-61811456D02*
X129777052Y-61859075D01*
X129777052Y-61859075D02*
X129729433Y-61906694D01*
X129729433Y-61906694D02*
X129681814Y-62001932D01*
X129681814Y-62001932D02*
X129681814Y-62097170D01*
X129681814Y-62097170D02*
X129729433Y-62240027D01*
X129729433Y-62240027D02*
X130300861Y-62811456D01*
X130300861Y-62811456D02*
X129681814Y-62811456D01*
X227184650Y-168598634D02*
X227034122Y-168594521D01*
X227034122Y-168594521D02*
X226810386Y-168513088D01*
X226810386Y-168513088D02*
X226737178Y-168435767D01*
X226737178Y-168435767D02*
X226708717Y-168374733D01*
X226708717Y-168374733D02*
X226696543Y-168268952D01*
X226696543Y-168268952D02*
X226729117Y-168179458D01*
X226729117Y-168179458D02*
X226806437Y-168106250D01*
X226806437Y-168106250D02*
X226867471Y-168077789D01*
X226867471Y-168077789D02*
X226973252Y-168065615D01*
X226973252Y-168065615D02*
X227168528Y-168086015D01*
X227168528Y-168086015D02*
X227274309Y-168073841D01*
X227274309Y-168073841D02*
X227335343Y-168045380D01*
X227335343Y-168045380D02*
X227412664Y-167972172D01*
X227412664Y-167972172D02*
X227445237Y-167882678D01*
X227445237Y-167882678D02*
X227433063Y-167776897D01*
X227433063Y-167776897D02*
X227404603Y-167715863D01*
X227404603Y-167715863D02*
X227331395Y-167638542D01*
X227331395Y-167638542D02*
X227107658Y-167557109D01*
X227107658Y-167557109D02*
X226957130Y-167552996D01*
X226660186Y-167394242D02*
X226094429Y-168252501D01*
X226094429Y-168252501D02*
X226159740Y-167516145D01*
X226159740Y-167516145D02*
X225736451Y-168122208D01*
X225736451Y-168122208D02*
X225854735Y-167101082D01*
X225586251Y-167003362D02*
X224617770Y-167715041D01*
X224959790Y-166775348D02*
X225244231Y-167943054D01*
X224422822Y-166579908D02*
X224333328Y-166547335D01*
X224333328Y-166547335D02*
X224227547Y-166559509D01*
X224227547Y-166559509D02*
X224166513Y-166587969D01*
X224166513Y-166587969D02*
X224089192Y-166661177D01*
X224089192Y-166661177D02*
X223979298Y-166823880D01*
X223979298Y-166823880D02*
X223897865Y-167047616D01*
X223897865Y-167047616D02*
X223877465Y-167242892D01*
X223877465Y-167242892D02*
X223889639Y-167348673D01*
X223889639Y-167348673D02*
X223918100Y-167409707D01*
X223918100Y-167409707D02*
X223991308Y-167487028D01*
X223991308Y-167487028D02*
X224080802Y-167519601D01*
X224080802Y-167519601D02*
X224186583Y-167507427D01*
X224186583Y-167507427D02*
X224247617Y-167478966D01*
X224247617Y-167478966D02*
X224324938Y-167405758D01*
X224324938Y-167405758D02*
X224434832Y-167243056D01*
X224434832Y-167243056D02*
X224516265Y-167019320D01*
X224516265Y-167019320D02*
X224536665Y-166824044D01*
X224536665Y-166824044D02*
X224524491Y-166718263D01*
X224524491Y-166718263D02*
X224496030Y-166657229D01*
X224496030Y-166657229D02*
X224422822Y-166579908D01*
X223336385Y-167197980D02*
X223320099Y-167242727D01*
X223320099Y-167242727D02*
X223332273Y-167348509D01*
X223332273Y-167348509D02*
X223360733Y-167409543D01*
X222901251Y-166583528D02*
X222738385Y-167031001D01*
X223393636Y-166205315D02*
X222901251Y-166583528D01*
X222901251Y-166583528D02*
X222767174Y-165977301D01*
X222006470Y-165700428D02*
X222453943Y-165863295D01*
X222453943Y-165863295D02*
X222335823Y-166327054D01*
X222335823Y-166327054D02*
X222307363Y-166266020D01*
X222307363Y-166266020D02*
X222234155Y-166188699D01*
X222234155Y-166188699D02*
X222010419Y-166107266D01*
X222010419Y-166107266D02*
X221904637Y-166119440D01*
X221904637Y-166119440D02*
X221843603Y-166147901D01*
X221843603Y-166147901D02*
X221766283Y-166221109D01*
X221766283Y-166221109D02*
X221684850Y-166444845D01*
X221684850Y-166444845D02*
X221697023Y-166550626D01*
X221697023Y-166550626D02*
X221725484Y-166611660D01*
X221725484Y-166611660D02*
X221798692Y-166688981D01*
X221798692Y-166688981D02*
X222022428Y-166770414D01*
X222022428Y-166770414D02*
X222128209Y-166758240D01*
X222128209Y-166758240D02*
X222189243Y-166729779D01*
%TO.C,SWX1\u002CY0*%
X84610000Y-120040000D02*
X85610000Y-120040000D01*
X84610000Y-121040000D02*
X84610000Y-120040000D01*
X84610000Y-134040000D02*
X84610000Y-133040000D01*
X85610000Y-134040000D02*
X84610000Y-134040000D01*
X89610000Y-119340000D02*
X90110000Y-118840000D01*
X89610000Y-122840000D02*
X90110000Y-123340000D01*
X90110000Y-118840000D02*
X93110000Y-118840000D01*
X90110000Y-123340000D02*
X92610000Y-123340000D01*
X93110000Y-118840000D02*
X93610000Y-119340000D01*
X93610000Y-120340000D02*
X93610000Y-119340000D01*
X94110000Y-124840000D02*
X94110000Y-125540000D01*
X94110000Y-125540000D02*
X98610000Y-125540000D01*
X97610000Y-120040000D02*
X98610000Y-120040000D01*
X98610000Y-120040000D02*
X98610000Y-121040000D01*
X98610000Y-120840000D02*
X94110000Y-120840000D01*
X98610000Y-121440000D02*
X98610000Y-120840000D01*
X98610000Y-125540000D02*
X98610000Y-125040000D01*
X98610000Y-133040000D02*
X98610000Y-134040000D01*
X98610000Y-134040000D02*
X97610000Y-134040000D01*
X92610000Y-123340000D02*
G75*
G02*
X94110000Y-124840000I0J-1500000D01*
G01*
X94110000Y-120840000D02*
G75*
G02*
X93610000Y-120340000I0J500000D01*
G01*
%TO.C,SWX4\u002CY0*%
X84610000Y-69040000D02*
X85610000Y-69040000D01*
X84610000Y-70040000D02*
X84610000Y-69040000D01*
X84610000Y-83040000D02*
X84610000Y-82040000D01*
X85610000Y-83040000D02*
X84610000Y-83040000D01*
X89610000Y-68340000D02*
X90110000Y-67840000D01*
X89610000Y-71840000D02*
X90110000Y-72340000D01*
X90110000Y-67840000D02*
X93110000Y-67840000D01*
X90110000Y-72340000D02*
X92610000Y-72340000D01*
X93110000Y-67840000D02*
X93610000Y-68340000D01*
X93610000Y-69340000D02*
X93610000Y-68340000D01*
X94110000Y-73840000D02*
X94110000Y-74540000D01*
X94110000Y-74540000D02*
X98610000Y-74540000D01*
X97610000Y-69040000D02*
X98610000Y-69040000D01*
X98610000Y-69040000D02*
X98610000Y-70040000D01*
X98610000Y-69840000D02*
X94110000Y-69840000D01*
X98610000Y-70440000D02*
X98610000Y-69840000D01*
X98610000Y-74540000D02*
X98610000Y-74040000D01*
X98610000Y-82040000D02*
X98610000Y-83040000D01*
X98610000Y-83040000D02*
X97610000Y-83040000D01*
X92610000Y-72340000D02*
G75*
G02*
X94110000Y-73840000I0J-1500000D01*
G01*
X94110000Y-69840000D02*
G75*
G02*
X93610000Y-69340000I0J500000D01*
G01*
%TO.C,SWX1\u002CY5*%
X174610000Y-117540000D02*
X175610000Y-117540000D01*
X174610000Y-118540000D02*
X174610000Y-117540000D01*
X174610000Y-131540000D02*
X174610000Y-130540000D01*
X175610000Y-131540000D02*
X174610000Y-131540000D01*
X179610000Y-116840000D02*
X180110000Y-116340000D01*
X179610000Y-120340000D02*
X180110000Y-120840000D01*
X180110000Y-116340000D02*
X183110000Y-116340000D01*
X180110000Y-120840000D02*
X182610000Y-120840000D01*
X183110000Y-116340000D02*
X183610000Y-116840000D01*
X183610000Y-117840000D02*
X183610000Y-116840000D01*
X184110000Y-122340000D02*
X184110000Y-123040000D01*
X184110000Y-123040000D02*
X188610000Y-123040000D01*
X187610000Y-117540000D02*
X188610000Y-117540000D01*
X188610000Y-117540000D02*
X188610000Y-118540000D01*
X188610000Y-118340000D02*
X184110000Y-118340000D01*
X188610000Y-118940000D02*
X188610000Y-118340000D01*
X188610000Y-123040000D02*
X188610000Y-122540000D01*
X188610000Y-130540000D02*
X188610000Y-131540000D01*
X188610000Y-131540000D02*
X187610000Y-131540000D01*
X182610000Y-120840000D02*
G75*
G02*
X184110000Y-122340000I0J-1500000D01*
G01*
X184110000Y-118340000D02*
G75*
G02*
X183610000Y-117840000I0J500000D01*
G01*
%TO.C,SWX1\u002CY4*%
X156610000Y-115040000D02*
X157610000Y-115040000D01*
X156610000Y-116040000D02*
X156610000Y-115040000D01*
X156610000Y-129040000D02*
X156610000Y-128040000D01*
X157610000Y-129040000D02*
X156610000Y-129040000D01*
X161610000Y-114340000D02*
X162110000Y-113840000D01*
X161610000Y-117840000D02*
X162110000Y-118340000D01*
X162110000Y-113840000D02*
X165110000Y-113840000D01*
X162110000Y-118340000D02*
X164610000Y-118340000D01*
X165110000Y-113840000D02*
X165610000Y-114340000D01*
X165610000Y-115340000D02*
X165610000Y-114340000D01*
X166110000Y-119840000D02*
X166110000Y-120540000D01*
X166110000Y-120540000D02*
X170610000Y-120540000D01*
X169610000Y-115040000D02*
X170610000Y-115040000D01*
X170610000Y-115040000D02*
X170610000Y-116040000D01*
X170610000Y-115840000D02*
X166110000Y-115840000D01*
X170610000Y-116440000D02*
X170610000Y-115840000D01*
X170610000Y-120540000D02*
X170610000Y-120040000D01*
X170610000Y-128040000D02*
X170610000Y-129040000D01*
X170610000Y-129040000D02*
X169610000Y-129040000D01*
X164610000Y-118340000D02*
G75*
G02*
X166110000Y-119840000I0J-1500000D01*
G01*
X166110000Y-115840000D02*
G75*
G02*
X165610000Y-115340000I0J500000D01*
G01*
%TO.C,SWX0\u002CY3*%
X184110460Y-150351891D02*
X184452480Y-149412199D01*
X185050152Y-150693911D02*
X184110460Y-150351891D01*
X188556722Y-138135887D02*
X188898742Y-137196195D01*
X188898742Y-137196195D02*
X189838434Y-137538215D01*
X192639548Y-141537435D02*
X192938385Y-142178291D01*
X192938385Y-142178291D02*
X195287616Y-143033341D01*
X193836619Y-138248511D02*
X194477475Y-137949674D01*
X194477475Y-137949674D02*
X197296553Y-138975735D01*
X195944711Y-145613695D02*
X200173328Y-147152786D01*
X196184125Y-144955911D02*
X195944711Y-145613695D01*
X197253369Y-140556284D02*
X197595389Y-139616591D01*
X197266156Y-155140173D02*
X196326464Y-154798153D01*
X197296553Y-138975735D02*
X197595389Y-139616591D01*
X197608176Y-154200481D02*
X197266156Y-155140173D01*
X200173328Y-147152786D02*
X200344338Y-146682940D01*
X201114746Y-141642457D02*
X202054438Y-141984477D01*
X201575610Y-143300046D02*
X201780822Y-142736231D01*
X201780822Y-142736231D02*
X197552205Y-141197140D01*
X202054438Y-141984477D02*
X201712418Y-142924169D01*
X195287616Y-143033341D02*
G75*
G02*
X196184125Y-144955911I-513030J-1409539D01*
G01*
X197552205Y-141197140D02*
G75*
G02*
X197253370Y-140556284I171011J469846D01*
G01*
%TO.C,SWX3\u002CY1*%
X102610000Y-86040000D02*
X103610000Y-86040000D01*
X102610000Y-87040000D02*
X102610000Y-86040000D01*
X102610000Y-100040000D02*
X102610000Y-99040000D01*
X103610000Y-100040000D02*
X102610000Y-100040000D01*
X107610000Y-85340000D02*
X108110000Y-84840000D01*
X107610000Y-88840000D02*
X108110000Y-89340000D01*
X108110000Y-84840000D02*
X111110000Y-84840000D01*
X108110000Y-89340000D02*
X110610000Y-89340000D01*
X111110000Y-84840000D02*
X111610000Y-85340000D01*
X111610000Y-86340000D02*
X111610000Y-85340000D01*
X112110000Y-90840000D02*
X112110000Y-91540000D01*
X112110000Y-91540000D02*
X116610000Y-91540000D01*
X115610000Y-86040000D02*
X116610000Y-86040000D01*
X116610000Y-86040000D02*
X116610000Y-87040000D01*
X116610000Y-86840000D02*
X112110000Y-86840000D01*
X116610000Y-87440000D02*
X116610000Y-86840000D01*
X116610000Y-91540000D02*
X116610000Y-91040000D01*
X116610000Y-99040000D02*
X116610000Y-100040000D01*
X116610000Y-100040000D02*
X115610000Y-100040000D01*
X110610000Y-89340000D02*
G75*
G02*
X112110000Y-90840000I0J-1500000D01*
G01*
X112110000Y-86840000D02*
G75*
G02*
X111610000Y-86340000I0J500000D01*
G01*
D12*
%TO.C,ProMicro1*%
X194310000Y-61206268D02*
X194310000Y-94226268D01*
X194310000Y-94226268D02*
X212090000Y-94226268D01*
X196850000Y-63746268D02*
X194310000Y-63746268D01*
X196850000Y-63746268D02*
X196850000Y-66286268D01*
X196850000Y-66286268D02*
X194310000Y-66286268D01*
X212090000Y-61206268D02*
X194310000Y-61206268D01*
X212090000Y-94226268D02*
X212090000Y-61206268D01*
D11*
%TO.C,SWX3\u002CY2*%
X120610000Y-81040000D02*
X121610000Y-81040000D01*
X120610000Y-82040000D02*
X120610000Y-81040000D01*
X120610000Y-95040000D02*
X120610000Y-94040000D01*
X121610000Y-95040000D02*
X120610000Y-95040000D01*
X125610000Y-80340000D02*
X126110000Y-79840000D01*
X125610000Y-83840000D02*
X126110000Y-84340000D01*
X126110000Y-79840000D02*
X129110000Y-79840000D01*
X126110000Y-84340000D02*
X128610000Y-84340000D01*
X129110000Y-79840000D02*
X129610000Y-80340000D01*
X129610000Y-81340000D02*
X129610000Y-80340000D01*
X130110000Y-85840000D02*
X130110000Y-86540000D01*
X130110000Y-86540000D02*
X134610000Y-86540000D01*
X133610000Y-81040000D02*
X134610000Y-81040000D01*
X134610000Y-81040000D02*
X134610000Y-82040000D01*
X134610000Y-81840000D02*
X130110000Y-81840000D01*
X134610000Y-82440000D02*
X134610000Y-81840000D01*
X134610000Y-86540000D02*
X134610000Y-86040000D01*
X134610000Y-94040000D02*
X134610000Y-95040000D01*
X134610000Y-95040000D02*
X133610000Y-95040000D01*
X128610000Y-84340000D02*
G75*
G02*
X130110000Y-85840000I0J-1500000D01*
G01*
X130110000Y-81840000D02*
G75*
G02*
X129610000Y-81340000I0J500000D01*
G01*
%TO.C,SWX4\u002CY3*%
X138610000Y-61540000D02*
X139610000Y-61540000D01*
X138610000Y-62540000D02*
X138610000Y-61540000D01*
X138610000Y-75540000D02*
X138610000Y-74540000D01*
X139610000Y-75540000D02*
X138610000Y-75540000D01*
X143610000Y-60840000D02*
X144110000Y-60340000D01*
X143610000Y-64340000D02*
X144110000Y-64840000D01*
X144110000Y-60340000D02*
X147110000Y-60340000D01*
X144110000Y-64840000D02*
X146610000Y-64840000D01*
X147110000Y-60340000D02*
X147610000Y-60840000D01*
X147610000Y-61840000D02*
X147610000Y-60840000D01*
X148110000Y-66340000D02*
X148110000Y-67040000D01*
X148110000Y-67040000D02*
X152610000Y-67040000D01*
X151610000Y-61540000D02*
X152610000Y-61540000D01*
X152610000Y-61540000D02*
X152610000Y-62540000D01*
X152610000Y-62340000D02*
X148110000Y-62340000D01*
X152610000Y-62940000D02*
X152610000Y-62340000D01*
X152610000Y-67040000D02*
X152610000Y-66540000D01*
X152610000Y-74540000D02*
X152610000Y-75540000D01*
X152610000Y-75540000D02*
X151610000Y-75540000D01*
X146610000Y-64840000D02*
G75*
G02*
X148110000Y-66340000I0J-1500000D01*
G01*
X148110000Y-62340000D02*
G75*
G02*
X147610000Y-61840000I0J500000D01*
G01*
%TO.C,SWX2\u002CY2*%
X120610000Y-98040000D02*
X121610000Y-98040000D01*
X120610000Y-99040000D02*
X120610000Y-98040000D01*
X120610000Y-112040000D02*
X120610000Y-111040000D01*
X121610000Y-112040000D02*
X120610000Y-112040000D01*
X125610000Y-97340000D02*
X126110000Y-96840000D01*
X125610000Y-100840000D02*
X126110000Y-101340000D01*
X126110000Y-96840000D02*
X129110000Y-96840000D01*
X126110000Y-101340000D02*
X128610000Y-101340000D01*
X129110000Y-96840000D02*
X129610000Y-97340000D01*
X129610000Y-98340000D02*
X129610000Y-97340000D01*
X130110000Y-102840000D02*
X130110000Y-103540000D01*
X130110000Y-103540000D02*
X134610000Y-103540000D01*
X133610000Y-98040000D02*
X134610000Y-98040000D01*
X134610000Y-98040000D02*
X134610000Y-99040000D01*
X134610000Y-98840000D02*
X130110000Y-98840000D01*
X134610000Y-99440000D02*
X134610000Y-98840000D01*
X134610000Y-103540000D02*
X134610000Y-103040000D01*
X134610000Y-111040000D02*
X134610000Y-112040000D01*
X134610000Y-112040000D02*
X133610000Y-112040000D01*
X128610000Y-101340000D02*
G75*
G02*
X130110000Y-102840000I0J-1500000D01*
G01*
X130110000Y-98840000D02*
G75*
G02*
X129610000Y-98340000I0J500000D01*
G01*
%TO.C,SWX0\u002CY0*%
X120610000Y-132040000D02*
X121610000Y-132040000D01*
X120610000Y-133040000D02*
X120610000Y-132040000D01*
X120610000Y-146040000D02*
X120610000Y-145040000D01*
X121610000Y-146040000D02*
X120610000Y-146040000D01*
X125610000Y-131340000D02*
X126110000Y-130840000D01*
X125610000Y-134840000D02*
X126110000Y-135340000D01*
X126110000Y-130840000D02*
X129110000Y-130840000D01*
X126110000Y-135340000D02*
X128610000Y-135340000D01*
X129110000Y-130840000D02*
X129610000Y-131340000D01*
X129610000Y-132340000D02*
X129610000Y-131340000D01*
X130110000Y-136840000D02*
X130110000Y-137540000D01*
X130110000Y-137540000D02*
X134610000Y-137540000D01*
X133610000Y-132040000D02*
X134610000Y-132040000D01*
X134610000Y-132040000D02*
X134610000Y-133040000D01*
X134610000Y-132840000D02*
X130110000Y-132840000D01*
X134610000Y-133440000D02*
X134610000Y-132840000D01*
X134610000Y-137540000D02*
X134610000Y-137040000D01*
X134610000Y-145040000D02*
X134610000Y-146040000D01*
X134610000Y-146040000D02*
X133610000Y-146040000D01*
X128610000Y-135340000D02*
G75*
G02*
X130110000Y-136840000I0J-1500000D01*
G01*
X130110000Y-132840000D02*
G75*
G02*
X129610000Y-132340000I0J500000D01*
G01*
%TO.C,SWX3\u002CY4*%
X156610000Y-81040000D02*
X157610000Y-81040000D01*
X156610000Y-82040000D02*
X156610000Y-81040000D01*
X156610000Y-95040000D02*
X156610000Y-94040000D01*
X157610000Y-95040000D02*
X156610000Y-95040000D01*
X161610000Y-80340000D02*
X162110000Y-79840000D01*
X161610000Y-83840000D02*
X162110000Y-84340000D01*
X162110000Y-79840000D02*
X165110000Y-79840000D01*
X162110000Y-84340000D02*
X164610000Y-84340000D01*
X165110000Y-79840000D02*
X165610000Y-80340000D01*
X165610000Y-81340000D02*
X165610000Y-80340000D01*
X166110000Y-85840000D02*
X166110000Y-86540000D01*
X166110000Y-86540000D02*
X170610000Y-86540000D01*
X169610000Y-81040000D02*
X170610000Y-81040000D01*
X170610000Y-81040000D02*
X170610000Y-82040000D01*
X170610000Y-81840000D02*
X166110000Y-81840000D01*
X170610000Y-82440000D02*
X170610000Y-81840000D01*
X170610000Y-86540000D02*
X170610000Y-86040000D01*
X170610000Y-94040000D02*
X170610000Y-95040000D01*
X170610000Y-95040000D02*
X169610000Y-95040000D01*
X164610000Y-84340000D02*
G75*
G02*
X166110000Y-85840000I0J-1500000D01*
G01*
X166110000Y-81840000D02*
G75*
G02*
X165610000Y-81340000I0J500000D01*
G01*
%TO.C,SWX2\u002CY5*%
X174610000Y-100540000D02*
X175610000Y-100540000D01*
X174610000Y-101540000D02*
X174610000Y-100540000D01*
X174610000Y-114540000D02*
X174610000Y-113540000D01*
X175610000Y-114540000D02*
X174610000Y-114540000D01*
X179610000Y-99840000D02*
X180110000Y-99340000D01*
X179610000Y-103340000D02*
X180110000Y-103840000D01*
X180110000Y-99340000D02*
X183110000Y-99340000D01*
X180110000Y-103840000D02*
X182610000Y-103840000D01*
X183110000Y-99340000D02*
X183610000Y-99840000D01*
X183610000Y-100840000D02*
X183610000Y-99840000D01*
X184110000Y-105340000D02*
X184110000Y-106040000D01*
X184110000Y-106040000D02*
X188610000Y-106040000D01*
X187610000Y-100540000D02*
X188610000Y-100540000D01*
X188610000Y-100540000D02*
X188610000Y-101540000D01*
X188610000Y-101340000D02*
X184110000Y-101340000D01*
X188610000Y-101940000D02*
X188610000Y-101340000D01*
X188610000Y-106040000D02*
X188610000Y-105540000D01*
X188610000Y-113540000D02*
X188610000Y-114540000D01*
X188610000Y-114540000D02*
X187610000Y-114540000D01*
X182610000Y-103840000D02*
G75*
G02*
X184110000Y-105340000I0J-1500000D01*
G01*
X184110000Y-101340000D02*
G75*
G02*
X183610000Y-100840000I0J500000D01*
G01*
%TO.C,SWX2\u002CY1*%
X102610000Y-103040000D02*
X103610000Y-103040000D01*
X102610000Y-104040000D02*
X102610000Y-103040000D01*
X102610000Y-117040000D02*
X102610000Y-116040000D01*
X103610000Y-117040000D02*
X102610000Y-117040000D01*
X107610000Y-102340000D02*
X108110000Y-101840000D01*
X107610000Y-105840000D02*
X108110000Y-106340000D01*
X108110000Y-101840000D02*
X111110000Y-101840000D01*
X108110000Y-106340000D02*
X110610000Y-106340000D01*
X111110000Y-101840000D02*
X111610000Y-102340000D01*
X111610000Y-103340000D02*
X111610000Y-102340000D01*
X112110000Y-107840000D02*
X112110000Y-108540000D01*
X112110000Y-108540000D02*
X116610000Y-108540000D01*
X115610000Y-103040000D02*
X116610000Y-103040000D01*
X116610000Y-103040000D02*
X116610000Y-104040000D01*
X116610000Y-103840000D02*
X112110000Y-103840000D01*
X116610000Y-104440000D02*
X116610000Y-103840000D01*
X116610000Y-108540000D02*
X116610000Y-108040000D01*
X116610000Y-116040000D02*
X116610000Y-117040000D01*
X116610000Y-117040000D02*
X115610000Y-117040000D01*
X110610000Y-106340000D02*
G75*
G02*
X112110000Y-107840000I0J-1500000D01*
G01*
X112110000Y-103840000D02*
G75*
G02*
X111610000Y-103340000I0J500000D01*
G01*
%TO.C,SWX1\u002CY3*%
X138610000Y-112540000D02*
X139610000Y-112540000D01*
X138610000Y-113540000D02*
X138610000Y-112540000D01*
X138610000Y-126540000D02*
X138610000Y-125540000D01*
X139610000Y-126540000D02*
X138610000Y-126540000D01*
X143610000Y-111840000D02*
X144110000Y-111340000D01*
X143610000Y-115340000D02*
X144110000Y-115840000D01*
X144110000Y-111340000D02*
X147110000Y-111340000D01*
X144110000Y-115840000D02*
X146610000Y-115840000D01*
X147110000Y-111340000D02*
X147610000Y-111840000D01*
X147610000Y-112840000D02*
X147610000Y-111840000D01*
X148110000Y-117340000D02*
X148110000Y-118040000D01*
X148110000Y-118040000D02*
X152610000Y-118040000D01*
X151610000Y-112540000D02*
X152610000Y-112540000D01*
X152610000Y-112540000D02*
X152610000Y-113540000D01*
X152610000Y-113340000D02*
X148110000Y-113340000D01*
X152610000Y-113940000D02*
X152610000Y-113340000D01*
X152610000Y-118040000D02*
X152610000Y-117540000D01*
X152610000Y-125540000D02*
X152610000Y-126540000D01*
X152610000Y-126540000D02*
X151610000Y-126540000D01*
X146610000Y-115840000D02*
G75*
G02*
X148110000Y-117340000I0J-1500000D01*
G01*
X148110000Y-113340000D02*
G75*
G02*
X147610000Y-112840000I0J500000D01*
G01*
%TO.C,SWX2\u002CY4*%
X156610000Y-98040000D02*
X157610000Y-98040000D01*
X156610000Y-99040000D02*
X156610000Y-98040000D01*
X156610000Y-112040000D02*
X156610000Y-111040000D01*
X157610000Y-112040000D02*
X156610000Y-112040000D01*
X161610000Y-97340000D02*
X162110000Y-96840000D01*
X161610000Y-100840000D02*
X162110000Y-101340000D01*
X162110000Y-96840000D02*
X165110000Y-96840000D01*
X162110000Y-101340000D02*
X164610000Y-101340000D01*
X165110000Y-96840000D02*
X165610000Y-97340000D01*
X165610000Y-98340000D02*
X165610000Y-97340000D01*
X166110000Y-102840000D02*
X166110000Y-103540000D01*
X166110000Y-103540000D02*
X170610000Y-103540000D01*
X169610000Y-98040000D02*
X170610000Y-98040000D01*
X170610000Y-98040000D02*
X170610000Y-99040000D01*
X170610000Y-98840000D02*
X166110000Y-98840000D01*
X170610000Y-99440000D02*
X170610000Y-98840000D01*
X170610000Y-103540000D02*
X170610000Y-103040000D01*
X170610000Y-111040000D02*
X170610000Y-112040000D01*
X170610000Y-112040000D02*
X169610000Y-112040000D01*
X164610000Y-101340000D02*
G75*
G02*
X166110000Y-102840000I0J-1500000D01*
G01*
X166110000Y-98840000D02*
G75*
G02*
X165610000Y-98340000I0J500000D01*
G01*
%TO.C,SWX1\u002CY2*%
X120610000Y-115040000D02*
X121610000Y-115040000D01*
X120610000Y-116040000D02*
X120610000Y-115040000D01*
X120610000Y-129040000D02*
X120610000Y-128040000D01*
X121610000Y-129040000D02*
X120610000Y-129040000D01*
X125610000Y-114340000D02*
X126110000Y-113840000D01*
X125610000Y-117840000D02*
X126110000Y-118340000D01*
X126110000Y-113840000D02*
X129110000Y-113840000D01*
X126110000Y-118340000D02*
X128610000Y-118340000D01*
X129110000Y-113840000D02*
X129610000Y-114340000D01*
X129610000Y-115340000D02*
X129610000Y-114340000D01*
X130110000Y-119840000D02*
X130110000Y-120540000D01*
X130110000Y-120540000D02*
X134610000Y-120540000D01*
X133610000Y-115040000D02*
X134610000Y-115040000D01*
X134610000Y-115040000D02*
X134610000Y-116040000D01*
X134610000Y-115840000D02*
X130110000Y-115840000D01*
X134610000Y-116440000D02*
X134610000Y-115840000D01*
X134610000Y-120540000D02*
X134610000Y-120040000D01*
X134610000Y-128040000D02*
X134610000Y-129040000D01*
X134610000Y-129040000D02*
X133610000Y-129040000D01*
X128610000Y-118340000D02*
G75*
G02*
X130110000Y-119840000I0J-1500000D01*
G01*
X130110000Y-115840000D02*
G75*
G02*
X129610000Y-115340000I0J500000D01*
G01*
%TO.C,SWML1*%
X198059235Y-134417799D02*
X198401255Y-133478107D01*
X198998927Y-134759819D02*
X198059235Y-134417799D01*
X202505497Y-122201795D02*
X202847517Y-121262103D01*
X202847517Y-121262103D02*
X203787209Y-121604123D01*
X206588323Y-125603343D02*
X206887160Y-126244199D01*
X206887160Y-126244199D02*
X209236391Y-127099249D01*
X207785394Y-122314419D02*
X208426250Y-122015582D01*
X208426250Y-122015582D02*
X211245328Y-123041643D01*
X209893486Y-129679603D02*
X214122103Y-131218694D01*
X210132900Y-129021819D02*
X209893486Y-129679603D01*
X211202144Y-124622192D02*
X211544164Y-123682499D01*
X211214931Y-139206081D02*
X210275239Y-138864061D01*
X211245328Y-123041643D02*
X211544164Y-123682499D01*
X211556951Y-138266389D02*
X211214931Y-139206081D01*
X214122103Y-131218694D02*
X214293113Y-130748848D01*
X215063521Y-125708365D02*
X216003213Y-126050385D01*
X215524385Y-127365954D02*
X215729597Y-126802139D01*
X215729597Y-126802139D02*
X211500980Y-125263048D01*
X216003213Y-126050385D02*
X215661193Y-126990077D01*
X209236391Y-127099249D02*
G75*
G02*
X210132900Y-129021819I-513030J-1409539D01*
G01*
X211500980Y-125263048D02*
G75*
G02*
X211202145Y-124622192I171011J469846D01*
G01*
%TO.C,SWX0\u002CY1*%
X138610000Y-129540000D02*
X139610000Y-129540000D01*
X138610000Y-130540000D02*
X138610000Y-129540000D01*
X138610000Y-143540000D02*
X138610000Y-142540000D01*
X139610000Y-143540000D02*
X138610000Y-143540000D01*
X143610000Y-128840000D02*
X144110000Y-128340000D01*
X143610000Y-132340000D02*
X144110000Y-132840000D01*
X144110000Y-128340000D02*
X147110000Y-128340000D01*
X144110000Y-132840000D02*
X146610000Y-132840000D01*
X147110000Y-128340000D02*
X147610000Y-128840000D01*
X147610000Y-129840000D02*
X147610000Y-128840000D01*
X148110000Y-134340000D02*
X148110000Y-135040000D01*
X148110000Y-135040000D02*
X152610000Y-135040000D01*
X151610000Y-129540000D02*
X152610000Y-129540000D01*
X152610000Y-129540000D02*
X152610000Y-130540000D01*
X152610000Y-130340000D02*
X148110000Y-130340000D01*
X152610000Y-130940000D02*
X152610000Y-130340000D01*
X152610000Y-135040000D02*
X152610000Y-134540000D01*
X152610000Y-142540000D02*
X152610000Y-143540000D01*
X152610000Y-143540000D02*
X151610000Y-143540000D01*
X146610000Y-132840000D02*
G75*
G02*
X148110000Y-134340000I0J-1500000D01*
G01*
X148110000Y-130340000D02*
G75*
G02*
X147610000Y-129840000I0J500000D01*
G01*
%TO.C,SWX4\u002CY4*%
X156610000Y-64040000D02*
X157610000Y-64040000D01*
X156610000Y-65040000D02*
X156610000Y-64040000D01*
X156610000Y-78040000D02*
X156610000Y-77040000D01*
X157610000Y-78040000D02*
X156610000Y-78040000D01*
X161610000Y-63340000D02*
X162110000Y-62840000D01*
X161610000Y-66840000D02*
X162110000Y-67340000D01*
X162110000Y-62840000D02*
X165110000Y-62840000D01*
X162110000Y-67340000D02*
X164610000Y-67340000D01*
X165110000Y-62840000D02*
X165610000Y-63340000D01*
X165610000Y-64340000D02*
X165610000Y-63340000D01*
X166110000Y-68840000D02*
X166110000Y-69540000D01*
X166110000Y-69540000D02*
X170610000Y-69540000D01*
X169610000Y-64040000D02*
X170610000Y-64040000D01*
X170610000Y-64040000D02*
X170610000Y-65040000D01*
X170610000Y-64840000D02*
X166110000Y-64840000D01*
X170610000Y-65440000D02*
X170610000Y-64840000D01*
X170610000Y-69540000D02*
X170610000Y-69040000D01*
X170610000Y-77040000D02*
X170610000Y-78040000D01*
X170610000Y-78040000D02*
X169610000Y-78040000D01*
X164610000Y-67340000D02*
G75*
G02*
X166110000Y-68840000I0J-1500000D01*
G01*
X166110000Y-64840000D02*
G75*
G02*
X165610000Y-64340000I0J500000D01*
G01*
%TO.C,SWX0\u002CY4*%
X216580981Y-148123048D02*
G75*
G02*
X216282146Y-147482192I171011J469846D01*
G01*
X214316392Y-149959249D02*
G75*
G02*
X215212901Y-151881819I-513030J-1409539D01*
G01*
X221083214Y-148910385D02*
X220741194Y-149850077D01*
X220809598Y-149662139D02*
X216580981Y-148123048D01*
X220604386Y-150225954D02*
X220809598Y-149662139D01*
X220143522Y-148568365D02*
X221083214Y-148910385D01*
X219202104Y-154078694D02*
X219373114Y-153608848D01*
X216636952Y-161126389D02*
X216294932Y-162066081D01*
X216325329Y-145901643D02*
X216624165Y-146542499D01*
X216294932Y-162066081D02*
X215355240Y-161724061D01*
X216282145Y-147482192D02*
X216624165Y-146542499D01*
X215212901Y-151881819D02*
X214973487Y-152539603D01*
X214973487Y-152539603D02*
X219202104Y-154078694D01*
X213506251Y-144875582D02*
X216325329Y-145901643D01*
X212865395Y-145174419D02*
X213506251Y-144875582D01*
X211967161Y-149104199D02*
X214316392Y-149959249D01*
X211668324Y-148463343D02*
X211967161Y-149104199D01*
X207927518Y-144122103D02*
X208867210Y-144464123D01*
X207585498Y-145061795D02*
X207927518Y-144122103D01*
X204078928Y-157619819D02*
X203139236Y-157277799D01*
X203139236Y-157277799D02*
X203481256Y-156338107D01*
%TO.C,SWX2\u002CY3*%
X138610000Y-95540000D02*
X139610000Y-95540000D01*
X138610000Y-96540000D02*
X138610000Y-95540000D01*
X138610000Y-109540000D02*
X138610000Y-108540000D01*
X139610000Y-109540000D02*
X138610000Y-109540000D01*
X143610000Y-94840000D02*
X144110000Y-94340000D01*
X143610000Y-98340000D02*
X144110000Y-98840000D01*
X144110000Y-94340000D02*
X147110000Y-94340000D01*
X144110000Y-98840000D02*
X146610000Y-98840000D01*
X147110000Y-94340000D02*
X147610000Y-94840000D01*
X147610000Y-95840000D02*
X147610000Y-94840000D01*
X148110000Y-100340000D02*
X148110000Y-101040000D01*
X148110000Y-101040000D02*
X152610000Y-101040000D01*
X151610000Y-95540000D02*
X152610000Y-95540000D01*
X152610000Y-95540000D02*
X152610000Y-96540000D01*
X152610000Y-96340000D02*
X148110000Y-96340000D01*
X152610000Y-96940000D02*
X152610000Y-96340000D01*
X152610000Y-101040000D02*
X152610000Y-100540000D01*
X152610000Y-108540000D02*
X152610000Y-109540000D01*
X152610000Y-109540000D02*
X151610000Y-109540000D01*
X146610000Y-98840000D02*
G75*
G02*
X148110000Y-100340000I0J-1500000D01*
G01*
X148110000Y-96340000D02*
G75*
G02*
X147610000Y-95840000I0J500000D01*
G01*
%TO.C,SWX3\u002CY3*%
X138610000Y-78540000D02*
X139610000Y-78540000D01*
X138610000Y-79540000D02*
X138610000Y-78540000D01*
X138610000Y-92540000D02*
X138610000Y-91540000D01*
X139610000Y-92540000D02*
X138610000Y-92540000D01*
X143610000Y-77840000D02*
X144110000Y-77340000D01*
X143610000Y-81340000D02*
X144110000Y-81840000D01*
X144110000Y-77340000D02*
X147110000Y-77340000D01*
X144110000Y-81840000D02*
X146610000Y-81840000D01*
X147110000Y-77340000D02*
X147610000Y-77840000D01*
X147610000Y-78840000D02*
X147610000Y-77840000D01*
X148110000Y-83340000D02*
X148110000Y-84040000D01*
X148110000Y-84040000D02*
X152610000Y-84040000D01*
X151610000Y-78540000D02*
X152610000Y-78540000D01*
X152610000Y-78540000D02*
X152610000Y-79540000D01*
X152610000Y-79340000D02*
X148110000Y-79340000D01*
X152610000Y-79940000D02*
X152610000Y-79340000D01*
X152610000Y-84040000D02*
X152610000Y-83540000D01*
X152610000Y-91540000D02*
X152610000Y-92540000D01*
X152610000Y-92540000D02*
X151610000Y-92540000D01*
X146610000Y-81840000D02*
G75*
G02*
X148110000Y-83340000I0J-1500000D01*
G01*
X148110000Y-79340000D02*
G75*
G02*
X147610000Y-78840000I0J500000D01*
G01*
%TO.C,SWX0\u002CY2*%
X156610000Y-132040000D02*
X157610000Y-132040000D01*
X156610000Y-133040000D02*
X156610000Y-132040000D01*
X156610000Y-146040000D02*
X156610000Y-145040000D01*
X157610000Y-146040000D02*
X156610000Y-146040000D01*
X161610000Y-131340000D02*
X162110000Y-130840000D01*
X161610000Y-134840000D02*
X162110000Y-135340000D01*
X162110000Y-130840000D02*
X165110000Y-130840000D01*
X162110000Y-135340000D02*
X164610000Y-135340000D01*
X165110000Y-130840000D02*
X165610000Y-131340000D01*
X165610000Y-132340000D02*
X165610000Y-131340000D01*
X166110000Y-136840000D02*
X166110000Y-137540000D01*
X166110000Y-137540000D02*
X170610000Y-137540000D01*
X169610000Y-132040000D02*
X170610000Y-132040000D01*
X170610000Y-132040000D02*
X170610000Y-133040000D01*
X170610000Y-132840000D02*
X166110000Y-132840000D01*
X170610000Y-133440000D02*
X170610000Y-132840000D01*
X170610000Y-137540000D02*
X170610000Y-137040000D01*
X170610000Y-145040000D02*
X170610000Y-146040000D01*
X170610000Y-146040000D02*
X169610000Y-146040000D01*
X164610000Y-135340000D02*
G75*
G02*
X166110000Y-136840000I0J-1500000D01*
G01*
X166110000Y-132840000D02*
G75*
G02*
X165610000Y-132340000I0J500000D01*
G01*
%TO.C,SWX1\u002CY1*%
X102610000Y-120040000D02*
X103610000Y-120040000D01*
X102610000Y-121040000D02*
X102610000Y-120040000D01*
X102610000Y-134040000D02*
X102610000Y-133040000D01*
X103610000Y-134040000D02*
X102610000Y-134040000D01*
X107610000Y-119340000D02*
X108110000Y-118840000D01*
X107610000Y-122840000D02*
X108110000Y-123340000D01*
X108110000Y-118840000D02*
X111110000Y-118840000D01*
X108110000Y-123340000D02*
X110610000Y-123340000D01*
X111110000Y-118840000D02*
X111610000Y-119340000D01*
X111610000Y-120340000D02*
X111610000Y-119340000D01*
X112110000Y-124840000D02*
X112110000Y-125540000D01*
X112110000Y-125540000D02*
X116610000Y-125540000D01*
X115610000Y-120040000D02*
X116610000Y-120040000D01*
X116610000Y-120040000D02*
X116610000Y-121040000D01*
X116610000Y-120840000D02*
X112110000Y-120840000D01*
X116610000Y-121440000D02*
X116610000Y-120840000D01*
X116610000Y-125540000D02*
X116610000Y-125040000D01*
X116610000Y-133040000D02*
X116610000Y-134040000D01*
X116610000Y-134040000D02*
X115610000Y-134040000D01*
X110610000Y-123340000D02*
G75*
G02*
X112110000Y-124840000I0J-1500000D01*
G01*
X112110000Y-120840000D02*
G75*
G02*
X111610000Y-120340000I0J500000D01*
G01*
%TO.C,SWX4\u002CY5*%
X174610000Y-66540000D02*
X175610000Y-66540000D01*
X174610000Y-67540000D02*
X174610000Y-66540000D01*
X174610000Y-80540000D02*
X174610000Y-79540000D01*
X175610000Y-80540000D02*
X174610000Y-80540000D01*
X179610000Y-65840000D02*
X180110000Y-65340000D01*
X179610000Y-69340000D02*
X180110000Y-69840000D01*
X180110000Y-65340000D02*
X183110000Y-65340000D01*
X180110000Y-69840000D02*
X182610000Y-69840000D01*
X183110000Y-65340000D02*
X183610000Y-65840000D01*
X183610000Y-66840000D02*
X183610000Y-65840000D01*
X184110000Y-71340000D02*
X184110000Y-72040000D01*
X184110000Y-72040000D02*
X188610000Y-72040000D01*
X187610000Y-66540000D02*
X188610000Y-66540000D01*
X188610000Y-66540000D02*
X188610000Y-67540000D01*
X188610000Y-67340000D02*
X184110000Y-67340000D01*
X188610000Y-67940000D02*
X188610000Y-67340000D01*
X188610000Y-72040000D02*
X188610000Y-71540000D01*
X188610000Y-79540000D02*
X188610000Y-80540000D01*
X188610000Y-80540000D02*
X187610000Y-80540000D01*
X182610000Y-69840000D02*
G75*
G02*
X184110000Y-71340000I0J-1500000D01*
G01*
X184110000Y-67340000D02*
G75*
G02*
X183610000Y-66840000I0J500000D01*
G01*
%TO.C,SWX3\u002CY0*%
X84610000Y-86040000D02*
X85610000Y-86040000D01*
X84610000Y-87040000D02*
X84610000Y-86040000D01*
X84610000Y-100040000D02*
X84610000Y-99040000D01*
X85610000Y-100040000D02*
X84610000Y-100040000D01*
X89610000Y-85340000D02*
X90110000Y-84840000D01*
X89610000Y-88840000D02*
X90110000Y-89340000D01*
X90110000Y-84840000D02*
X93110000Y-84840000D01*
X90110000Y-89340000D02*
X92610000Y-89340000D01*
X93110000Y-84840000D02*
X93610000Y-85340000D01*
X93610000Y-86340000D02*
X93610000Y-85340000D01*
X94110000Y-90840000D02*
X94110000Y-91540000D01*
X94110000Y-91540000D02*
X98610000Y-91540000D01*
X97610000Y-86040000D02*
X98610000Y-86040000D01*
X98610000Y-86040000D02*
X98610000Y-87040000D01*
X98610000Y-86840000D02*
X94110000Y-86840000D01*
X98610000Y-87440000D02*
X98610000Y-86840000D01*
X98610000Y-91540000D02*
X98610000Y-91040000D01*
X98610000Y-99040000D02*
X98610000Y-100040000D01*
X98610000Y-100040000D02*
X97610000Y-100040000D01*
X92610000Y-89340000D02*
G75*
G02*
X94110000Y-90840000I0J-1500000D01*
G01*
X94110000Y-86840000D02*
G75*
G02*
X93610000Y-86340000I0J500000D01*
G01*
%TO.C,SWX4\u002CY1*%
X102610000Y-69040000D02*
X103610000Y-69040000D01*
X102610000Y-70040000D02*
X102610000Y-69040000D01*
X102610000Y-83040000D02*
X102610000Y-82040000D01*
X103610000Y-83040000D02*
X102610000Y-83040000D01*
X107610000Y-68340000D02*
X108110000Y-67840000D01*
X107610000Y-71840000D02*
X108110000Y-72340000D01*
X108110000Y-67840000D02*
X111110000Y-67840000D01*
X108110000Y-72340000D02*
X110610000Y-72340000D01*
X111110000Y-67840000D02*
X111610000Y-68340000D01*
X111610000Y-69340000D02*
X111610000Y-68340000D01*
X112110000Y-73840000D02*
X112110000Y-74540000D01*
X112110000Y-74540000D02*
X116610000Y-74540000D01*
X115610000Y-69040000D02*
X116610000Y-69040000D01*
X116610000Y-69040000D02*
X116610000Y-70040000D01*
X116610000Y-69840000D02*
X112110000Y-69840000D01*
X116610000Y-70440000D02*
X116610000Y-69840000D01*
X116610000Y-74540000D02*
X116610000Y-74040000D01*
X116610000Y-82040000D02*
X116610000Y-83040000D01*
X116610000Y-83040000D02*
X115610000Y-83040000D01*
X110610000Y-72340000D02*
G75*
G02*
X112110000Y-73840000I0J-1500000D01*
G01*
X112110000Y-69840000D02*
G75*
G02*
X111610000Y-69340000I0J500000D01*
G01*
%TO.C,SWX3\u002CY5*%
X174610000Y-83540000D02*
X175610000Y-83540000D01*
X174610000Y-84540000D02*
X174610000Y-83540000D01*
X174610000Y-97540000D02*
X174610000Y-96540000D01*
X175610000Y-97540000D02*
X174610000Y-97540000D01*
X179610000Y-82840000D02*
X180110000Y-82340000D01*
X179610000Y-86340000D02*
X180110000Y-86840000D01*
X180110000Y-82340000D02*
X183110000Y-82340000D01*
X180110000Y-86840000D02*
X182610000Y-86840000D01*
X183110000Y-82340000D02*
X183610000Y-82840000D01*
X183610000Y-83840000D02*
X183610000Y-82840000D01*
X184110000Y-88340000D02*
X184110000Y-89040000D01*
X184110000Y-89040000D02*
X188610000Y-89040000D01*
X187610000Y-83540000D02*
X188610000Y-83540000D01*
X188610000Y-83540000D02*
X188610000Y-84540000D01*
X188610000Y-84340000D02*
X184110000Y-84340000D01*
X188610000Y-84940000D02*
X188610000Y-84340000D01*
X188610000Y-89040000D02*
X188610000Y-88540000D01*
X188610000Y-96540000D02*
X188610000Y-97540000D01*
X188610000Y-97540000D02*
X187610000Y-97540000D01*
X182610000Y-86840000D02*
G75*
G02*
X184110000Y-88340000I0J-1500000D01*
G01*
X184110000Y-84340000D02*
G75*
G02*
X183610000Y-83840000I0J500000D01*
G01*
%TO.C,SWX2\u002CY0*%
X84610000Y-103040000D02*
X85610000Y-103040000D01*
X84610000Y-104040000D02*
X84610000Y-103040000D01*
X84610000Y-117040000D02*
X84610000Y-116040000D01*
X85610000Y-117040000D02*
X84610000Y-117040000D01*
X89610000Y-102340000D02*
X90110000Y-101840000D01*
X89610000Y-105840000D02*
X90110000Y-106340000D01*
X90110000Y-101840000D02*
X93110000Y-101840000D01*
X90110000Y-106340000D02*
X92610000Y-106340000D01*
X93110000Y-101840000D02*
X93610000Y-102340000D01*
X93610000Y-103340000D02*
X93610000Y-102340000D01*
X94110000Y-107840000D02*
X94110000Y-108540000D01*
X94110000Y-108540000D02*
X98610000Y-108540000D01*
X97610000Y-103040000D02*
X98610000Y-103040000D01*
X98610000Y-103040000D02*
X98610000Y-104040000D01*
X98610000Y-103840000D02*
X94110000Y-103840000D01*
X98610000Y-104440000D02*
X98610000Y-103840000D01*
X98610000Y-108540000D02*
X98610000Y-108040000D01*
X98610000Y-116040000D02*
X98610000Y-117040000D01*
X98610000Y-117040000D02*
X97610000Y-117040000D01*
X92610000Y-106340000D02*
G75*
G02*
X94110000Y-107840000I0J-1500000D01*
G01*
X94110000Y-103840000D02*
G75*
G02*
X93610000Y-103340000I0J500000D01*
G01*
%TO.C,SWX4\u002CY2*%
X120610000Y-64040000D02*
X121610000Y-64040000D01*
X120610000Y-65040000D02*
X120610000Y-64040000D01*
X120610000Y-78040000D02*
X120610000Y-77040000D01*
X121610000Y-78040000D02*
X120610000Y-78040000D01*
X125610000Y-63340000D02*
X126110000Y-62840000D01*
X125610000Y-66840000D02*
X126110000Y-67340000D01*
X126110000Y-62840000D02*
X129110000Y-62840000D01*
X126110000Y-67340000D02*
X128610000Y-67340000D01*
X129110000Y-62840000D02*
X129610000Y-63340000D01*
X129610000Y-64340000D02*
X129610000Y-63340000D01*
X130110000Y-68840000D02*
X130110000Y-69540000D01*
X130110000Y-69540000D02*
X134610000Y-69540000D01*
X133610000Y-64040000D02*
X134610000Y-64040000D01*
X134610000Y-64040000D02*
X134610000Y-65040000D01*
X134610000Y-64840000D02*
X130110000Y-64840000D01*
X134610000Y-65440000D02*
X134610000Y-64840000D01*
X134610000Y-69540000D02*
X134610000Y-69040000D01*
X134610000Y-77040000D02*
X134610000Y-78040000D01*
X134610000Y-78040000D02*
X133610000Y-78040000D01*
X128610000Y-67340000D02*
G75*
G02*
X130110000Y-68840000I0J-1500000D01*
G01*
X130110000Y-64840000D02*
G75*
G02*
X129610000Y-64340000I0J500000D01*
G01*
%TO.C,SWX0\u002CY5*%
X222168011Y-164203707D02*
X222510031Y-163264015D01*
X223107703Y-164545727D02*
X222168011Y-164203707D01*
X226614273Y-151987703D02*
X226956293Y-151048011D01*
X226956293Y-151048011D02*
X227895985Y-151390031D01*
X230697099Y-155389251D02*
X230995936Y-156030107D01*
X230995936Y-156030107D02*
X233345167Y-156885157D01*
X231894170Y-152100327D02*
X232535026Y-151801490D01*
X232535026Y-151801490D02*
X235354104Y-152827551D01*
X234002262Y-159465511D02*
X238230879Y-161004602D01*
X234241676Y-158807727D02*
X234002262Y-159465511D01*
X235310920Y-154408100D02*
X235652940Y-153468407D01*
X235323707Y-168991989D02*
X234384015Y-168649969D01*
X235354104Y-152827551D02*
X235652940Y-153468407D01*
X235665727Y-168052297D02*
X235323707Y-168991989D01*
X238230879Y-161004602D02*
X238401889Y-160534756D01*
X239172297Y-155494273D02*
X240111989Y-155836293D01*
X239633161Y-157151862D02*
X239838373Y-156588047D01*
X239838373Y-156588047D02*
X235609756Y-155048956D01*
X240111989Y-155836293D02*
X239769969Y-156775985D01*
X233345167Y-156885157D02*
G75*
G02*
X234241676Y-158807727I-513030J-1409539D01*
G01*
X235609756Y-155048956D02*
G75*
G02*
X235310921Y-154408100I171011J469846D01*
G01*
%TO.C,SWMR1*%
X217088011Y-141343707D02*
X217430031Y-140404015D01*
X218027703Y-141685727D02*
X217088011Y-141343707D01*
X221534273Y-129127703D02*
X221876293Y-128188011D01*
X221876293Y-128188011D02*
X222815985Y-128530031D01*
X225617099Y-132529251D02*
X225915936Y-133170107D01*
X225915936Y-133170107D02*
X228265167Y-134025157D01*
X226814170Y-129240327D02*
X227455026Y-128941490D01*
X227455026Y-128941490D02*
X230274104Y-129967551D01*
X228922262Y-136605511D02*
X233150879Y-138144602D01*
X229161676Y-135947727D02*
X228922262Y-136605511D01*
X230230920Y-131548100D02*
X230572940Y-130608407D01*
X230243707Y-146131989D02*
X229304015Y-145789969D01*
X230274104Y-129967551D02*
X230572940Y-130608407D01*
X230585727Y-145192297D02*
X230243707Y-146131989D01*
X233150879Y-138144602D02*
X233321889Y-137674756D01*
X234092297Y-132634273D02*
X235031989Y-132976293D01*
X234553161Y-134291862D02*
X234758373Y-133728047D01*
X234758373Y-133728047D02*
X230529756Y-132188956D01*
X235031989Y-132976293D02*
X234689969Y-133915985D01*
X228265167Y-134025157D02*
G75*
G02*
X229161676Y-135947727I-513030J-1409539D01*
G01*
X230529756Y-132188956D02*
G75*
G02*
X230230921Y-131548100I171011J469846D01*
G01*
%TD*%
M02*
